Homoneta-Italic.ufo
<glyph name="exclam" format="2">
  <advance width="304"/>
  <unicode hex="0021"/>
  <outline>
    <contour>
      <point x="147" y="548" type="curve"/>
      <point x="107" y="347"/>
      <point x="93" y="158"/>
      <point x="120" y="158" type="curve" smooth="yes"/>
      <point x="148" y="158"/>
      <point x="199" y="336"/>
      <point x="233" y="548" type="curve"/>
      <point x="236" y="573"/>
      <point x="234" y="608"/>
      <point x="200" y="610" type="curve" smooth="yes"/>
      <point x="169" y="612"/>
      <point x="151" y="573"/>
    </contour>
    <component base="period"/>
  </outline>
</glyph>
<glyph name="quotedbl" format="2">
  <advance width="300"/>
  <unicode hex="0022"/>
  <outline>
    <contour>
      <point x="140" y="657" type="line"/>
      <point x="93" y="657" type="line"/>
      <point x="50" y="447" type="line"/>
      <point x="97" y="447" type="line"/>
    </contour>
    <contour>
      <point x="250" y="657" type="line"/>
      <point x="203" y="657" type="line"/>
      <point x="160" y="447" type="line"/>
      <point x="207" y="447" type="line"/>
    </contour>
  </outline>
</glyph>
<glyph name="numbersign" format="2">
  <advance width="633"/>
  <unicode hex="0023"/>
  <outline>
    <contour>
      <point x="531" y="363" type="line"/>
      <point x="531" y="403" type="line"/>
      <point x="100" y="403" type="line"/>
      <point x="101" y="364" type="line"/>
    </contour>
    <contour>
      <point x="533" y="203" type="line"/>
      <point x="533" y="243" type="line"/>
      <point x="101" y="243" type="line"/>
      <point x="101" y="204" type="line"/>
    </contour>
    <contour>
      <point x="128" y="1" type="line"/>
      <point x="169" y="1" type="line"/>
      <point x="326" y="601" type="line"/>
      <point x="285" y="601" type="line"/>
    </contour>
    <contour>
      <point x="304" y="1" type="line"/>
      <point x="345" y="1" type="line"/>
      <point x="502" y="601" type="line"/>
      <point x="461" y="601" type="line"/>
    </contour>
  </outline>
</glyph>
<glyph name="ampersand" format="2">
  <advance width="587"/>
  <unicode hex="0026"/>
  <outline>
    <contour>
      <point x="437" y="260" type="line"/>
      <point x="428" y="233"/>
      <point x="406" y="194"/>
      <point x="386" y="166" type="curve"/>
      <point x="379" y="166" type="line"/>
      <point x="301" y="328" type="line"/>
      <point x="348" y="351"/>
      <point x="447" y="411"/>
      <point x="449" y="501" type="curve" smooth="yes"/>
      <point x="450" y="565"/>
      <point x="418" y="610"/>
      <point x="346" y="610" type="curve" smooth="yes"/>
      <point x="274" y="610"/>
      <point x="206" y="565"/>
      <point x="190" y="480" type="curve" smooth="yes"/>
      <point x="180" y="426"/>
      <point x="189" y="388"/>
      <point x="217" y="338" type="curve"/>
      <point x="98" y="277"/>
      <point x="34" y="218"/>
      <point x="21" y="134" type="curve" smooth="yes"/>
      <point x="11" y="67"/>
      <point x="53" y="-8"/>
      <point x="164" y="-10" type="curve" smooth="yes"/>
      <point x="247" y="-11"/>
      <point x="312" y="20"/>
      <point x="360" y="67" type="curve"/>
      <point x="398" y="5"/>
      <point x="427" y="-8"/>
      <point x="465" y="-8" type="curve" smooth="yes"/>
      <point x="518" y="-8"/>
      <point x="540" y="15"/>
      <point x="557" y="47" type="curve"/>
      <point x="548" y="66" type="line"/>
      <point x="534" y="51"/>
      <point x="511" y="35"/>
      <point x="489" y="35" type="curve" smooth="yes"/>
      <point x="456" y="35"/>
      <point x="444" y="50"/>
      <point x="404" y="116" type="curve"/>
      <point x="426" y="150"/>
      <point x="463" y="207"/>
      <point x="488" y="260" type="curve"/>
      <point x="501" y="269" type="line"/>
      <point x="557" y="269" type="line"/>
      <point x="557" y="299" type="line"/>
      <point x="438" y="299" type="line"/>
    </contour>
    <contour>
      <point x="347" y="584" type="curve" smooth="yes"/>
      <point x="393" y="584"/>
      <point x="412" y="537"/>
      <point x="404" y="495" type="curve" smooth="yes"/>
      <point x="393" y="439"/>
      <point x="344" y="392"/>
      <point x="294" y="371" type="curve"/>
      <point x="280" y="371" type="line"/>
      <point x="260" y="412"/>
      <point x="256" y="445"/>
      <point x="260" y="476" type="curve" smooth="yes"/>
      <point x="267" y="534"/>
      <point x="289" y="584"/>
    </contour>
    <contour>
      <point x="231" y="-32"/>
      <point x="43" y="45"/>
      <point x="119" y="194" type="curve" smooth="yes"/>
      <point x="141" y="237"/>
      <point x="177" y="265"/>
      <point x="240" y="303" type="curve"/>
      <point x="335" y="114" type="line"/>
    </contour>
  </outline>
</glyph>
<glyph name="quotesingle" format="2">
  <advance width="222"/>
  <unicode hex="0027"/>
  <outline>
    <contour>
      <point x="60" y="492" type="line"/>
      <point x="137" y="493"/>
      <point x="182" y="526"/>
      <point x="197" y="573" type="curve" smooth="yes"/>
      <point x="211" y="616"/>
      <point x="191" y="654"/>
      <point x="161" y="663" type="curve" smooth="yes"/>
      <point x="136" y="671"/>
      <point x="112" y="658"/>
      <point x="105" y="636" type="curve" smooth="yes"/>
      <point x="97" y="612"/>
      <point x="107" y="594"/>
      <point x="129" y="587" type="curve" smooth="yes"/>
      <point x="133" y="586"/>
      <point x="138" y="586"/>
      <point x="142" y="587" type="curve" smooth="yes"/>
      <point x="153" y="589"/>
      <point x="159" y="590"/>
      <point x="162" y="589" type="curve" smooth="yes"/>
      <point x="164" y="588"/>
      <point x="165" y="587"/>
      <point x="165" y="584" type="curve" smooth="yes"/>
      <point x="166" y="580"/>
      <point x="165" y="576"/>
      <point x="165" y="572" type="curve" smooth="yes"/>
      <point x="158" y="534"/>
      <point x="115" y="509"/>
      <point x="64" y="507" type="curve"/>
    </contour>
  </outline>
</glyph>
<glyph name="parenleft" format="2">
  <advance width="491"/>
  <unicode hex="0028"/>
  <outline>
    <contour>
      <point x="391" y="629" type="curve"/>
      <point x="370" y="662" type="line"/>
      <point x="269" y="629"/>
      <point x="111" y="545"/>
      <point x="61" y="313" type="curve" smooth="yes"/>
      <point x="13" y="89"/>
      <point x="128" y="-84"/>
      <point x="229" y="-129" type="curve"/>
      <point x="250" y="-98" type="line"/>
      <point x="165" y="-58"/>
      <point x="85" y="89"/>
      <point x="133" y="313" type="curve" smooth="yes"/>
      <point x="183" y="545"/>
      <point x="296" y="587"/>
    </contour>
  </outline>
</glyph>
<glyph name="asterisk" format="2">
  <advance width="365"/>
  <unicode hex="002A"/>
  <outline>
    <contour>
      <point x="314" y="580" type="line"/>
      <point x="294" y="612" type="line"/>
      <point x="203" y="555" type="line"/>
      <point x="194" y="563" type="line"/>
      <point x="202" y="668" type="line"/>
      <point x="162" y="668" type="line"/>
      <point x="169" y="563" type="line"/>
      <point x="161" y="555" type="line"/>
      <point x="70" y="612" type="line"/>
      <point x="52" y="578" type="line"/>
      <point x="142" y="531" type="line"/>
      <point x="142" y="520" type="line"/>
      <point x="50" y="471" type="line"/>
      <point x="68" y="437" type="line"/>
      <point x="161" y="495" type="line"/>
      <point x="169" y="487" type="line"/>
      <point x="162" y="383" type="line"/>
      <point x="202" y="383" type="line"/>
      <point x="194" y="487" type="line"/>
      <point x="203" y="495" type="line"/>
      <point x="296" y="437" type="line"/>
      <point x="315" y="470" type="line"/>
      <point x="222" y="520" type="line"/>
      <point x="222" y="531" type="line"/>
    </contour>
  </outline>
</glyph>
<glyph name="plus" format="2">
  <advance width="519"/>
  <unicode hex="002B"/>
  <outline>
    <contour>
      <point x="239" y="62" type="line"/>
      <point x="276" y="62" type="line"/>
      <point x="276" y="218" type="line"/>
      <point x="293" y="235" type="line"/>
      <point x="449" y="235" type="line"/>
      <point x="449" y="270" type="line"/>
      <point x="293" y="270" type="line"/>
      <point x="276" y="286" type="line"/>
      <point x="276" y="438" type="line"/>
      <point x="239" y="438" type="line"/>
      <point x="239" y="286" type="line"/>
      <point x="224" y="270" type="line"/>
      <point x="70" y="270" type="line"/>
      <point x="70" y="235" type="line"/>
      <point x="224" y="235" type="line"/>
      <point x="239" y="218" type="line"/>
    </contour>
  </outline>
</glyph>
<glyph name="comma" format="2">
  <advance width="251"/>
  <unicode hex="002C"/>
  <outline>
    <contour>
      <point x="50" y="-123" type="line"/>
      <point x="140" y="-110"/>
      <point x="189" y="-65"/>
      <point x="199" y="-6" type="curve" smooth="yes"/>
      <point x="208" y="46"/>
      <point x="179" y="87"/>
      <point x="143" y="94" type="curve" smooth="yes"/>
      <point x="112" y="100"/>
      <point x="86" y="81"/>
      <point x="81" y="53" type="curve" smooth="yes"/>
      <point x="76" y="24"/>
      <point x="90" y="5"/>
      <point x="117" y="0" type="curve" smooth="yes"/>
      <point x="122" y="-1"/>
      <point x="127" y="-1"/>
      <point x="133" y="1" type="curve" smooth="yes"/>
      <point x="145" y="5"/>
      <point x="152" y="7"/>
      <point x="155" y="6" type="curve" smooth="yes"/>
      <point x="158" y="5"/>
      <point x="160" y="5"/>
      <point x="160" y="1" type="curve" smooth="yes"/>
      <point x="160" y="-3"/>
      <point x="162" y="-8"/>
      <point x="162" y="-13" type="curve" smooth="yes"/>
      <point x="162" y="-58"/>
      <point x="113" y="-95"/>
      <point x="53" y="-105" type="curve"/>
    </contour>
  </outline>
</glyph>
<glyph name="period" format="2">
  <advance width="207"/>
  <unicode hex="002E"/>
  <outline>
    <contour>
      <point x="104" y="-23" type="curve" smooth="yes"/>
      <point x="133" y="-23"/>
      <point x="157" y="1"/>
      <point x="157" y="31" type="curve" smooth="yes"/>
      <point x="157" y="59"/>
      <point x="133" y="84"/>
      <point x="104" y="84" type="curve" smooth="yes"/>
      <point x="75" y="84"/>
      <point x="50" y="59"/>
      <point x="50" y="31" type="curve" smooth="yes"/>
      <point x="50" y="1"/>
      <point x="75" y="-23"/>
    </contour>
  </outline>
</glyph>
<glyph name="slash" format="2">
  <advance width="338"/>
  <unicode hex="002F"/>
  <outline>
    <contour>
      <point x="70" y="1" type="line"/>
      <point x="111" y="1" type="line"/>
      <point x="268" y="601" type="line"/>
      <point x="227" y="601" type="line"/>
    </contour>
  </outline>
</glyph>
<glyph name="zero" format="2">
  <advance width="422"/>
  <unicode hex="0030"/>
  <outline>
    <contour>
      <point x="214" y="-9" type="curve" smooth="yes"/>
      <point x="312" y="-9"/>
      <point x="392" y="97"/>
      <point x="392" y="222" type="curve" smooth="yes"/>
      <point x="392" y="356"/>
      <point x="312" y="450"/>
      <point x="214" y="450" type="curve" smooth="yes"/>
      <point x="107" y="450"/>
      <point x="30" y="356"/>
      <point x="30" y="222" type="curve" smooth="yes"/>
      <point x="30" y="97"/>
      <point x="107" y="-9"/>
    </contour>
    <contour>
      <point x="105" y="222" type="curve" smooth="yes"/>
      <point x="105" y="356"/>
      <point x="157" y="433"/>
      <point x="214" y="433" type="curve" smooth="yes"/>
      <point x="267" y="433"/>
      <point x="319" y="356"/>
      <point x="319" y="222" type="curve" smooth="yes"/>
      <point x="319" y="97"/>
      <point x="267" y="9"/>
      <point x="214" y="9" type="curve" smooth="yes"/>
      <point x="157" y="9"/>
      <point x="105" y="97"/>
    </contour>
  </outline>
</glyph>
<glyph name="four" format="2">
  <advance width="498"/>
  <unicode hex="0034"/>
  <outline>
    <contour>
      <point x="304" y="-180" type="line"/>
      <point x="374" y="-180" type="line"/>
      <point x="374" y="-14" type="line"/>
      <point x="458" y="-14" type="line"/>
      <point x="458" y="35" type="line"/>
      <point x="374" y="35" type="line"/>
      <point x="374" y="440" type="line"/>
      <point x="340" y="440" type="line"/>
      <point x="40" y="46" type="line"/>
      <point x="40" y="-14" type="line"/>
      <point x="304" y="-14" type="line"/>
    </contour>
    <contour>
      <point x="84" y="35" type="line"/>
      <point x="84" y="49" type="line"/>
      <point x="292" y="320" type="line"/>
      <point x="304" y="320" type="line"/>
      <point x="304" y="35" type="line"/>
    </contour>
  </outline>
</glyph>
<glyph name="five" format="2">
  <advance width="496"/>
  <unicode hex="0035"/>
  <outline>
    <contour>
      <point x="250" y="-172" type="curve" smooth="yes"/>
      <point x="347" y="-172"/>
      <point x="447" y="-83"/>
      <point x="435" y="49" type="curve" smooth="yes"/>
      <point x="427" y="137"/>
      <point x="343" y="241"/>
      <point x="149" y="244" type="curve"/>
      <point x="149" y="273" type="line"/>
      <point x="183" y="391" type="line"/>
      <point x="373" y="391" type="line"/>
      <point x="375" y="440" type="line"/>
      <point x="165" y="440" type="line"/>
      <point x="100" y="226" type="line"/>
      <point x="100" y="186" type="line"/>
      <point x="298" y="186"/>
      <point x="357" y="88"/>
      <point x="361" y="27" type="curve" smooth="yes"/>
      <point x="368" y="-76"/>
      <point x="301" y="-133"/>
      <point x="248" y="-135" type="curve" smooth="yes"/>
      <point x="176" y="-138"/>
      <point x="123" y="-92"/>
      <point x="86" y="-16" type="curve"/>
      <point x="60" y="-28" type="line"/>
      <point x="89" y="-111"/>
      <point x="155" y="-172"/>
    </contour>
  </outline>
</glyph>
<glyph name="seven" format="2">
  <advance width="431"/>
  <unicode hex="0037"/>
  <outline>
    <contour>
      <point x="87" y="-158" type="line"/>
      <point x="162" y="-158" type="line"/>
      <point x="411" y="383" type="line"/>
      <point x="411" y="440" type="line"/>
      <point x="40" y="441" type="line"/>
      <point x="40" y="337" type="line"/>
      <point x="78" y="337" type="line"/>
      <point x="78" y="384" type="line"/>
      <point x="100" y="404" type="line"/>
      <point x="336" y="404" type="line"/>
      <point x="336" y="375" type="line"/>
    </contour>
  </outline>
</glyph>
<glyph name="eight" format="2">
  <advance width="456"/>
  <unicode hex="0038"/>
  <outline>
    <contour>
      <point x="221" y="-10" type="curve" smooth="yes"/>
      <point x="331" y="-10"/>
      <point x="406" y="64"/>
      <point x="406" y="147" type="curve" smooth="yes"/>
      <point x="406" y="235"/>
      <point x="366" y="264"/>
      <point x="275" y="336" type="curve"/>
      <point x="302" y="350"/>
      <point x="369" y="401"/>
      <point x="369" y="479" type="curve" smooth="yes"/>
      <point x="369" y="549"/>
      <point x="300" y="611"/>
      <point x="221" y="611" type="curve" smooth="yes"/>
      <point x="141" y="611"/>
      <point x="67" y="550"/>
      <point x="67" y="479" type="curve" smooth="yes"/>
      <point x="67" y="401"/>
      <point x="119" y="358"/>
      <point x="170" y="323" type="curve"/>
      <point x="125" y="295"/>
      <point x="50" y="246"/>
      <point x="50" y="147" type="curve" smooth="yes"/>
      <point x="50" y="64"/>
      <point x="121" y="-10"/>
    </contour>
    <contour>
      <point x="100" y="147" type="curve" smooth="yes"/>
      <point x="100" y="215"/>
      <point x="167" y="276"/>
      <point x="208" y="299" type="curve"/>
      <point x="269" y="257"/>
      <point x="334" y="215"/>
      <point x="334" y="147" type="curve" smooth="yes"/>
      <point x="334" y="64"/>
      <point x="280" y="13"/>
      <point x="221" y="15" type="curve" smooth="yes"/>
      <point x="158" y="17"/>
      <point x="100" y="64"/>
    </contour>
    <contour>
      <point x="137" y="479" type="curve" smooth="yes"/>
      <point x="137" y="550"/>
      <point x="178" y="586"/>
      <point x="221" y="586" type="curve" smooth="yes"/>
      <point x="280" y="586"/>
      <point x="323" y="550"/>
      <point x="323" y="479" type="curve" smooth="yes"/>
      <point x="323" y="401"/>
      <point x="270" y="373"/>
      <point x="239" y="356" type="curve"/>
      <point x="188" y="389"/>
      <point x="137" y="421"/>
    </contour>
  </outline>
</glyph>
<glyph name="equal" format="2">
  <advance width="586"/>
  <unicode hex="003D"/>
  <outline>
    <contour>
      <point x="100" y="307" type="line"/>
      <point x="486" y="307" type="line"/>
      <point x="486" y="342" type="line"/>
      <point x="100" y="342" type="line"/>
    </contour>
    <contour>
      <point x="100" y="137" type="line"/>
      <point x="486" y="137" type="line"/>
      <point x="486" y="172" type="line"/>
      <point x="100" y="172" type="line"/>
    </contour>
  </outline>
</glyph>
<glyph name="question" format="2">
  <advance width="429"/>
  <unicode hex="003F"/>
  <outline>
    <contour>
      <point x="93" y="278"/>
      <point x="105" y="154"/>
      <point x="134" y="154" type="curve" smooth="yes"/>
      <point x="151" y="154"/>
      <point x="173" y="227"/>
      <point x="185" y="250" type="curve" smooth="yes"/>
      <point x="225" y="325"/>
      <point x="341" y="366"/>
      <point x="371" y="448" type="curve" smooth="yes"/>
      <point x="400" y="527"/>
      <point x="353" y="589"/>
      <point x="251" y="605" type="curve" smooth="yes"/>
      <point x="168" y="618"/>
      <point x="100" y="582"/>
      <point x="79" y="533" type="curve" smooth="yes"/>
      <point x="64" y="497"/>
      <point x="66" y="460"/>
      <point x="94" y="448" type="curve" smooth="yes"/>
      <point x="118" y="438"/>
      <point x="142" y="450"/>
      <point x="155" y="473" type="curve" smooth="yes"/>
      <point x="160" y="482"/>
      <point x="164" y="495"/>
      <point x="157" y="516" type="curve"/>
      <point x="153" y="552"/>
      <point x="174" y="585"/>
      <point x="237" y="578" type="curve" smooth="yes"/>
      <point x="290" y="572"/>
      <point x="319" y="530"/>
      <point x="307" y="478" type="curve" smooth="yes"/>
      <point x="299" y="442"/>
      <point x="230" y="392"/>
      <point x="201" y="368" type="curve" smooth="yes"/>
    </contour>
    <component base="period" xOffset="21"/>
  </outline>
</glyph>
<glyph name="at" format="2">
  <advance width="867"/>
  <unicode hex="0040"/>
  <outline>
    <contour>
      <point x="443" y="614" type="curve" smooth="yes"/>
      <point x="215" y="614"/>
      <point x="44" y="447"/>
      <point x="30" y="219" type="curve" smooth="yes"/>
      <point x="13" y="-68"/>
      <point x="209" y="-208"/>
      <point x="495" y="-172" type="curve"/>
      <point x="496" y="-137" type="line"/>
      <point x="240" y="-174"/>
      <point x="56" y="-43"/>
      <point x="75" y="220" type="curve" smooth="yes"/>
      <point x="89" y="429"/>
      <point x="236" y="576"/>
      <point x="443" y="576" type="curve" smooth="yes"/>
      <point x="672" y="576"/>
      <point x="811" y="430"/>
      <point x="758" y="220" type="curve" smooth="yes"/>
      <point x="738" y="140"/>
      <point x="625" y="11"/>
      <point x="554" y="31" type="curve"/>
      <point x="546" y="47" type="line"/>
      <point x="622" y="399" type="line"/>
      <point x="602" y="399" type="line"/>
      <point x="573" y="351" type="line"/>
      <point x="563" y="377"/>
      <point x="526" y="408"/>
      <point x="468" y="408" type="curve" smooth="yes"/>
      <point x="351" y="408"/>
      <point x="267" y="330"/>
      <point x="241" y="224" type="curve" smooth="yes"/>
      <point x="213" y="110"/>
      <point x="245" y="-10"/>
      <point x="359" y="-10" type="curve" smooth="yes"/>
      <point x="407" y="-10"/>
      <point x="448" y="21"/>
      <point x="491" y="74" type="curve"/>
      <point x="482" y="25"/>
      <point x="486" y="-7"/>
      <point x="526" y="-10" type="curve" smooth="yes"/>
      <point x="648" y="-20"/>
      <point x="775" y="97"/>
      <point x="806" y="219" type="curve" smooth="yes"/>
      <point x="866" y="465"/>
      <point x="672" y="614"/>
    </contour>
    <contour>
      <point x="537" y="300" type="curve" smooth="yes"/>
      <point x="522" y="225" type="line"/>
      <point x="500" y="122" type="line"/>
      <point x="453" y="60"/>
      <point x="419" y="23"/>
      <point x="364" y="23" type="curve" smooth="yes"/>
      <point x="303" y="23"/>
      <point x="293" y="107"/>
      <point x="317" y="215" type="curve" smooth="yes"/>
      <point x="341" y="321"/>
      <point x="402" y="385"/>
      <point x="476" y="385" type="curve" smooth="yes"/>
      <point x="520" y="385"/>
      <point x="547" y="349"/>
    </contour>
  </outline>
</glyph>
<glyph name="A" format="2">
  <advance width="515"/>
  <unicode hex="0041"/>
  <outline>
    <contour>
      <point x="415" y="28" type="line"/>
      <point x="408" y="48" type="line"/>
      <point x="408" y="600" type="line"/>
      <point x="322" y="600" type="line"/>
      <point x="3" y="28" type="line"/>
      <point x="-50" y="28" type="line"/>
      <point x="-50" y="0" type="line"/>
      <point x="132" y="0" type="line"/>
      <point x="132" y="28" type="line"/>
      <point x="84" y="28" type="line"/>
      <point x="65" y="50" type="line"/>
      <point x="65" y="51" type="line"/>
      <point x="172" y="242" type="line"/>
      <point x="172" y="243" type="line"/>
      <point x="197" y="255" type="line"/>
      <point x="316" y="255" type="line"/>
      <point x="333" y="242" type="line"/>
      <point x="333" y="51" type="line"/>
      <point x="314" y="28" type="line"/>
      <point x="266" y="28" type="line"/>
      <point x="266" y="0" type="line"/>
      <point x="465" y="0" type="line"/>
      <point x="465" y="28" type="line"/>
    </contour>
    <contour>
      <point x="317" y="279" type="line"/>
      <point x="207" y="279" type="line"/>
      <point x="200" y="293" type="line"/>
      <point x="200" y="294" type="line"/>
      <point x="333" y="532" type="line"/>
      <point x="333" y="292" type="line"/>
    </contour>
  </outline>
</glyph>
<glyph name="B" format="2">
  <advance width="544"/>
  <unicode hex="0042"/>
  <outline>
    <contour>
      <point x="360" y="330" type="curve"/>
      <point x="452" y="342"/>
      <point x="504" y="369"/>
      <point x="522" y="471" type="curve" smooth="yes"/>
      <point x="535" y="547"/>
      <point x="478" y="600"/>
      <point x="393" y="600" type="curve"/>
      <point x="189" y="600" type="line"/>
      <point x="63" y="28" type="line"/>
      <point x="0" y="28" type="line"/>
      <point x="0" y="0" type="line"/>
      <point x="261" y="0" type="line" smooth="yes"/>
      <point x="394" y="0"/>
      <point x="470" y="27"/>
      <point x="490" y="173" type="curve" smooth="yes"/>
      <point x="498" y="235"/>
      <point x="478" y="318"/>
    </contour>
    <contour>
      <point x="217" y="367" type="line"/>
      <point x="256" y="550" type="line"/>
      <point x="285" y="572" type="line"/>
      <point x="360" y="572" type="line" smooth="yes"/>
      <point x="404" y="572"/>
      <point x="457" y="530"/>
      <point x="448" y="469" type="curve" smooth="yes"/>
      <point x="437" y="393"/>
      <point x="363" y="345"/>
      <point x="303" y="345" type="curve" smooth="yes"/>
      <point x="236" y="345" type="line"/>
    </contour>
    <contour>
      <point x="268" y="28" type="curve" smooth="yes"/>
      <point x="174" y="28" type="line"/>
      <point x="145" y="50" type="line"/>
      <point x="201" y="292" type="line"/>
      <point x="230" y="314" type="line"/>
      <point x="305" y="314" type="line" smooth="yes"/>
      <point x="384" y="314"/>
      <point x="415" y="234"/>
      <point x="404" y="168" type="curve" smooth="yes"/>
      <point x="393" y="101"/>
      <point x="347" y="28"/>
    </contour>
  </outline>
</glyph>
<glyph name="C" format="2">
  <advance width="569"/>
  <unicode hex="0043"/>
  <outline>
    <contour>
      <point x="523" y="575" type="line"/>
      <point x="516" y="546" type="line"/>
      <point x="490" y="546" type="line"/>
      <point x="460" y="595"/>
      <point x="412" y="607"/>
      <point x="354" y="611" type="curve" smooth="yes"/>
      <point x="177" y="618"/>
      <point x="52" y="463"/>
      <point x="32" y="277" type="curve" smooth="yes"/>
      <point x="18" y="127"/>
      <point x="94" y="-10"/>
      <point x="245" y="-10" type="curve" smooth="yes"/>
      <point x="337" y="-10"/>
      <point x="432" y="24"/>
      <point x="478" y="175" type="curve"/>
      <point x="441" y="175" type="line"/>
      <point x="417" y="93"/>
      <point x="350" y="22"/>
      <point x="255" y="22" type="curve" smooth="yes"/>
      <point x="172" y="22"/>
      <point x="114" y="133"/>
      <point x="133" y="274" type="curve" smooth="yes"/>
      <point x="154" y="440"/>
      <point x="222" y="592"/>
      <point x="350" y="584" type="curve" smooth="yes"/>
      <point x="436" y="584"/>
      <point x="494" y="484"/>
      <point x="485" y="390" type="curve"/>
      <point x="515" y="390" type="line"/>
      <point x="549" y="575" type="line"/>
    </contour>
  </outline>
</glyph>
<glyph name="D" format="2">
  <advance width="570"/>
  <unicode hex="0044"/>
  <outline>
    <contour>
      <point x="352" y="608" type="curve"/>
      <point x="164" y="608" type="line"/>
      <point x="44" y="28" type="line"/>
      <point x="-20" y="28" type="line"/>
      <point x="-20" y="0" type="line"/>
      <point x="237" y="0" type="line" smooth="yes"/>
      <point x="380" y="0"/>
      <point x="534" y="105"/>
      <point x="564" y="306" type="curve" smooth="yes"/>
      <point x="595" y="512"/>
      <point x="495" y="608"/>
    </contour>
    <contour>
      <point x="235" y="28" type="curve" smooth="yes"/>
      <point x="149" y="28" type="line"/>
      <point x="130" y="50" type="line"/>
      <point x="235" y="558" type="line"/>
      <point x="254" y="580" type="line"/>
      <point x="350" y="580" type="line" smooth="yes"/>
      <point x="423" y="580"/>
      <point x="513" y="508"/>
      <point x="478" y="298" type="curve" smooth="yes"/>
      <point x="448" y="118"/>
      <point x="308" y="28"/>
    </contour>
  </outline>
</glyph>
<glyph name="E" format="2">
  <advance width="478"/>
  <unicode hex="0045"/>
  <outline>
    <contour>
      <point x="366" y="105" type="line"/>
      <point x="356" y="57" type="line"/>
      <point x="334" y="38" type="line"/>
      <point x="160" y="38" type="line"/>
      <point x="131" y="60" type="line"/>
      <point x="179" y="289" type="line"/>
      <point x="208" y="311" type="line"/>
      <point x="367" y="311" type="line"/>
      <point x="389" y="292" type="line"/>
      <point x="389" y="262" type="line"/>
      <point x="417" y="262" type="line"/>
      <point x="444" y="394" type="line"/>
      <point x="416" y="394" type="line"/>
      <point x="407" y="366" type="line"/>
      <point x="385" y="347" type="line"/>
      <point x="216" y="347" type="line"/>
      <point x="197" y="369" type="line"/>
      <point x="232" y="540" type="line"/>
      <point x="261" y="562" type="line"/>
      <point x="408" y="562" type="line"/>
      <point x="430" y="543" type="line"/>
      <point x="439" y="497" type="line"/>
      <point x="467" y="497" type="line"/>
      <point x="488" y="600" type="line"/>
      <point x="163" y="600" type="line"/>
      <point x="45" y="28" type="line"/>
      <point x="-20" y="28" type="line"/>
      <point x="-20" y="0" type="line"/>
      <point x="372" y="0" type="line"/>
      <point x="394" y="105" type="line"/>
    </contour>
  </outline>
</glyph>
<glyph name="F" format="2">
  <advance width="504"/>
  <unicode hex="0046"/>
  <outline>
    <contour>
      <point x="234" y="0" type="line"/>
      <point x="234" y="28" type="line"/>
      <point x="184" y="28" type="line"/>
      <point x="165" y="50" type="line"/>
      <point x="215" y="289" type="line"/>
      <point x="244" y="311" type="line"/>
      <point x="403" y="311" type="line"/>
      <point x="425" y="292" type="line"/>
      <point x="425" y="262" type="line"/>
      <point x="453" y="262" type="line"/>
      <point x="480" y="394" type="line"/>
      <point x="452" y="394" type="line"/>
      <point x="443" y="366" type="line"/>
      <point x="421" y="347" type="line"/>
      <point x="252" y="347" type="line"/>
      <point x="233" y="369" type="line"/>
      <point x="268" y="540" type="line"/>
      <point x="287" y="562" type="line"/>
      <point x="444" y="562" type="line"/>
      <point x="466" y="543" type="line"/>
      <point x="475" y="497" type="line"/>
      <point x="503" y="497" type="line"/>
      <point x="524" y="600" type="line"/>
      <point x="203" y="599" type="line"/>
      <point x="84" y="28" type="line"/>
      <point x="20" y="28" type="line"/>
      <point x="20" y="0" type="line"/>
    </contour>
  </outline>
</glyph>
<glyph name="G" format="2">
  <advance width="579"/>
  <unicode hex="0047"/>
  <outline>
    <contour>
      <point x="352" y="248" type="line"/>
      <point x="352" y="225" type="line"/>
      <point x="411" y="225" type="line"/>
      <point x="433" y="206" type="line"/>
      <point x="418" y="121" type="line"/>
      <point x="382" y="57"/>
      <point x="324" y="12"/>
      <point x="255" y="12" type="curve" smooth="yes"/>
      <point x="172" y="12"/>
      <point x="114" y="133"/>
      <point x="133" y="274" type="curve" smooth="yes"/>
      <point x="152" y="425"/>
      <point x="210" y="563"/>
      <point x="316" y="582" type="curve" smooth="yes"/>
      <point x="424" y="602"/>
      <point x="495" y="499"/>
      <point x="485" y="390" type="curve"/>
      <point x="515" y="390" type="line"/>
      <point x="549" y="575" type="line"/>
      <point x="523" y="575" type="line"/>
      <point x="516" y="546" type="line"/>
      <point x="490" y="546" type="line"/>
      <point x="456" y="601"/>
      <point x="390" y="616"/>
      <point x="313" y="610" type="curve" smooth="yes"/>
      <point x="158" y="594"/>
      <point x="52" y="450"/>
      <point x="32" y="277" type="curve" smooth="yes"/>
      <point x="18" y="127"/>
      <point x="94" y="-14"/>
      <point x="245" y="-14" type="curve" smooth="yes"/>
      <point x="308" y="-14"/>
      <point x="367" y="15"/>
      <point x="409" y="73" type="curve"/>
      <point x="383" y="-54" type="line"/>
      <point x="365" y="-127"/>
      <point x="346" y="-161"/>
      <point x="310" y="-155" type="curve" smooth="yes"/>
      <point x="293" y="-152"/>
      <point x="284" y="-140"/>
      <point x="281" y="-118" type="curve"/>
      <point x="282" y="-97"/>
      <point x="277" y="-87"/>
      <point x="270" y="-79" type="curve" smooth="yes"/>
      <point x="255" y="-62"/>
      <point x="230" y="-57"/>
      <point x="210" y="-71" type="curve" smooth="yes"/>
      <point x="188" y="-86"/>
      <point x="185" y="-123"/>
      <point x="206" y="-152" type="curve" smooth="yes"/>
      <point x="224" y="-176"/>
      <point x="258" y="-184"/>
      <point x="307" y="-186" type="curve" smooth="yes"/>
      <point x="370" y="-189"/>
      <point x="430" y="-138"/>
      <point x="447" y="-54" type="curve" smooth="yes"/>
      <point x="516" y="285" type="line"/>
      <point x="485" y="291" type="line"/>
    </contour>
  </outline>
</glyph>
<glyph name="H" format="2">
  <advance width="597"/>
  <unicode hex="0048"/>
  <outline>
    <contour>
      <point x="462" y="50" type="line"/>
      <point x="577" y="600" type="line"/>
      <point x="418" y="600" type="line"/>
      <point x="418" y="572" type="line"/>
      <point x="466" y="572" type="line"/>
      <point x="485" y="550" type="line"/>
      <point x="445" y="353" type="line"/>
      <point x="426" y="331" type="line"/>
      <point x="194" y="331" type="line"/>
      <point x="175" y="353" type="line"/>
      <point x="221" y="572" type="line"/>
      <point x="283" y="572" type="line"/>
      <point x="283" y="600" type="line"/>
      <point x="66" y="600" type="line"/>
      <point x="66" y="572" type="line"/>
      <point x="116" y="572" type="line"/>
      <point x="135" y="550" type="line"/>
      <point x="20" y="0" type="line"/>
      <point x="176" y="0" type="line"/>
      <point x="176" y="28" type="line"/>
      <point x="128" y="28" type="line"/>
      <point x="109" y="50" type="line"/>
      <point x="159" y="275" type="line"/>
      <point x="178" y="297" type="line"/>
      <point x="410" y="297" type="line"/>
      <point x="429" y="275" type="line"/>
      <point x="377" y="28" type="line"/>
      <point x="315" y="28" type="line"/>
      <point x="315" y="0" type="line"/>
      <point x="531" y="0" type="line"/>
      <point x="531" y="28" type="line"/>
      <point x="481" y="28" type="line"/>
    </contour>
  </outline>
</glyph>
<glyph name="I" format="2">
  <advance width="279"/>
  <unicode hex="0049"/>
  <outline>
    <contour>
      <point x="128" y="50" type="line"/>
      <point x="249" y="600" type="line"/>
      <point x="170" y="600" type="line"/>
      <point x="45" y="28" type="line"/>
      <point x="-20" y="28" type="line"/>
      <point x="-20" y="0" type="line"/>
      <point x="195" y="0" type="line"/>
      <point x="195" y="28" type="line"/>
      <point x="147" y="28" type="line"/>
    </contour>
  </outline>
</glyph>
<glyph name="J" format="2">
  <advance width="285"/>
  <unicode hex="004A"/>
  <outline>
    <contour>
      <point x="98" y="600" type="line"/>
      <point x="98" y="572" type="line"/>
      <point x="148" y="572" type="line"/>
      <point x="167" y="550" type="line"/>
      <point x="29" y="-106" type="line"/>
      <point x="17" y="-109" type="line"/>
      <point x="-19" y="-16" type="line"/>
      <point x="-50" y="-4" type="line"/>
      <point x="-15" y="-103" type="line" smooth="yes"/>
      <point x="1" y="-149"/>
      <point x="8" y="-167"/>
      <point x="26" y="-174" type="curve" smooth="yes"/>
      <point x="69" y="-191"/>
      <point x="103" y="-153"/>
      <point x="112" y="-96" type="curve"/>
      <point x="253" y="572" type="line"/>
      <point x="315" y="572" type="line"/>
      <point x="315" y="600" type="line"/>
    </contour>
  </outline>
</glyph>
<glyph name="K" format="2">
  <advance width="659"/>
  <unicode hex="004B"/>
  <outline>
    <contour>
      <point x="629" y="580" type="line"/>
      <point x="629" y="601" type="line"/>
      <point x="455" y="600" type="line"/>
      <point x="455" y="579" type="line"/>
      <point x="492" y="579" type="line"/>
      <point x="507" y="562" type="line"/>
      <point x="230" y="333" type="line"/>
      <point x="289" y="600" type="line"/>
      <point x="130" y="600" type="line"/>
      <point x="130" y="572" type="line"/>
      <point x="180" y="572" type="line"/>
      <point x="199" y="550" type="line"/>
      <point x="85" y="28" type="line"/>
      <point x="20" y="28" type="line"/>
      <point x="20" y="0" type="line"/>
      <point x="235" y="0" type="line"/>
      <point x="235" y="28" type="line"/>
      <point x="187" y="28" type="line"/>
      <point x="168" y="50" type="line"/>
      <point x="218" y="285" type="line"/>
      <point x="444" y="52" type="line"/>
      <point x="425" y="28" type="line"/>
      <point x="375" y="28" type="line"/>
      <point x="375" y="0" type="line"/>
      <point x="618" y="-1" type="line"/>
      <point x="618" y="27" type="line"/>
      <point x="570" y="27" type="line"/>
      <point x="283" y="325" type="line"/>
      <point x="593" y="580" type="line"/>
    </contour>
  </outline>
</glyph>
<glyph name="L" format="2">
  <advance width="451"/>
  <unicode hex="004C"/>
  <outline>
    <contour>
      <point x="373" y="105" type="line"/>
      <point x="373" y="57" type="line"/>
      <point x="351" y="38" type="line"/>
      <point x="151" y="38" type="line"/>
      <point x="132" y="60" type="line"/>
      <point x="249" y="600" type="line"/>
      <point x="170" y="600" type="line"/>
      <point x="43" y="28" type="line"/>
      <point x="-20" y="28" type="line"/>
      <point x="-20" y="0" type="line"/>
      <point x="401" y="0" type="line"/>
      <point x="401" y="105" type="line"/>
    </contour>
  </outline>
</glyph>
<glyph name="M" format="2">
  <advance width="729"/>
  <unicode hex="004D"/>
  <outline>
    <contour>
      <point x="690" y="550" type="line"/>
      <point x="709" y="572" type="line"/>
      <point x="759" y="572" type="line"/>
      <point x="759" y="600" type="line"/>
      <point x="606" y="600" type="line"/>
      <point x="336" y="128" type="line"/>
      <point x="237" y="600" type="line"/>
      <point x="191" y="600" type="line"/>
      <point x="63" y="28" type="line"/>
      <point x="0" y="28" type="line"/>
      <point x="0" y="0" type="line"/>
      <point x="183" y="0" type="line"/>
      <point x="183" y="28" type="line"/>
      <point x="135" y="28" type="line"/>
      <point x="116" y="50" type="line"/>
      <point x="194" y="396" type="line"/>
      <point x="280" y="0" type="line"/>
      <point x="314" y="0" type="line"/>
      <point x="599" y="501" type="line"/>
      <point x="493" y="28" type="line"/>
      <point x="429" y="28" type="line"/>
      <point x="429" y="0" type="line"/>
      <point x="648" y="0" type="line"/>
      <point x="648" y="28" type="line"/>
      <point x="600" y="28" type="line"/>
      <point x="581" y="50" type="line"/>
    </contour>
  </outline>
</glyph>
<glyph name="N" format="2">
  <advance width="593"/>
  <unicode hex="004E"/>
  <outline>
    <contour>
      <point x="445" y="600" type="line"/>
      <point x="445" y="572" type="line"/>
      <point x="495" y="572" type="line"/>
      <point x="514" y="550" type="line"/>
      <point x="417" y="70" type="line"/>
      <point x="209" y="600" type="line"/>
      <point x="171" y="600" type="line"/>
      <point x="40" y="28" type="line"/>
      <point x="-20" y="28" type="line"/>
      <point x="-20" y="0" type="line"/>
      <point x="168" y="0" type="line"/>
      <point x="168" y="28" type="line"/>
      <point x="120" y="28" type="line"/>
      <point x="101" y="50" type="line"/>
      <point x="101" y="72" type="line"/>
      <point x="183" y="434" type="line"/>
      <point x="355" y="0" type="line"/>
      <point x="448" y="0" type="line"/>
      <point x="566" y="550" type="line"/>
      <point x="585" y="572" type="line"/>
      <point x="633" y="572" type="line"/>
      <point x="633" y="600" type="line"/>
    </contour>
  </outline>
</glyph>
<glyph name="O" format="2">
  <advance width="589"/>
  <unicode hex="004F"/>
  <outline>
    <contour>
      <point x="382" y="-18"/>
      <point x="515" y="120"/>
      <point x="553" y="322" type="curve" smooth="yes"/>
      <point x="581" y="472"/>
      <point x="509" y="604"/>
      <point x="373" y="610" type="curve" smooth="yes"/>
      <point x="219" y="617"/>
      <point x="92" y="486"/>
      <point x="46" y="322" type="curve" smooth="yes"/>
      <point x="1" y="163"/>
      <point x="54" y="-2"/>
      <point x="199" y="-9" type="curve" smooth="yes"/>
    </contour>
    <contour>
      <point x="416" y="156"/>
      <point x="347" y="-1"/>
      <point x="210" y="12" type="curve" smooth="yes"/>
      <point x="118" y="21"/>
      <point x="104" y="181"/>
      <point x="148" y="322" type="curve" smooth="yes"/>
      <point x="193" y="466"/>
      <point x="262" y="588"/>
      <point x="368" y="585" type="curve" smooth="yes"/>
      <point x="450" y="583"/>
      <point x="483" y="467"/>
      <point x="452" y="322" type="curve" smooth="yes"/>
    </contour>
  </outline>
</glyph>
<glyph name="Q" format="2">
  <advance width="553"/>
  <unicode hex="0051"/>
  <outline>
    <contour>
      <point x="537" y="322" type="curve" smooth="yes"/>
      <point x="565" y="472"/>
      <point x="493" y="604"/>
      <point x="357" y="610" type="curve" smooth="yes"/>
      <point x="203" y="617"/>
      <point x="80" y="485"/>
      <point x="30" y="322" type="curve"/>
      <point x="30" y="320" type="line"/>
      <point x="29" y="320"/>
      <point x="29" y="320"/>
      <point x="29" y="320" type="curve"/>
      <point x="29" y="319" type="line"/>
      <point x="-5" y="205"/>
      <point x="6" y="107"/>
      <point x="60" y="47" type="curve" smooth="yes"/>
      <point x="78" y="27"/>
      <point x="97" y="14"/>
      <point x="126" y="2" type="curve" smooth="yes"/>
      <point x="267" y="-54"/>
      <point x="217" y="-149"/>
      <point x="484" y="-132" type="curve"/>
      <point x="484" y="-101" type="line"/>
      <point x="416" y="-98"/>
      <point x="325" y="-86"/>
      <point x="257" y="-4" type="curve"/>
      <point x="402" y="22"/>
      <point x="504" y="148"/>
    </contour>
    <contour>
      <point x="132" y="322" type="curve" smooth="yes"/>
      <point x="177" y="466"/>
      <point x="246" y="588"/>
      <point x="352" y="585" type="curve" smooth="yes"/>
      <point x="434" y="583"/>
      <point x="467" y="467"/>
      <point x="436" y="322" type="curve" smooth="yes"/>
      <point x="400" y="156"/>
      <point x="331" y="-1"/>
      <point x="194" y="12" type="curve" smooth="yes"/>
      <point x="102" y="21"/>
      <point x="88" y="181"/>
    </contour>
  </outline>
</glyph>
<glyph name="R" format="2">
  <advance width="515"/>
  <unicode hex="0052"/>
  <outline>
    <contour>
      <point x="445" y="28" type="line"/>
      <point x="308" y="314" type="line"/>
      <point x="410" y="326"/>
      <point x="468" y="369"/>
      <point x="485" y="470" type="curve" smooth="yes"/>
      <point x="500" y="557"/>
      <point x="447" y="600"/>
      <point x="356" y="600" type="curve"/>
      <point x="225" y="600" type="line"/>
      <point x="72" y="600" type="line"/>
      <point x="72" y="572" type="line"/>
      <point x="122" y="572" type="line"/>
      <point x="141" y="550" type="line"/>
      <point x="79" y="266" type="line"/>
      <point x="20" y="0" type="line"/>
      <point x="96" y="0" type="line"/>
      <point x="158" y="266" type="line"/>
      <point x="164" y="292" type="line"/>
      <point x="193" y="314" type="line"/>
      <point x="233" y="314" type="line"/>
      <point x="360" y="50" type="line"/>
      <point x="331" y="28" type="line"/>
      <point x="296" y="28" type="line"/>
      <point x="296" y="0" type="line"/>
      <point x="495" y="0" type="line"/>
      <point x="495" y="28" type="line"/>
    </contour>
    <contour>
      <point x="180" y="367" type="line"/>
      <point x="219" y="550" type="line"/>
      <point x="248" y="572" type="line"/>
      <point x="323" y="572" type="line" smooth="yes"/>
      <point x="367" y="572"/>
      <point x="424" y="529"/>
      <point x="411" y="469" type="curve" smooth="yes"/>
      <point x="390" y="373"/>
      <point x="326" y="345"/>
      <point x="266" y="345" type="curve" smooth="yes"/>
      <point x="199" y="345" type="line"/>
    </contour>
  </outline>
</glyph>
<glyph name="S" format="2">
  <advance width="462"/>
  <unicode hex="0053"/>
  <outline>
    <contour>
      <point x="428" y="390" type="line"/>
      <point x="462" y="575" type="line"/>
      <point x="436" y="575" type="line"/>
      <point x="429" y="546" type="line"/>
      <point x="403" y="546" type="line"/>
      <point x="375" y="593"/>
      <point x="335" y="607"/>
      <point x="254" y="610" type="curve" smooth="yes"/>
      <point x="146" y="614"/>
      <point x="77" y="524"/>
      <point x="81" y="457" type="curve" smooth="yes"/>
      <point x="86" y="367"/>
      <point x="137" y="333"/>
      <point x="211" y="281" type="curve" smooth="yes"/>
      <point x="291" y="225"/>
      <point x="335" y="192"/>
      <point x="324" y="125" type="curve" smooth="yes"/>
      <point x="315" y="72"/>
      <point x="289" y="13"/>
      <point x="221" y="15" type="curve" smooth="yes"/>
      <point x="113" y="17"/>
      <point x="75" y="126"/>
      <point x="88" y="226" type="curve"/>
      <point x="57" y="226" type="line"/>
      <point x="20" y="31" type="line"/>
      <point x="47" y="31" type="line"/>
      <point x="52" y="51" type="line"/>
      <point x="75" y="50" type="line"/>
      <point x="94" y="32"/>
      <point x="156" y="-5"/>
      <point x="203" y="-9" type="curve" smooth="yes"/>
      <point x="314" y="-18"/>
      <point x="382" y="38"/>
      <point x="402" y="123" type="curve" smooth="yes"/>
      <point x="422" y="210"/>
      <point x="377" y="274"/>
      <point x="270" y="347" type="curve" smooth="yes"/>
      <point x="178" y="410"/>
      <point x="168" y="433"/>
      <point x="168" y="496" type="curve" smooth="yes"/>
      <point x="168" y="541"/>
      <point x="201" y="585"/>
      <point x="254" y="585" type="curve" smooth="yes"/>
      <point x="350" y="585"/>
      <point x="407" y="487"/>
      <point x="398" y="390" type="curve"/>
    </contour>
  </outline>
</glyph>
<glyph name="T" format="2">
  <advance width="594"/>
  <unicode hex="0054"/>
  <outline>
    <contour>
      <point x="634" y="600" type="line"/>
      <point x="40" y="600" type="line"/>
      <point x="86" y="497" type="line"/>
      <point x="105" y="497" type="line"/>
      <point x="105" y="545" type="line"/>
      <point x="121" y="563" type="line"/>
      <point x="278" y="563" type="line"/>
      <point x="297" y="541" type="line"/>
      <point x="185" y="28" type="line"/>
      <point x="121" y="28" type="line"/>
      <point x="121" y="0" type="line"/>
      <point x="339" y="0" type="line"/>
      <point x="339" y="28" type="line"/>
      <point x="291" y="28" type="line"/>
      <point x="272" y="50" type="line"/>
      <point x="379" y="541" type="line"/>
      <point x="398" y="563" type="line"/>
      <point x="553" y="563" type="line"/>
      <point x="569" y="545" type="line"/>
      <point x="569" y="497" type="line"/>
      <point x="588" y="497" type="line"/>
    </contour>
  </outline>
</glyph>
<glyph name="U" format="2">
  <advance width="581"/>
  <unicode hex="0055"/>
  <outline>
    <contour>
      <point x="447" y="600" type="line"/>
      <point x="447" y="572" type="line"/>
      <point x="497" y="572" type="line"/>
      <point x="516" y="550" type="line"/>
      <point x="446" y="229" type="line" smooth="yes"/>
      <point x="415" y="88"/>
      <point x="351" y="39"/>
      <point x="267" y="38" type="curve" smooth="yes"/>
      <point x="173" y="37"/>
      <point x="112" y="81"/>
      <point x="137" y="198" type="curve" smooth="yes"/>
      <point x="213" y="550" type="line"/>
      <point x="232" y="572" type="line"/>
      <point x="280" y="572" type="line"/>
      <point x="280" y="600" type="line"/>
      <point x="133" y="600" type="line"/>
      <point x="123" y="550" type="line"/>
      <point x="47" y="206" type="line" smooth="yes"/>
      <point x="11" y="45"/>
      <point x="114" y="-9"/>
      <point x="248" y="-10" type="curve" smooth="yes"/>
      <point x="404" y="-11"/>
      <point x="468" y="70"/>
      <point x="506" y="243" type="curve" smooth="yes"/>
      <point x="574" y="550" type="line"/>
      <point x="593" y="572" type="line"/>
      <point x="641" y="572" type="line"/>
      <point x="641" y="600" type="line"/>
    </contour>
  </outline>
</glyph>
<glyph name="V" format="2">
  <advance width="495"/>
  <unicode hex="0056"/>
  <outline>
    <contour>
      <point x="363" y="600" type="line"/>
      <point x="363" y="572" type="line"/>
      <point x="411" y="572" type="line"/>
      <point x="430" y="550" type="line"/>
      <point x="430" y="549" type="line"/>
      <point x="162" y="68" type="line"/>
      <point x="162" y="549" type="line"/>
      <point x="181" y="572" type="line"/>
      <point x="229" y="572" type="line"/>
      <point x="229" y="600" type="line"/>
      <point x="30" y="600" type="line"/>
      <point x="30" y="572" type="line"/>
      <point x="80" y="572" type="line"/>
      <point x="87" y="552" type="line"/>
      <point x="87" y="0" type="line"/>
      <point x="173" y="0" type="line"/>
      <point x="492" y="572" type="line"/>
      <point x="545" y="572" type="line"/>
      <point x="545" y="600" type="line"/>
    </contour>
  </outline>
</glyph>
<glyph name="W" format="2">
  <advance width="738"/>
  <unicode hex="0057"/>
  <outline>
    <contour>
      <point x="643" y="600" type="line"/>
      <point x="643" y="572" type="line"/>
      <point x="691" y="572" type="line"/>
      <point x="710" y="550" type="line"/>
      <point x="710" y="549" type="line"/>
      <point x="442" y="68" type="line"/>
      <point x="442" y="600" type="line"/>
      <point x="367" y="600" type="line"/>
      <point x="367" y="418" type="line"/>
      <point x="172" y="68" type="line"/>
      <point x="172" y="549" type="line"/>
      <point x="191" y="572" type="line"/>
      <point x="239" y="572" type="line"/>
      <point x="239" y="600" type="line"/>
      <point x="40" y="600" type="line"/>
      <point x="40" y="572" type="line"/>
      <point x="90" y="572" type="line"/>
      <point x="97" y="552" type="line"/>
      <point x="97" y="0" type="line"/>
      <point x="183" y="0" type="line"/>
      <point x="367" y="330" type="line"/>
      <point x="367" y="0" type="line"/>
      <point x="453" y="0" type="line"/>
      <point x="772" y="572" type="line"/>
      <point x="788" y="600" type="line"/>
    </contour>
  </outline>
</glyph>
<glyph name="X" format="2">
  <advance width="650"/>
  <unicode hex="0058"/>
  <outline>
    <contour>
      <point x="522" y="513" type="line"/>
      <point x="471" y="513" type="line"/>
      <point x="-2" y="0" type="line"/>
      <point x="49" y="0" type="line"/>
    </contour>
    <contour>
      <point x="202" y="558" type="line"/>
      <point x="340" y="50" type="line"/>
      <point x="327" y="28" type="line"/>
      <point x="261" y="28" type="line"/>
      <point x="261" y="0" type="line"/>
      <point x="501" y="0" type="line"/>
      <point x="501" y="28" type="line"/>
      <point x="444" y="28" type="line"/>
      <point x="425" y="50" type="line"/>
      <point x="275" y="600" type="line"/>
      <point x="128" y="600" type="line"/>
      <point x="128" y="572" type="line"/>
      <point x="188" y="572" type="line"/>
    </contour>
    <contour>
      <point x="471" y="513" type="line"/>
      <point x="522" y="513" type="line"/>
      <point x="577" y="572" type="line"/>
      <point x="630" y="572" type="line"/>
      <point x="630" y="600" type="line"/>
      <point x="438" y="600" type="line"/>
      <point x="438" y="572" type="line"/>
      <point x="486" y="572" type="line"/>
      <point x="505" y="550" type="line"/>
      <point x="505" y="549" type="line"/>
    </contour>
    <contour>
      <point x="129" y="87" type="line"/>
      <point x="78" y="87" type="line"/>
      <point x="23" y="28" type="line"/>
      <point x="-30" y="28" type="line"/>
      <point x="-30" y="0" type="line"/>
      <point x="162" y="0" type="line"/>
      <point x="162" y="28" type="line"/>
      <point x="114" y="28" type="line"/>
      <point x="95" y="50" type="line"/>
      <point x="95" y="51" type="line"/>
    </contour>
  </outline>
</glyph>
<glyph name="Y" format="2">
  <advance width="480"/>
  <unicode hex="0059"/>
  <outline>
    <contour>
      <point x="350" y="600" type="line"/>
      <point x="350" y="572" type="line"/>
      <point x="398" y="572" type="line"/>
      <point x="416" y="548" type="line"/>
      <point x="285" y="322" type="line"/>
      <point x="115" y="600" type="line"/>
      <point x="30" y="599" type="line"/>
      <point x="227" y="270" type="line"/>
      <point x="174" y="28" type="line"/>
      <point x="114" y="28" type="line"/>
      <point x="114" y="0" type="line"/>
      <point x="323" y="0" type="line"/>
      <point x="323" y="28" type="line"/>
      <point x="275" y="28" type="line"/>
      <point x="256" y="50" type="line"/>
      <point x="303" y="270" type="line"/>
      <point x="480" y="572" type="line"/>
      <point x="480" y="600" type="line"/>
    </contour>
  </outline>
</glyph>
<glyph name="Z" format="2">
  <advance width="545"/>
  <unicode hex="005A"/>
  <outline>
    <contour>
      <point x="317" y="38" type="line"/>
      <point x="317" y="0" type="line"/>
      <point x="415" y="0" type="line"/>
      <point x="449" y="132" type="line"/>
      <point x="421" y="132" type="line"/>
      <point x="387" y="57" type="line"/>
      <point x="365" y="38" type="line"/>
    </contour>
    <contour>
      <point x="272" y="563" type="line"/>
      <point x="272" y="600" type="line"/>
      <point x="143" y="600" type="line"/>
      <point x="108" y="454" type="line"/>
      <point x="136" y="454" type="line"/>
      <point x="171" y="544" type="line"/>
      <point x="193" y="563" type="line"/>
    </contour>
    <contour>
      <point x="320" y="0" type="line"/>
      <point x="327" y="38" type="line"/>
      <point x="133" y="38" type="line"/>
      <point x="133" y="49" type="line"/>
      <point x="525" y="569" type="line"/>
      <point x="525" y="600" type="line"/>
      <point x="267" y="600" type="line"/>
      <point x="267" y="563" type="line"/>
      <point x="412" y="563" type="line"/>
      <point x="412" y="551" type="line"/>
      <point x="20" y="31" type="line"/>
      <point x="20" y="0" type="line"/>
    </contour>
  </outline>
</glyph>
<glyph name="bracketleft" format="2">
  <advance width="490"/>
  <unicode hex="005B"/>
  <outline>
    <contour>
      <point x="216" y="669" type="line"/>
      <point x="50" y="-130" type="line"/>
      <point x="254" y="-130" type="line"/>
      <point x="254" y="-90" type="line"/>
      <point x="137" y="-90" type="line"/>
      <point x="116" y="-69" type="line"/>
      <point x="264" y="607" type="line"/>
      <point x="285" y="629" type="line"/>
      <point x="420" y="629" type="line"/>
      <point x="420" y="669" type="line"/>
    </contour>
  </outline>
</glyph>
<glyph name="b" format="2">
  <advance width="503"/>
  <unicode hex="0062"/>
  <outline>
    <contour>
      <point x="324" y="450" type="curve" smooth="yes"/>
      <point x="271" y="450"/>
      <point x="236" y="416"/>
      <point x="189" y="358" type="curve"/>
      <point x="238" y="600" type="line"/>
      <point x="86" y="600" type="line"/>
      <point x="86" y="572" type="line"/>
      <point x="136" y="572" type="line"/>
      <point x="155" y="547" type="line"/>
      <point x="84" y="192" type="line"/>
      <point x="45" y="0" type="line"/>
      <point x="67" y="0" type="line"/>
      <point x="99" y="53" type="line"/>
      <point x="110" y="24"/>
      <point x="150" y="-10"/>
      <point x="214" y="-10" type="curve" smooth="yes"/>
      <point x="343" y="-10"/>
      <point x="435" y="76"/>
      <point x="464" y="193" type="curve" smooth="yes"/>
      <point x="495" y="318"/>
      <point x="449" y="450"/>
    </contour>
    <contour>
      <point x="379" y="203" type="curve" smooth="yes"/>
      <point x="352" y="86"/>
      <point x="286" y="16"/>
      <point x="204" y="16" type="curve" smooth="yes"/>
      <point x="156" y="16"/>
      <point x="126" y="55"/>
      <point x="137" y="109" type="curve" smooth="yes"/>
      <point x="154" y="192" type="line"/>
      <point x="178" y="305" type="line"/>
      <point x="229" y="373"/>
      <point x="257" y="414"/>
      <point x="317" y="414" type="curve" smooth="yes"/>
      <point x="385" y="414"/>
      <point x="406" y="321"/>
    </contour>
  </outline>
</glyph>
<glyph name="c" format="2">
  <advance width="403"/>
  <unicode hex="0063"/>
  <outline>
    <contour>
      <point x="397" y="386" type="curve" smooth="yes"/>
      <point x="383" y="419"/>
      <point x="319" y="448"/>
      <point x="268" y="450" type="curve" smooth="yes"/>
      <point x="149" y="455"/>
      <point x="67" y="372"/>
      <point x="38" y="247" type="curve" smooth="yes"/>
      <point x="9" y="122"/>
      <point x="63" y="-10"/>
      <point x="188" y="-10" type="curve" smooth="yes"/>
      <point x="256" y="-10"/>
      <point x="316" y="18"/>
      <point x="370" y="129" type="curve"/>
      <point x="330" y="129" type="line"/>
      <point x="299" y="72"/>
      <point x="258" y="16"/>
      <point x="195" y="16" type="curve" smooth="yes"/>
      <point x="127" y="16"/>
      <point x="96" y="119"/>
      <point x="123" y="237" type="curve" smooth="yes"/>
      <point x="150" y="352"/>
      <point x="174" y="436"/>
      <point x="265" y="430" type="curve" smooth="yes"/>
      <point x="293" y="428"/>
      <point x="319" y="401"/>
      <point x="316" y="370" type="curve"/>
      <point x="310" y="351"/>
      <point x="313" y="339"/>
      <point x="318" y="330" type="curve" smooth="yes"/>
      <point x="329" y="310"/>
      <point x="352" y="299"/>
      <point x="373" y="308" type="curve" smooth="yes"/>
      <point x="399" y="319"/>
      <point x="411" y="353"/>
    </contour>
  </outline>
</glyph>
<glyph name="d" format="2">
  <advance width="507"/>
  <unicode hex="0064"/>
  <outline>
    <contour>
      <point x="388" y="45" type="line"/>
      <point x="380" y="53" type="line"/>
      <point x="420" y="248" type="line"/>
      <point x="459" y="439" type="line"/>
      <point x="492" y="600" type="line"/>
      <point x="344" y="600" type="line"/>
      <point x="344" y="572" type="line"/>
      <point x="394" y="572" type="line"/>
      <point x="413" y="547" type="line"/>
      <point x="386" y="415" type="line"/>
      <point x="366" y="434"/>
      <point x="334" y="450"/>
      <point x="290" y="450" type="curve" smooth="yes"/>
      <point x="161" y="450"/>
      <point x="69" y="364"/>
      <point x="40" y="247" type="curve" smooth="yes"/>
      <point x="9" y="122"/>
      <point x="45" y="-10"/>
      <point x="170" y="-10" type="curve" smooth="yes"/>
      <point x="223" y="-10"/>
      <point x="268" y="24"/>
      <point x="315" y="82" type="curve"/>
      <point x="305" y="29"/>
      <point x="310" y="-10"/>
      <point x="354" y="-10" type="curve" smooth="yes"/>
      <point x="372" y="-10"/>
      <point x="386" y="4"/>
      <point x="418" y="39" type="curve" smooth="yes"/>
      <point x="489" y="117" type="line"/>
      <point x="456" y="117" type="line"/>
    </contour>
    <contour>
      <point x="350" y="248" type="line"/>
      <point x="326" y="135" type="line"/>
      <point x="275" y="67"/>
      <point x="237" y="26"/>
      <point x="177" y="26" type="curve" smooth="yes"/>
      <point x="109" y="26"/>
      <point x="98" y="119"/>
      <point x="125" y="237" type="curve" smooth="yes"/>
      <point x="152" y="354"/>
      <point x="218" y="424"/>
      <point x="300" y="424" type="curve" smooth="yes"/>
      <point x="348" y="424"/>
      <point x="378" y="385"/>
      <point x="367" y="331" type="curve" smooth="yes"/>
    </contour>
  </outline>
</glyph>
<glyph name="e" format="2">
  <advance width="476"/>
  <unicode hex="0065"/>
  <outline>
    <contour>
      <point x="129" y="260" type="line"/>
      <point x="476" y="260" type="line"/>
      <point x="476" y="291" type="line"/>
      <point x="439" y="291" type="line"/>
      <point x="430" y="379"/>
      <point x="375" y="451"/>
      <point x="282" y="451" type="curve" smooth="yes"/>
      <point x="265" y="451"/>
      <point x="248" y="449"/>
      <point x="231" y="446" type="curve" smooth="yes"/>
      <point x="138" y="427"/>
      <point x="65" y="351"/>
      <point x="38" y="247" type="curve" smooth="yes"/>
      <point x="7" y="122"/>
      <point x="63" y="-10"/>
      <point x="188" y="-10" type="curve" smooth="yes"/>
      <point x="256" y="-10"/>
      <point x="316" y="18"/>
      <point x="370" y="129" type="curve"/>
      <point x="330" y="129" type="line"/>
      <point x="299" y="72"/>
      <point x="258" y="16"/>
      <point x="195" y="16" type="curve" smooth="yes"/>
      <point x="127" y="16"/>
      <point x="96" y="119"/>
      <point x="123" y="237" type="curve" smooth="yes"/>
    </contour>
    <contour>
      <point x="235" y="422" type="curve" smooth="yes"/>
      <point x="247" y="427"/>
      <point x="260" y="429"/>
      <point x="275" y="429" type="curve" smooth="yes"/>
      <point x="326" y="429"/>
      <point x="356" y="370"/>
      <point x="357" y="291" type="curve"/>
      <point x="138" y="291" type="line"/>
      <point x="159" y="356"/>
      <point x="189" y="404"/>
    </contour>
  </outline>
</glyph>
<glyph name="f" format="2">
  <advance width="218"/>
  <unicode hex="0066"/>
  <outline>
    <contour>
      <point x="15" y="0" type="line"/>
      <point x="83" y="0" type="line"/>
      <point x="160" y="393" type="line"/>
      <point x="162" y="393" type="line"/>
      <point x="178" y="407" type="line"/>
      <point x="249" y="407" type="line"/>
      <point x="249" y="440" type="line"/>
      <point x="170" y="440" type="line"/>
      <point x="187" y="541"/>
      <point x="206" y="587"/>
      <point x="250" y="579" type="curve" smooth="yes"/>
      <point x="267" y="576"/>
      <point x="276" y="564"/>
      <point x="279" y="542" type="curve"/>
      <point x="278" y="521"/>
      <point x="283" y="511"/>
      <point x="290" y="503" type="curve" smooth="yes"/>
      <point x="305" y="486"/>
      <point x="330" y="481"/>
      <point x="350" y="495" type="curve" smooth="yes"/>
      <point x="372" y="510"/>
      <point x="375" y="547"/>
      <point x="354" y="576" type="curve" smooth="yes"/>
      <point x="336" y="600"/>
      <point x="302" y="608"/>
      <point x="253" y="610" type="curve" smooth="yes"/>
      <point x="173" y="614"/>
      <point x="119" y="537"/>
      <point x="100" y="440" type="curve"/>
      <point x="30" y="440" type="line"/>
      <point x="30" y="407" type="line"/>
      <point x="75" y="407" type="line"/>
      <point x="91" y="394" type="line"/>
    </contour>
  </outline>
</glyph>
<glyph name="g" format="2">
  <advance width="469"/>
  <unicode hex="0067"/>
  <outline>
    <contour>
      <point x="459" y="440" type="line"/>
      <point x="437" y="440" type="line"/>
      <point x="405" y="387" type="line"/>
      <point x="394" y="416"/>
      <point x="354" y="450"/>
      <point x="290" y="450" type="curve" smooth="yes"/>
      <point x="161" y="450"/>
      <point x="69" y="364"/>
      <point x="40" y="247" type="curve" smooth="yes"/>
      <point x="9" y="122"/>
      <point x="45" y="-10"/>
      <point x="170" y="-10" type="curve" smooth="yes"/>
      <point x="223" y="-10"/>
      <point x="268" y="24"/>
      <point x="315" y="82" type="curve"/>
      <point x="312" y="61" type="line"/>
      <point x="289" y="-54" type="line"/>
      <point x="271" y="-127"/>
      <point x="252" y="-161"/>
      <point x="216" y="-155" type="curve" smooth="yes"/>
      <point x="199" y="-152"/>
      <point x="190" y="-140"/>
      <point x="187" y="-118" type="curve"/>
      <point x="188" y="-97"/>
      <point x="183" y="-87"/>
      <point x="176" y="-79" type="curve" smooth="yes"/>
      <point x="161" y="-62"/>
      <point x="136" y="-57"/>
      <point x="116" y="-71" type="curve" smooth="yes"/>
      <point x="94" y="-86"/>
      <point x="91" y="-123"/>
      <point x="112" y="-152" type="curve" smooth="yes"/>
      <point x="130" y="-176"/>
      <point x="164" y="-184"/>
      <point x="213" y="-186" type="curve" smooth="yes"/>
      <point x="276" y="-189"/>
      <point x="339" y="-138"/>
      <point x="358" y="-54" type="curve"/>
    </contour>
    <contour>
      <point x="177" y="26" type="curve" smooth="yes"/>
      <point x="109" y="26"/>
      <point x="98" y="119"/>
      <point x="125" y="237" type="curve" smooth="yes"/>
      <point x="152" y="354"/>
      <point x="218" y="424"/>
      <point x="300" y="424" type="curve" smooth="yes"/>
      <point x="348" y="424"/>
      <point x="378" y="385"/>
      <point x="367" y="331" type="curve" smooth="yes"/>
      <point x="326" y="135" type="line"/>
      <point x="275" y="67"/>
      <point x="237" y="26"/>
    </contour>
  </outline>
</glyph>
<glyph name="h" format="2">
  <advance width="469"/>
  <unicode hex="0068"/>
  <outline>
    <contour>
      <point x="76" y="309" type="line"/>
      <point x="158" y="359" type="line"/>
      <point x="205" y="600" type="line"/>
      <point x="53" y="600" type="line"/>
      <point x="53" y="572" type="line"/>
      <point x="103" y="572" type="line"/>
      <point x="122" y="547" type="line"/>
    </contour>
    <contour>
      <point x="161" y="408" type="curve"/>
      <point x="80" y="329" type="line"/>
      <point x="15" y="0" type="line"/>
      <point x="84" y="0" type="line"/>
      <point x="148" y="315" type="line"/>
      <point x="172" y="362"/>
      <point x="212" y="408"/>
      <point x="248" y="411" type="curve"/>
      <point x="303" y="411"/>
      <point x="330" y="355"/>
      <point x="314" y="264" type="curve"/>
      <point x="279" y="90" type="line"/>
      <point x="266" y="33"/>
      <point x="270" y="-10"/>
      <point x="316" y="-10" type="curve" smooth="yes"/>
      <point x="334" y="-10"/>
      <point x="347" y="5"/>
      <point x="380" y="39" type="curve" smooth="yes"/>
      <point x="454" y="117" type="line"/>
      <point x="418" y="117" type="line"/>
      <point x="350" y="45" type="line"/>
      <point x="342" y="53" type="line"/>
      <point x="393" y="293" type="line" smooth="yes"/>
      <point x="409" y="370"/>
      <point x="374" y="450"/>
      <point x="274" y="450" type="curve" smooth="yes"/>
      <point x="212" y="450"/>
      <point x="178" y="407"/>
      <point x="160" y="378" type="curve"/>
      <point x="161" y="389"/>
      <point x="162" y="399"/>
    </contour>
  </outline>
</glyph>
<glyph name="j" format="2">
  <advance width="223"/>
  <unicode hex="006A"/>
  <outline>
    <contour>
      <point x="206" y="440" type="line"/>
      <point x="135" y="439" type="line"/>
      <point x="28" y="-106" type="line"/>
      <point x="17" y="-109" type="line"/>
      <point x="-19" y="-16" type="line"/>
      <point x="-50" y="-4" type="line"/>
      <point x="-15" y="-103" type="line" smooth="yes"/>
      <point x="1" y="-149"/>
      <point x="8" y="-167"/>
      <point x="26" y="-174" type="curve" smooth="yes"/>
      <point x="69" y="-191"/>
      <point x="89" y="-153"/>
      <point x="98" y="-96" type="curve"/>
    </contour>
    <component base="dotaccentcomb" xOffset="81"/>
  </outline>
</glyph>
<glyph name="k" format="2">
  <advance width="433"/>
  <unicode hex="006B"/>
  <outline>
    <contour>
      <point x="384" y="123" type="line"/>
      <point x="316" y="51" type="line"/>
      <point x="308" y="59" type="line"/>
      <point x="258" y="309" type="line"/>
      <point x="367" y="419" type="line"/>
      <point x="403" y="419" type="line"/>
      <point x="403" y="440" type="line"/>
      <point x="243" y="440" type="line"/>
      <point x="243" y="419" type="line"/>
      <point x="280" y="419" type="line"/>
      <point x="295" y="402" type="line"/>
      <point x="135" y="243" type="line"/>
      <point x="183" y="476" type="line"/>
      <point x="185" y="487" type="line"/>
      <point x="191" y="511" type="line" smooth="yes"/>
      <point x="204" y="568"/>
      <point x="200" y="611"/>
      <point x="154" y="611" type="curve" smooth="yes"/>
      <point x="136" y="611"/>
      <point x="122" y="597"/>
      <point x="90" y="562" type="curve" smooth="yes"/>
      <point x="18" y="484" type="line"/>
      <point x="52" y="484" type="line"/>
      <point x="120" y="556" type="line"/>
      <point x="128" y="548" type="line"/>
      <point x="116" y="490" type="line"/>
      <point x="15" y="0" type="line"/>
      <point x="85" y="0" type="line"/>
      <point x="121" y="177" type="line"/>
      <point x="199" y="252" type="line"/>
      <point x="235" y="80" type="line" smooth="yes"/>
      <point x="247" y="20"/>
      <point x="244" y="-3"/>
      <point x="282" y="-3" type="curve" smooth="yes"/>
      <point x="300" y="-3"/>
      <point x="314" y="10"/>
      <point x="346" y="45" type="curve" smooth="yes"/>
      <point x="418" y="123" type="line"/>
    </contour>
  </outline>
</glyph>
<glyph name="l" format="2">
  <advance width="218"/>
  <unicode hex="006C"/>
  <outline>
    <contour>
      <point x="169" y="116" type="line"/>
      <point x="101" y="44" type="line"/>
      <point x="93" y="52" type="line"/>
      <point x="104" y="105" type="line"/>
      <point x="108" y="121" type="line"/>
      <point x="180" y="476" type="line"/>
      <point x="182" y="487" type="line"/>
      <point x="188" y="511" type="line" smooth="yes"/>
      <point x="201" y="568"/>
      <point x="197" y="611"/>
      <point x="151" y="611" type="curve" smooth="yes"/>
      <point x="133" y="611"/>
      <point x="119" y="597"/>
      <point x="87" y="562" type="curve" smooth="yes"/>
      <point x="15" y="484" type="line"/>
      <point x="49" y="484" type="line"/>
      <point x="117" y="556" type="line"/>
      <point x="125" y="548" type="line"/>
      <point x="113" y="490" type="line"/>
      <point x="38" y="124" type="line"/>
      <point x="36" y="115" type="line"/>
      <point x="30" y="89" type="line" smooth="yes"/>
      <point x="17" y="32"/>
      <point x="21" y="-10"/>
      <point x="67" y="-10" type="curve" smooth="yes"/>
      <point x="85" y="-10"/>
      <point x="99" y="3"/>
      <point x="131" y="38" type="curve" smooth="yes"/>
      <point x="203" y="116" type="line"/>
    </contour>
  </outline>
</glyph>
<glyph name="m" format="2">
  <advance width="745"/>
  <unicode hex="006D"/>
  <outline>
    <contour>
      <point x="694" y="117" type="line"/>
      <point x="626" y="45" type="line"/>
      <point x="618" y="53" type="line"/>
      <point x="669" y="293" type="line" smooth="yes"/>
      <point x="685" y="370"/>
      <point x="650" y="450"/>
      <point x="550" y="450" type="curve" smooth="yes"/>
      <point x="492" y="450"/>
      <point x="458" y="412"/>
      <point x="439" y="383" type="curve" smooth="yes"/>
      <point x="426" y="362" type="line"/>
      <point x="415" y="412"/>
      <point x="376" y="450"/>
      <point x="307" y="450" type="curve" smooth="yes"/>
      <point x="245" y="450"/>
      <point x="211" y="407"/>
      <point x="193" y="378" type="curve"/>
      <point x="198" y="421"/>
      <point x="189" y="450"/>
      <point x="151" y="450" type="curve" smooth="yes"/>
      <point x="133" y="450"/>
      <point x="119" y="436"/>
      <point x="87" y="401" type="curve" smooth="yes"/>
      <point x="15" y="323" type="line"/>
      <point x="49" y="323" type="line"/>
      <point x="117" y="395" type="line"/>
      <point x="125" y="387" type="line"/>
      <point x="48" y="0" type="line"/>
      <point x="117" y="0" type="line"/>
      <point x="184" y="333" type="line"/>
      <point x="208" y="380"/>
      <point x="245" y="408"/>
      <point x="281" y="411" type="curve"/>
      <point x="336" y="411"/>
      <point x="364" y="354"/>
      <point x="347" y="264" type="curve" smooth="yes"/>
      <point x="296" y="0" type="line"/>
      <point x="367" y="0" type="line"/>
      <point x="423" y="279" type="line" smooth="yes"/>
      <point x="429" y="311"/>
      <point x="453" y="405"/>
      <point x="524" y="411" type="curve"/>
      <point x="579" y="411"/>
      <point x="606" y="355"/>
      <point x="590" y="264" type="curve" smooth="yes"/>
      <point x="555" y="90" type="line" smooth="yes"/>
      <point x="542" y="33"/>
      <point x="546" y="-10"/>
      <point x="592" y="-10" type="curve" smooth="yes"/>
      <point x="610" y="-10"/>
      <point x="623" y="5"/>
      <point x="656" y="39" type="curve" smooth="yes"/>
      <point x="730" y="117" type="line"/>
    </contour>
  </outline>
</glyph>
<glyph name="n" format="2">
  <advance width="502"/>
  <unicode hex="006E"/>
  <outline>
    <contour>
      <point x="451" y="117" type="line"/>
      <point x="383" y="45" type="line"/>
      <point x="375" y="53" type="line"/>
      <point x="426" y="293" type="line" smooth="yes"/>
      <point x="442" y="370"/>
      <point x="407" y="450"/>
      <point x="307" y="450" type="curve" smooth="yes"/>
      <point x="245" y="450"/>
      <point x="211" y="407"/>
      <point x="193" y="378" type="curve"/>
      <point x="198" y="421"/>
      <point x="189" y="450"/>
      <point x="151" y="450" type="curve" smooth="yes"/>
      <point x="133" y="450"/>
      <point x="119" y="436"/>
      <point x="87" y="401" type="curve" smooth="yes"/>
      <point x="15" y="323" type="line"/>
      <point x="49" y="323" type="line"/>
      <point x="117" y="395" type="line"/>
      <point x="125" y="387" type="line"/>
      <point x="48" y="0" type="line"/>
      <point x="117" y="0" type="line"/>
      <point x="181" y="315" type="line"/>
      <point x="205" y="362"/>
      <point x="245" y="408"/>
      <point x="281" y="411" type="curve"/>
      <point x="336" y="411"/>
      <point x="363" y="355"/>
      <point x="347" y="264" type="curve"/>
      <point x="312" y="90" type="line"/>
      <point x="299" y="33"/>
      <point x="303" y="-10"/>
      <point x="349" y="-10" type="curve" smooth="yes"/>
      <point x="367" y="-10"/>
      <point x="380" y="5"/>
      <point x="413" y="39" type="curve" smooth="yes"/>
      <point x="487" y="117" type="line"/>
    </contour>
  </outline>
</glyph>
<glyph name="o" format="2">
  <advance width="471"/>
  <unicode hex="006F"/>
  <outline>
    <contour>
      <point x="282" y="451" type="curve" smooth="yes"/>
      <point x="231" y="451"/>
      <point x="183" y="435"/>
      <point x="143" y="406" type="curve" smooth="yes"/>
      <point x="93" y="370"/>
      <point x="56" y="315"/>
      <point x="38" y="247" type="curve" smooth="yes"/>
      <point x="7" y="122"/>
      <point x="63" y="-10"/>
      <point x="188" y="-10" type="curve" smooth="yes"/>
      <point x="304" y="-10"/>
      <point x="400" y="72"/>
      <point x="432" y="194" type="curve" smooth="yes"/>
      <point x="465" y="318"/>
      <point x="407" y="451"/>
    </contour>
    <contour>
      <point x="347" y="204" type="curve" smooth="yes"/>
      <point x="322" y="97"/>
      <point x="283" y="12"/>
      <point x="195" y="12" type="curve" smooth="yes"/>
      <point x="127" y="12"/>
      <point x="96" y="119"/>
      <point x="123" y="237" type="curve" smooth="yes"/>
      <point x="135" y="287"/>
      <point x="149" y="332"/>
      <point x="171" y="366" type="curve" smooth="yes"/>
      <point x="195" y="405"/>
      <point x="228" y="429"/>
      <point x="275" y="429" type="curve" smooth="yes"/>
      <point x="351" y="429"/>
      <point x="372" y="302"/>
    </contour>
  </outline>
</glyph>
<glyph name="r" format="2">
  <advance width="363"/>
  <unicode hex="0072"/>
  <outline>
    <contour>
      <point x="175" y="294" type="curve"/>
      <point x="166" y="294" type="line"/>
      <point x="183" y="378" type="line"/>
      <point x="188" y="421"/>
      <point x="179" y="450"/>
      <point x="151" y="450" type="curve" smooth="yes"/>
      <point x="133" y="450"/>
      <point x="119" y="436"/>
      <point x="87" y="401" type="curve" smooth="yes"/>
      <point x="15" y="323" type="line"/>
      <point x="49" y="323" type="line"/>
      <point x="117" y="395" type="line"/>
      <point x="125" y="387" type="line"/>
      <point x="48" y="0" type="line"/>
      <point x="117" y="0" type="line"/>
      <point x="157" y="197" type="line"/>
      <point x="185" y="282"/>
      <point x="254" y="386"/>
      <point x="271" y="386" type="curve" smooth="yes"/>
      <point x="296" y="386"/>
      <point x="309" y="355"/>
      <point x="341" y="355" type="curve" smooth="yes"/>
      <point x="364" y="355"/>
      <point x="383" y="374"/>
      <point x="383" y="397" type="curve" smooth="yes"/>
      <point x="383" y="425"/>
      <point x="357" y="450"/>
      <point x="322" y="450" type="curve" smooth="yes"/>
      <point x="273" y="450"/>
      <point x="237" y="409"/>
      <point x="210" y="360" type="curve" smooth="yes"/>
      <point x="201" y="344"/>
      <point x="186" y="312"/>
    </contour>
  </outline>
</glyph>
<glyph name="s" format="2">
  <advance width="347"/>
  <unicode hex="0073"/>
  <outline>
    <contour>
      <point x="309" y="383" type="curve" smooth="yes"/>
      <point x="292" y="427"/>
      <point x="238" y="448"/>
      <point x="182" y="450" type="curve" smooth="yes"/>
      <point x="107" y="453"/>
      <point x="55" y="389"/>
      <point x="61" y="331" type="curve" smooth="yes"/>
      <point x="68" y="272"/>
      <point x="83" y="271"/>
      <point x="153" y="208" type="curve" smooth="yes"/>
      <point x="201" y="164"/>
      <point x="233" y="135"/>
      <point x="226" y="85" type="curve" smooth="yes"/>
      <point x="220" y="46"/>
      <point x="203" y="21"/>
      <point x="159" y="22" type="curve" smooth="yes"/>
      <point x="89" y="24"/>
      <point x="57" y="93"/>
      <point x="58" y="167" type="curve"/>
      <point x="31" y="168" type="line"/>
      <point x="20" y="25" type="line"/>
      <point x="44" y="23" type="line"/>
      <point x="45" y="38" type="line"/>
      <point x="61" y="37" type="line"/>
      <point x="101" y="0"/>
      <point x="138" y="-7"/>
      <point x="155" y="-7" type="curve" smooth="yes"/>
      <point x="242" y="-7"/>
      <point x="305" y="59"/>
      <point x="296" y="130" type="curve" smooth="yes"/>
      <point x="289" y="189"/>
      <point x="269" y="210"/>
      <point x="206" y="264" type="curve" smooth="yes"/>
      <point x="130" y="328"/>
      <point x="117" y="339"/>
      <point x="117" y="367" type="curve" smooth="yes"/>
      <point x="117" y="402"/>
      <point x="157" y="431"/>
      <point x="187" y="431" type="curve" smooth="yes"/>
      <point x="231" y="431"/>
      <point x="250" y="397"/>
      <point x="238" y="369" type="curve" smooth="yes"/>
      <point x="231" y="354"/>
      <point x="235" y="340"/>
      <point x="239" y="330" type="curve" smooth="yes"/>
      <point x="247" y="308"/>
      <point x="274" y="299"/>
      <point x="293" y="307" type="curve" smooth="yes"/>
      <point x="318" y="317"/>
      <point x="323" y="351"/>
    </contour>
  </outline>
</glyph>
<glyph name="t" format="2">
  <advance width="262"/>
  <unicode hex="0074"/>
  <outline>
    <contour>
      <point x="97" y="407" type="line"/>
      <point x="169" y="407" type="line"/>
      <point x="247" y="407" type="line"/>
      <point x="247" y="439" type="line"/>
      <point x="173" y="439" type="line"/>
      <point x="188" y="514" type="line"/>
      <point x="35" y="407" type="line"/>
    </contour>
    <contour>
      <point x="170" y="422" type="line"/>
      <point x="100" y="422" type="line"/>
      <point x="39" y="124" type="line"/>
      <point x="37" y="115" type="line"/>
      <point x="31" y="89" type="line" smooth="yes"/>
      <point x="18" y="32"/>
      <point x="22" y="-10"/>
      <point x="68" y="-10" type="curve" smooth="yes"/>
      <point x="86" y="-10"/>
      <point x="100" y="3"/>
      <point x="132" y="38" type="curve" smooth="yes"/>
      <point x="204" y="116" type="line"/>
      <point x="170" y="116" type="line"/>
      <point x="102" y="44" type="line"/>
      <point x="94" y="52" type="line"/>
      <point x="105" y="105" type="line"/>
      <point x="109" y="121" type="line"/>
    </contour>
  </outline>
</glyph>
<glyph name="v" format="2">
  <advance width="442"/>
  <unicode hex="0076"/>
  <outline>
    <contour>
      <point x="401" y="445" type="curve" smooth="yes"/>
      <point x="373" y="469"/>
      <point x="329" y="472"/>
      <point x="310" y="452" type="curve" smooth="yes"/>
      <point x="294" y="435"/>
      <point x="296" y="411"/>
      <point x="310" y="393" type="curve" smooth="yes"/>
      <point x="318" y="383"/>
      <point x="328" y="374"/>
      <point x="348" y="374" type="curve"/>
      <point x="369" y="369"/>
      <point x="383" y="359"/>
      <point x="383" y="340" type="curve" smooth="yes"/>
      <point x="383" y="258"/>
      <point x="299" y="31"/>
      <point x="217" y="31" type="curve" smooth="yes"/>
      <point x="163" y="31"/>
      <point x="140" y="90"/>
      <point x="155" y="176" type="curve" smooth="yes"/>
      <point x="190" y="350" type="line" smooth="yes"/>
      <point x="203" y="407"/>
      <point x="199" y="450"/>
      <point x="153" y="450" type="curve" smooth="yes"/>
      <point x="135" y="450"/>
      <point x="122" y="435"/>
      <point x="89" y="401" type="curve" smooth="yes"/>
      <point x="15" y="323" type="line"/>
      <point x="51" y="323" type="line"/>
      <point x="119" y="395" type="line"/>
      <point x="127" y="387" type="line"/>
      <point x="76" y="147" type="line" smooth="yes"/>
      <point x="60" y="70"/>
      <point x="95" y="-10"/>
      <point x="195" y="-10" type="curve" smooth="yes"/>
      <point x="326" y="-10"/>
      <point x="417" y="188"/>
      <point x="431" y="343" type="curve" smooth="yes"/>
      <point x="436" y="393"/>
      <point x="424" y="425"/>
    </contour>
  </outline>
</glyph>
<glyph name="w" format="2">
  <advance width="682"/>
  <unicode hex="0077"/>
  <outline>
    <contour>
      <point x="272" y="18" type="curve"/>
      <point x="270" y="52" type="line"/>
      <point x="257" y="39"/>
      <point x="241" y="31"/>
      <point x="221" y="29" type="curve"/>
      <point x="166" y="29"/>
      <point x="139" y="85"/>
      <point x="155" y="176" type="curve" smooth="yes"/>
      <point x="190" y="350" type="line" smooth="yes"/>
      <point x="203" y="407"/>
      <point x="199" y="450"/>
      <point x="153" y="450" type="curve" smooth="yes"/>
      <point x="135" y="450"/>
      <point x="122" y="435"/>
      <point x="89" y="401" type="curve" smooth="yes"/>
      <point x="15" y="323" type="line"/>
      <point x="51" y="323" type="line"/>
      <point x="119" y="395" type="line"/>
      <point x="127" y="387" type="line"/>
      <point x="76" y="147" type="line" smooth="yes"/>
      <point x="60" y="70"/>
      <point x="95" y="-10"/>
      <point x="195" y="-10" type="curve" smooth="yes"/>
      <point x="228" y="-10"/>
      <point x="253" y="2"/>
    </contour>
    <contour>
      <point x="270" y="52" type="curve"/>
      <point x="272" y="18" type="line"/>
      <point x="287" y="30"/>
      <point x="298" y="45"/>
      <point x="306" y="57" type="curve" smooth="yes"/>
      <point x="319" y="78" type="line"/>
      <point x="330" y="28"/>
      <point x="369" y="-6"/>
      <point x="438" y="-10" type="curve" smooth="yes"/>
      <point x="568" y="-17"/>
      <point x="659" y="211"/>
      <point x="671" y="343" type="curve" smooth="yes"/>
      <point x="676" y="393"/>
      <point x="664" y="425"/>
      <point x="641" y="445" type="curve" smooth="yes"/>
      <point x="613" y="469"/>
      <point x="569" y="472"/>
      <point x="550" y="452" type="curve" smooth="yes"/>
      <point x="534" y="435"/>
      <point x="536" y="411"/>
      <point x="550" y="393" type="curve" smooth="yes"/>
      <point x="558" y="383"/>
      <point x="568" y="374"/>
      <point x="588" y="374" type="curve"/>
      <point x="609" y="369"/>
      <point x="623" y="359"/>
      <point x="623" y="340" type="curve" smooth="yes"/>
      <point x="623" y="254"/>
      <point x="550" y="39"/>
      <point x="444" y="29" type="curve" smooth="yes"/>
      <point x="389" y="24"/>
      <point x="381" y="86"/>
      <point x="398" y="176" type="curve" smooth="yes"/>
      <point x="449" y="440" type="line"/>
      <point x="378" y="440" type="line"/>
      <point x="322" y="161" type="line" smooth="yes"/>
      <point x="318" y="138"/>
      <point x="304" y="83"/>
    </contour>
  </outline>
</glyph>
<glyph name="x" format="2">
  <advance width="478"/>
  <unicode hex="0078"/>
  <outline>
    <contour>
      <point x="451" y="444" type="line" smooth="yes"/>
      <point x="437" y="443"/>
      <point x="425" y="442"/>
      <point x="416" y="440" type="curve" smooth="yes"/>
      <point x="406" y="438"/>
      <point x="395" y="432"/>
      <point x="383" y="423" type="curve" smooth="yes"/>
      <point x="368" y="412"/>
      <point x="355" y="397"/>
      <point x="343" y="380" type="curve" smooth="yes"/>
      <point x="331" y="363"/>
      <point x="318" y="341"/>
      <point x="305" y="315" type="curve"/>
      <point x="272" y="260" type="line"/>
      <point x="217" y="382" type="line" smooth="yes"/>
      <point x="199" y="423"/>
      <point x="165" y="467"/>
      <point x="129" y="441" type="curve" smooth="yes"/>
      <point x="115" y="431"/>
      <point x="110" y="412"/>
      <point x="105" y="365" type="curve" smooth="yes"/>
      <point x="93" y="259" type="line"/>
      <point x="120" y="279" type="line"/>
      <point x="133" y="377" type="line"/>
      <point x="144" y="375" type="line"/>
      <point x="227" y="190" type="line"/>
      <point x="200" y="147"/>
      <point x="179" y="119"/>
      <point x="167" y="105" type="curve"/>
      <point x="144" y="80"/>
      <point x="117" y="68"/>
      <point x="87" y="68" type="curve" smooth="yes"/>
      <point x="43" y="68" type="line"/>
      <point x="20" y="-9" type="line"/>
      <point x="70" y="-6" type="line" smooth="yes"/>
      <point x="87" y="-5"/>
      <point x="100" y="-3"/>
      <point x="110" y="0" type="curve" smooth="yes"/>
      <point x="120" y="3"/>
      <point x="131" y="10"/>
      <point x="142" y="21" type="curve" smooth="yes"/>
      <point x="153" y="32"/>
      <point x="168" y="50"/>
      <point x="187" y="76" type="curve" smooth="yes"/>
      <point x="204" y="101"/>
      <point x="221" y="131"/>
      <point x="238" y="166" type="curve"/>
      <point x="286" y="59" type="line" smooth="yes"/>
      <point x="310" y="6"/>
      <point x="337" y="-27"/>
      <point x="374" y="0" type="curve" smooth="yes"/>
      <point x="388" y="10"/>
      <point x="393" y="29"/>
      <point x="398" y="76" type="curve" smooth="yes"/>
      <point x="410" y="182" type="line"/>
      <point x="383" y="162" type="line"/>
      <point x="370" y="64" type="line"/>
      <point x="359" y="66" type="line"/>
      <point x="282" y="237" type="line"/>
      <point x="306" y="274" type="line" smooth="yes"/>
      <point x="327" y="307"/>
      <point x="346" y="331"/>
      <point x="363" y="347" type="curve" smooth="yes"/>
      <point x="379" y="362"/>
      <point x="398" y="370"/>
      <point x="421" y="370" type="curve" smooth="yes"/>
      <point x="475" y="370" type="line"/>
      <point x="498" y="447" type="line"/>
    </contour>
  </outline>
</glyph>
<glyph name="y" format="2">
  <advance width="454"/>
  <unicode hex="0079"/>
  <outline>
    <contour>
      <point x="444" y="440" type="line"/>
      <point x="375" y="440" type="line"/>
      <point x="311" y="125" type="line"/>
      <point x="287" y="78"/>
      <point x="247" y="32"/>
      <point x="211" y="29" type="curve"/>
      <point x="156" y="29"/>
      <point x="129" y="85"/>
      <point x="145" y="176" type="curve" smooth="yes"/>
      <point x="180" y="350" type="line" smooth="yes"/>
      <point x="193" y="407"/>
      <point x="189" y="450"/>
      <point x="143" y="450" type="curve" smooth="yes"/>
      <point x="125" y="450"/>
      <point x="112" y="435"/>
      <point x="79" y="401" type="curve" smooth="yes"/>
      <point x="5" y="323" type="line"/>
      <point x="41" y="323" type="line"/>
      <point x="109" y="395" type="line"/>
      <point x="117" y="387" type="line"/>
      <point x="66" y="147" type="line" smooth="yes"/>
      <point x="50" y="70"/>
      <point x="85" y="-10"/>
      <point x="185" y="-10" type="curve" smooth="yes"/>
      <point x="247" y="-10"/>
      <point x="281" y="33"/>
      <point x="299" y="62" type="curve"/>
      <point x="277" y="-48" type="line"/>
      <point x="259" y="-121"/>
      <point x="240" y="-155"/>
      <point x="204" y="-149" type="curve" smooth="yes"/>
      <point x="187" y="-146"/>
      <point x="178" y="-134"/>
      <point x="175" y="-112" type="curve"/>
      <point x="176" y="-91"/>
      <point x="171" y="-81"/>
      <point x="164" y="-73" type="curve" smooth="yes"/>
      <point x="149" y="-56"/>
      <point x="124" y="-51"/>
      <point x="104" y="-65" type="curve" smooth="yes"/>
      <point x="82" y="-80"/>
      <point x="79" y="-117"/>
      <point x="100" y="-146" type="curve" smooth="yes"/>
      <point x="118" y="-170"/>
      <point x="152" y="-178"/>
      <point x="201" y="-180" type="curve" smooth="yes"/>
      <point x="264" y="-183"/>
      <point x="327" y="-132"/>
      <point x="346" y="-48" type="curve" smooth="yes"/>
    </contour>
  </outline>
</glyph>
<glyph name="z" format="2">
  <advance width="439"/>
  <unicode hex="007A"/>
  <outline>
    <contour>
      <point x="419" y="420" type="line"/>
      <point x="419" y="440" type="line"/>
      <point x="174" y="440" type="line"/>
      <point x="74" y="304" type="line"/>
      <point x="102" y="304" type="line"/>
      <point x="158" y="373" type="line"/>
      <point x="329" y="373" type="line"/>
      <point x="0" y="11" type="line"/>
      <point x="0" y="0" type="line"/>
      <point x="279" y="0" type="line"/>
      <point x="379" y="136" type="line"/>
      <point x="351" y="136" type="line"/>
      <point x="295" y="67" type="line"/>
      <point x="102" y="67" type="line"/>
      <point x="102" y="77" type="line"/>
    </contour>
  </outline>
</glyph>
<glyph name="braceleft" format="2">
  <advance width="431"/>
  <unicode hex="007B"/>
  <outline>
    <contour>
      <point x="175" y="482" type="curve" smooth="yes"/>
      <point x="166" y="446"/>
      <point x="164" y="396"/>
      <point x="145" y="361" type="curve" smooth="yes"/>
      <point x="131" y="335"/>
      <point x="99" y="317"/>
      <point x="59" y="319" type="curve"/>
      <point x="50" y="279" type="line"/>
      <point x="114" y="268"/>
      <point x="124" y="247"/>
      <point x="110" y="168" type="curve"/>
      <point x="105" y="147"/>
      <point x="99" y="120"/>
      <point x="94" y="98" type="curve" smooth="yes"/>
      <point x="69" y="-40"/>
      <point x="19" y="-88"/>
      <point x="214" y="-155" type="curve"/>
      <point x="224" y="-135" type="line"/>
      <point x="100" y="-76"/>
      <point x="111" y="-35"/>
      <point x="159" y="129" type="curve" smooth="yes"/>
      <point x="184" y="213"/>
      <point x="166" y="255"/>
      <point x="93" y="288" type="curve"/>
      <point x="97" y="303" type="line"/>
      <point x="178" y="322"/>
      <point x="214" y="342"/>
      <point x="223" y="428" type="curve" smooth="yes"/>
      <point x="240" y="567"/>
      <point x="244" y="610"/>
      <point x="381" y="615" type="curve"/>
      <point x="380" y="637" type="line"/>
      <point x="174" y="651"/>
      <point x="202" y="587"/>
    </contour>
  </outline>
</glyph>
<glyph name="cent" format="2">
  <advance width="455"/>
  <unicode hex="00A2"/>
  <outline>
    <contour>
      <point x="455" y="524" type="line"/>
      <point x="417" y="524" type="line"/>
      <point x="30" y="-59" type="line"/>
      <point x="67" y="-59" type="line"/>
    </contour>
    <component base="c" xOffset="29"/>
  </outline>
</glyph>
<glyph name="dieresis" format="2">
  <advance width="347"/>
  <unicode hex="00A8"/>
  <outline>
    <contour>
      <point x="264" y="549" type="curve" smooth="yes"/>
      <point x="293" y="549"/>
      <point x="317" y="573"/>
      <point x="317" y="603" type="curve" smooth="yes"/>
      <point x="317" y="631"/>
      <point x="293" y="656"/>
      <point x="264" y="656" type="curve" smooth="yes"/>
      <point x="235" y="656"/>
      <point x="210" y="631"/>
      <point x="210" y="603" type="curve" smooth="yes"/>
      <point x="210" y="573"/>
      <point x="235" y="549"/>
    </contour>
    <contour>
      <point x="30" y="603" type="curve" smooth="yes"/>
      <point x="30" y="573"/>
      <point x="55" y="549"/>
      <point x="84" y="549" type="curve" smooth="yes"/>
      <point x="113" y="549"/>
      <point x="137" y="573"/>
      <point x="137" y="603" type="curve" smooth="yes"/>
      <point x="137" y="631"/>
      <point x="113" y="656"/>
      <point x="84" y="656" type="curve" smooth="yes"/>
      <point x="55" y="656"/>
      <point x="30" y="631"/>
    </contour>
  </outline>
</glyph>
<glyph name="degree" format="2">
  <advance width="321"/>
  <unicode hex="00B0"/>
  <outline>
    <contour>
      <point x="146" y="395" type="curve" smooth="yes"/>
      <point x="194" y="395"/>
      <point x="247" y="438"/>
      <point x="251" y="508" type="curve" smooth="yes"/>
      <point x="255" y="576"/>
      <point x="215" y="609"/>
      <point x="179" y="609" type="curve" smooth="yes"/>
      <point x="127" y="609"/>
      <point x="84" y="571"/>
      <point x="72" y="508" type="curve" smooth="yes"/>
      <point x="59" y="444"/>
      <point x="105" y="395"/>
    </contour>
    <contour>
      <point x="146" y="413" type="curve" smooth="yes"/>
      <point x="114" y="413"/>
      <point x="108" y="470"/>
      <point x="114" y="508" type="curve" smooth="yes"/>
      <point x="120" y="548"/>
      <point x="141" y="590"/>
      <point x="178" y="590" type="curve" smooth="yes"/>
      <point x="203" y="590"/>
      <point x="216" y="549"/>
      <point x="209" y="508" type="curve" smooth="yes"/>
      <point x="201" y="460"/>
      <point x="180" y="413"/>
    </contour>
  </outline>
</glyph>
<glyph name="Ccedilla" format="2">
  <advance width="569"/>
  <unicode hex="00C7"/>
  <outline>
    <contour>
      <point x="207" y="-30" type="curve"/>
      <point x="207" y="-17" type="line"/>
      <point x="221" y="11" type="line"/>
      <point x="178" y="26" type="line"/>
      <point x="147" y="-38" type="line"/>
      <point x="147" y="-67" type="line"/>
      <point x="189" y="-65"/>
      <point x="259" y="-62"/>
      <point x="249" y="-120" type="curve" smooth="yes"/>
      <point x="245" y="-144"/>
      <point x="227" y="-154"/>
      <point x="208" y="-154" type="curve" smooth="yes"/>
      <point x="185" y="-154"/>
      <point x="163" y="-141"/>
      <point x="150" y="-117" type="curve"/>
      <point x="133" y="-134" type="line"/>
      <point x="143" y="-160"/>
      <point x="168" y="-180"/>
      <point x="210" y="-180" type="curve" smooth="yes"/>
      <point x="264" y="-180"/>
      <point x="291" y="-139"/>
      <point x="290" y="-100" type="curve" smooth="yes"/>
      <point x="289" y="-62"/>
      <point x="268" y="-30"/>
    </contour>
    <component base="C"/>
  </outline>
</glyph>
<glyph name="Egrave" format="2">
  <advance width="478"/>
  <unicode hex="00C8"/>
  <outline>
    <contour>
      <point x="356" y="105" type="line"/>
      <point x="346" y="57" type="line"/>
      <point x="324" y="38" type="line"/>
      <point x="150" y="38" type="line"/>
      <point x="131" y="60" type="line"/>
      <point x="179" y="289" type="line"/>
      <point x="198" y="311" type="line"/>
      <point x="367" y="311" type="line"/>
      <point x="389" y="292" type="line"/>
      <point x="389" y="262" type="line"/>
      <point x="417" y="262" type="line"/>
      <point x="444" y="394" type="line"/>
      <point x="416" y="394" type="line"/>
      <point x="407" y="366" type="line"/>
      <point x="385" y="347" type="line"/>
      <point x="216" y="347" type="line"/>
      <point x="197" y="369" type="line"/>
      <point x="232" y="540" type="line"/>
      <point x="251" y="562" type="line"/>
      <point x="408" y="562" type="line"/>
      <point x="430" y="543" type="line"/>
      <point x="439" y="497" type="line"/>
      <point x="467" y="497" type="line"/>
      <point x="488" y="600" type="line"/>
      <point x="163" y="599" type="line"/>
      <point x="49" y="50" type="line"/>
      <point x="30" y="28" type="line"/>
      <point x="-20" y="28" type="line"/>
      <point x="-20" y="0" type="line"/>
      <point x="362" y="0" type="line"/>
      <point x="384" y="105" type="line"/>
    </contour>
    <contour>
      <point x="412" y="662" type="curve"/>
      <point x="408" y="677" type="line"/>
      <point x="357" y="679"/>
      <point x="314" y="704"/>
      <point x="307" y="742" type="curve" smooth="yes"/>
      <point x="307" y="746"/>
      <point x="306" y="750"/>
      <point x="307" y="754" type="curve" smooth="yes"/>
      <point x="307" y="757"/>
      <point x="308" y="758"/>
      <point x="310" y="759" type="curve" smooth="yes"/>
      <point x="313" y="760"/>
      <point x="319" y="759"/>
      <point x="330" y="757" type="curve" smooth="yes"/>
      <point x="334" y="756"/>
      <point x="339" y="756"/>
      <point x="343" y="757" type="curve" smooth="yes"/>
      <point x="365" y="764"/>
      <point x="375" y="782"/>
      <point x="367" y="806" type="curve" smooth="yes"/>
      <point x="360" y="828"/>
      <point x="336" y="841"/>
      <point x="311" y="833" type="curve" smooth="yes"/>
      <point x="281" y="824"/>
      <point x="261" y="786"/>
      <point x="275" y="743" type="curve" smooth="yes"/>
      <point x="290" y="696"/>
      <point x="335" y="663"/>
    </contour>
  </outline>
</glyph>
<glyph name="Eacute" format="2">
  <advance width="478"/>
  <unicode hex="00C9"/>
  <outline>
    <contour>
      <point x="265" y="662" type="line"/>
      <point x="342" y="663"/>
      <point x="387" y="696"/>
      <point x="402" y="743" type="curve" smooth="yes"/>
      <point x="416" y="786"/>
      <point x="396" y="824"/>
      <point x="366" y="833" type="curve" smooth="yes"/>
      <point x="341" y="841"/>
      <point x="317" y="828"/>
      <point x="310" y="806" type="curve" smooth="yes"/>
      <point x="302" y="782"/>
      <point x="312" y="764"/>
      <point x="334" y="757" type="curve"/>
      <point x="338" y="756"/>
      <point x="343" y="756"/>
      <point x="347" y="757" type="curve"/>
      <point x="358" y="759"/>
      <point x="364" y="760"/>
      <point x="367" y="759" type="curve"/>
      <point x="369" y="758"/>
      <point x="370" y="757"/>
      <point x="370" y="754" type="curve"/>
      <point x="371" y="750"/>
      <point x="370" y="746"/>
      <point x="370" y="742" type="curve"/>
      <point x="363" y="704"/>
      <point x="320" y="679"/>
      <point x="269" y="677" type="curve"/>
    </contour>
    <contour>
      <point x="356" y="105" type="line"/>
      <point x="346" y="57" type="line"/>
      <point x="324" y="38" type="line"/>
      <point x="150" y="38" type="line"/>
      <point x="131" y="60" type="line"/>
      <point x="179" y="289" type="line"/>
      <point x="198" y="311" type="line"/>
      <point x="367" y="311" type="line"/>
      <point x="389" y="292" type="line"/>
      <point x="389" y="262" type="line"/>
      <point x="417" y="262" type="line"/>
      <point x="444" y="394" type="line"/>
      <point x="416" y="394" type="line"/>
      <point x="407" y="366" type="line"/>
      <point x="385" y="347" type="line"/>
      <point x="216" y="347" type="line"/>
      <point x="197" y="369" type="line"/>
      <point x="232" y="540" type="line"/>
      <point x="251" y="562" type="line"/>
      <point x="408" y="562" type="line"/>
      <point x="430" y="543" type="line"/>
      <point x="439" y="497" type="line"/>
      <point x="467" y="497" type="line"/>
      <point x="488" y="600" type="line"/>
      <point x="163" y="600" type="line"/>
      <point x="44" y="28" type="line"/>
      <point x="-20" y="28" type="line"/>
      <point x="-20" y="0" type="line"/>
      <point x="362" y="0" type="line"/>
      <point x="384" y="105" type="line"/>
    </contour>
  </outline>
</glyph>
<glyph name="Edieresis" format="2">
  <advance width="478"/>
  <unicode hex="00CB"/>
  <outline>
    <contour>
      <point x="366" y="105" type="line"/>
      <point x="356" y="57" type="line"/>
      <point x="334" y="38" type="line"/>
      <point x="160" y="38" type="line"/>
      <point x="131" y="60" type="line"/>
      <point x="179" y="289" type="line"/>
      <point x="208" y="311" type="line"/>
      <point x="367" y="311" type="line"/>
      <point x="389" y="292" type="line"/>
      <point x="389" y="262" type="line"/>
      <point x="417" y="262" type="line"/>
      <point x="444" y="394" type="line"/>
      <point x="416" y="394" type="line"/>
      <point x="407" y="366" type="line"/>
      <point x="385" y="347" type="line"/>
      <point x="216" y="347" type="line"/>
      <point x="197" y="369" type="line"/>
      <point x="232" y="540" type="line"/>
      <point x="261" y="562" type="line"/>
      <point x="408" y="562" type="line"/>
      <point x="430" y="543" type="line"/>
      <point x="439" y="497" type="line"/>
      <point x="467" y="497" type="line"/>
      <point x="488" y="600" type="line"/>
      <point x="163" y="600" type="line"/>
      <point x="45" y="28" type="line"/>
      <point x="-20" y="28" type="line"/>
      <point x="-20" y="0" type="line"/>
      <point x="372" y="0" type="line"/>
      <point x="394" y="105" type="line"/>
    </contour>
    <contour>
      <point x="429" y="649" type="curve" smooth="yes"/>
      <point x="458" y="649"/>
      <point x="482" y="673"/>
      <point x="482" y="703" type="curve" smooth="yes"/>
      <point x="482" y="731"/>
      <point x="458" y="756"/>
      <point x="429" y="756" type="curve" smooth="yes"/>
      <point x="400" y="756"/>
      <point x="375" y="731"/>
      <point x="375" y="703" type="curve" smooth="yes"/>
      <point x="375" y="673"/>
      <point x="400" y="649"/>
    </contour>
    <contour>
      <point x="249" y="649" type="curve" smooth="yes"/>
      <point x="278" y="649"/>
      <point x="302" y="673"/>
      <point x="302" y="703" type="curve" smooth="yes"/>
      <point x="302" y="731"/>
      <point x="278" y="756"/>
      <point x="249" y="756" type="curve" smooth="yes"/>
      <point x="220" y="756"/>
      <point x="195" y="731"/>
      <point x="195" y="703" type="curve" smooth="yes"/>
      <point x="195" y="673"/>
      <point x="220" y="649"/>
    </contour>
  </outline>
</glyph>
<glyph name="Oslash" format="2">
  <advance width="589"/>
  <unicode hex="00D8"/>
  <outline>
    <contour>
      <point x="39" y="-49" type="line"/>
      <point x="76" y="-49" type="line"/>
      <point x="535" y="640" type="line"/>
      <point x="497" y="640" type="line"/>
    </contour>
    <component base="O"/>
  </outline>
</glyph>
<glyph name="germandbls" format="2">
  <advance width="458"/>
  <unicode hex="00DF"/>
  <outline>
    <contour>
      <point x="366" y="439"/>
      <point x="307" y="394"/>
      <point x="252" y="355" type="curve"/>
      <point x="252" y="340" type="line"/>
      <point x="353" y="277" type="line" smooth="yes"/>
      <point x="405" y="244"/>
      <point x="458" y="210"/>
      <point x="458" y="136" type="curve" smooth="yes"/>
      <point x="458" y="50"/>
      <point x="397" y="-10"/>
      <point x="322" y="-10" type="curve" smooth="yes"/>
      <point x="283" y="-10"/>
      <point x="259" y="4"/>
      <point x="218" y="38" type="curve"/>
      <point x="201" y="38" type="line"/>
      <point x="201" y="24" type="line"/>
      <point x="177" y="24" type="line"/>
      <point x="177" y="169" type="line"/>
      <point x="203" y="169" type="line"/>
      <point x="212" y="76"/>
      <point x="267" y="22"/>
      <point x="323" y="22" type="curve" smooth="yes"/>
      <point x="367" y="22"/>
      <point x="394" y="55"/>
      <point x="394" y="103" type="curve" smooth="yes"/>
      <point x="394" y="165"/>
      <point x="339" y="208"/>
      <point x="291" y="236" type="curve" smooth="yes"/>
      <point x="183" y="299" type="line"/>
      <point x="183" y="330" type="line"/>
      <point x="253" y="384"/>
      <point x="293" y="421"/>
      <point x="293" y="492" type="curve" smooth="yes"/>
      <point x="293" y="554"/>
      <point x="260" y="576"/>
      <point x="219" y="576" type="curve" smooth="yes"/>
      <point x="155" y="576"/>
      <point x="125" y="526"/>
      <point x="123" y="440" type="curve"/>
      <point x="122" y="393" type="line"/>
      <point x="122" y="0" type="line"/>
      <point x="-19" y="0" type="line"/>
      <point x="-20" y="28" type="line"/>
      <point x="30" y="28" type="line"/>
      <point x="49" y="50" type="line"/>
      <point x="49" y="393" type="line"/>
      <point x="32" y="407" type="line"/>
      <point x="-13" y="407" type="line"/>
      <point x="-13" y="440" type="line"/>
      <point x="53" y="440" type="line"/>
      <point x="70" y="538"/>
      <point x="131" y="604"/>
      <point x="230" y="604" type="curve" smooth="yes"/>
      <point x="289" y="604"/>
      <point x="366" y="570"/>
      <point x="366" y="501" type="curve" smooth="yes"/>
    </contour>
  </outline>
</glyph>
<glyph name="ae" format="2">
  <advance width="763"/>
  <unicode hex="00E6"/>
  <outline>
    <contour>
      <point x="389" y="204" type="line"/>
      <point x="390" y="215"/>
      <point x="392" y="226"/>
      <point x="395" y="237" type="curve" smooth="yes"/>
      <point x="401" y="260" type="line"/>
      <point x="748" y="260" type="line"/>
      <point x="748" y="291" type="line"/>
      <point x="711" y="291" type="line"/>
      <point x="702" y="379"/>
      <point x="647" y="451"/>
      <point x="554" y="451" type="curve" smooth="yes"/>
      <point x="537" y="451"/>
      <point x="520" y="449"/>
      <point x="503" y="446" type="curve"/>
      <point x="456" y="436"/>
      <point x="415" y="411"/>
      <point x="382" y="356" type="curve"/>
      <point x="359" y="414"/>
      <point x="313" y="450"/>
      <point x="246" y="450" type="curve" smooth="yes"/>
      <point x="184" y="450"/>
      <point x="118" y="425"/>
      <point x="102" y="386" type="curve" smooth="yes"/>
      <point x="88" y="353"/>
      <point x="100" y="319"/>
      <point x="126" y="308" type="curve" smooth="yes"/>
      <point x="147" y="299"/>
      <point x="170" y="310"/>
      <point x="181" y="330" type="curve" smooth="yes"/>
      <point x="186" y="339"/>
      <point x="189" y="351"/>
      <point x="183" y="370" type="curve"/>
      <point x="179" y="408"/>
      <point x="200" y="425"/>
      <point x="247" y="425" type="curve" smooth="yes"/>
      <point x="319" y="425"/>
      <point x="332" y="367"/>
      <point x="321" y="283" type="curve"/>
      <point x="195" y="274"/>
      <point x="41" y="232"/>
      <point x="31" y="127" type="curve" smooth="yes"/>
      <point x="23" y="38"/>
      <point x="69" y="-10"/>
      <point x="189" y="-10" type="curve" smooth="yes"/>
      <point x="249" y="-10"/>
      <point x="300" y="13"/>
      <point x="335" y="57" type="curve"/>
      <point x="362" y="16"/>
      <point x="404" y="-10"/>
      <point x="460" y="-10" type="curve" smooth="yes"/>
      <point x="528" y="-10"/>
      <point x="588" y="18"/>
      <point x="642" y="129" type="curve"/>
      <point x="602" y="129" type="line"/>
      <point x="571" y="72"/>
      <point x="530" y="16"/>
      <point x="467" y="16" type="curve" smooth="yes"/>
      <point x="410" y="16"/>
      <point x="379" y="89"/>
      <point x="386" y="183" type="curve"/>
    </contour>
    <contour>
      <point x="507" y="422" type="curve" smooth="yes"/>
      <point x="519" y="427"/>
      <point x="532" y="429"/>
      <point x="547" y="429" type="curve" smooth="yes"/>
      <point x="598" y="429"/>
      <point x="628" y="370"/>
      <point x="629" y="291" type="curve"/>
      <point x="410" y="291" type="line"/>
      <point x="431" y="356"/>
      <point x="461" y="404"/>
    </contour>
    <contour>
      <point x="189" y="10" type="curve" smooth="yes"/>
      <point x="121" y="10"/>
      <point x="110" y="66"/>
      <point x="110" y="107" type="curve" smooth="yes"/>
      <point x="110" y="203"/>
      <point x="226" y="252"/>
      <point x="319" y="251" type="curve"/>
      <point x="312" y="138"/>
      <point x="277" y="10"/>
    </contour>
  </outline>
</glyph>
<glyph name="ccedilla" format="2">
  <advance width="403"/>
  <unicode hex="00E7"/>
  <outline>
    <contour>
      <point x="143" y="-48" type="curve"/>
      <point x="144" y="-35" type="line"/>
      <point x="160" y="-8" type="line"/>
      <point x="119" y="11" type="line"/>
      <point x="82" y="-50" type="line"/>
      <point x="80" y="-71" type="line"/>
      <point x="122" y="-73"/>
      <point x="187" y="-83"/>
      <point x="188" y="-122" type="curve" smooth="yes"/>
      <point x="189" y="-167"/>
      <point x="150" y="-183"/>
      <point x="131" y="-181" type="curve" smooth="yes"/>
      <point x="108" y="-179"/>
      <point x="93" y="-162"/>
      <point x="82" y="-137" type="curve"/>
      <point x="59" y="-144" type="line"/>
      <point x="67" y="-171"/>
      <point x="90" y="-193"/>
      <point x="132" y="-197" type="curve" smooth="yes"/>
      <point x="185" y="-202"/>
      <point x="216" y="-164"/>
      <point x="219" y="-125" type="curve" smooth="yes"/>
      <point x="222" y="-87"/>
      <point x="203" y="-53"/>
    </contour>
    <component base="c"/>
  </outline>
</glyph>
<glyph name="igrave" format="2">
  <advance width="238"/>
  <unicode hex="00EC"/>
  <outline>
    <contour>
      <point x="174" y="440" type="line"/>
      <point x="104" y="440" type="line"/>
      <point x="39" y="124" type="line"/>
      <point x="37" y="115" type="line"/>
      <point x="31" y="89" type="line" smooth="yes"/>
      <point x="18" y="32"/>
      <point x="22" y="-10"/>
      <point x="68" y="-10" type="curve" smooth="yes"/>
      <point x="86" y="-10"/>
      <point x="100" y="3"/>
      <point x="132" y="38" type="curve" smooth="yes"/>
      <point x="204" y="116" type="line"/>
      <point x="170" y="116" type="line"/>
      <point x="102" y="44" type="line"/>
      <point x="94" y="52" type="line"/>
      <point x="105" y="105" type="line"/>
      <point x="109" y="121" type="line"/>
    </contour>
    <component base="gravecomb" xOffset="100"/>
  </outline>
</glyph>
<glyph name="idieresis" format="2">
  <advance width="247"/>
  <unicode hex="00EF"/>
  <outline>
    <contour>
      <point x="179" y="440" type="line"/>
      <point x="109" y="440" type="line"/>
      <point x="44" y="124" type="line"/>
      <point x="42" y="115" type="line"/>
      <point x="36" y="89" type="line" smooth="yes"/>
      <point x="23" y="32"/>
      <point x="27" y="-10"/>
      <point x="73" y="-10" type="curve" smooth="yes"/>
      <point x="91" y="-10"/>
      <point x="105" y="3"/>
      <point x="137" y="38" type="curve" smooth="yes"/>
      <point x="209" y="116" type="line"/>
      <point x="175" y="116" type="line"/>
      <point x="107" y="44" type="line"/>
      <point x="99" y="52" type="line"/>
      <point x="110" y="105" type="line"/>
      <point x="114" y="121" type="line"/>
    </contour>
    <component base="dieresiscomb" xOffset="5"/>
  </outline>
</glyph>
<glyph name="OE" format="2">
  <advance width="837"/>
  <unicode hex="0152"/>
  <outline>
    <contour>
      <point x="693" y="28" type="line"/>
      <point x="334" y="28" type="line"/>
      <point x="209" y="-10" type="line"/>
      <point x="731" y="-10" type="line"/>
      <point x="753" y="95" type="line"/>
      <point x="725" y="95" type="line"/>
      <point x="715" y="47" type="line"/>
    </contour>
    <contour>
      <point x="434" y="572" type="line"/>
      <point x="620" y="572" type="line"/>
      <point x="767" y="572" type="line"/>
      <point x="789" y="553" type="line"/>
      <point x="798" y="507" type="line"/>
      <point x="826" y="507" type="line"/>
      <point x="847" y="610" type="line"/>
      <point x="372" y="610" type="line"/>
    </contour>
    <contour>
      <point x="452" y="252" type="line"/>
      <point x="530" y="244" type="line"/>
      <point x="535" y="269" type="line"/>
      <point x="564" y="291" type="line"/>
      <point x="723" y="291" type="line"/>
      <point x="745" y="272" type="line"/>
      <point x="745" y="242" type="line"/>
      <point x="773" y="242" type="line"/>
      <point x="800" y="374" type="line"/>
      <point x="772" y="374" type="line"/>
      <point x="763" y="346" type="line"/>
      <point x="741" y="327" type="line"/>
      <point x="572" y="327" type="line"/>
      <point x="553" y="349" type="line"/>
      <point x="558" y="375" type="line"/>
      <point x="479" y="384" type="line"/>
    </contour>
    <component base="O" identifier="DC9E3BC8"/>
  </outline>
</glyph>
<glyph name="oe" format="2">
  <advance width="795"/>
  <unicode hex="0153"/>
  <outline>
    <contour>
      <point x="448" y="260" type="line"/>
      <point x="795" y="260" type="line"/>
      <point x="795" y="291" type="line"/>
      <point x="758" y="291" type="line"/>
      <point x="749" y="379"/>
      <point x="694" y="451"/>
      <point x="601" y="451" type="curve" smooth="yes"/>
      <point x="584" y="451"/>
      <point x="567" y="449"/>
      <point x="550" y="446" type="curve" smooth="yes"/>
      <point x="498" y="435"/>
      <point x="453" y="407"/>
      <point x="418" y="366" type="curve"/>
      <point x="392" y="416"/>
      <point x="346" y="451"/>
      <point x="282" y="451" type="curve" smooth="yes"/>
      <point x="231" y="451"/>
      <point x="183" y="435"/>
      <point x="143" y="406" type="curve" smooth="yes"/>
      <point x="93" y="370"/>
      <point x="56" y="315"/>
      <point x="38" y="247" type="curve" smooth="yes"/>
      <point x="7" y="122"/>
      <point x="63" y="-10"/>
      <point x="188" y="-10" type="curve" smooth="yes"/>
      <point x="261" y="-10"/>
      <point x="325" y="22"/>
      <point x="371" y="76" type="curve"/>
      <point x="397" y="25"/>
      <point x="443" y="-10"/>
      <point x="507" y="-10" type="curve" smooth="yes"/>
      <point x="575" y="-10"/>
      <point x="635" y="18"/>
      <point x="689" y="129" type="curve"/>
      <point x="649" y="129" type="line"/>
      <point x="618" y="72"/>
      <point x="577" y="16"/>
      <point x="514" y="16" type="curve" smooth="yes"/>
      <point x="446" y="16"/>
      <point x="415" y="119"/>
      <point x="442" y="237" type="curve" smooth="yes"/>
    </contour>
    <contour>
      <point x="195" y="12" type="curve" smooth="yes"/>
      <point x="127" y="12"/>
      <point x="96" y="119"/>
      <point x="123" y="237" type="curve" smooth="yes"/>
      <point x="135" y="287"/>
      <point x="149" y="332"/>
      <point x="171" y="366" type="curve" smooth="yes"/>
      <point x="195" y="405"/>
      <point x="228" y="429"/>
      <point x="275" y="429" type="curve" smooth="yes"/>
      <point x="351" y="429"/>
      <point x="372" y="302"/>
      <point x="347" y="204" type="curve" smooth="yes"/>
      <point x="322" y="97"/>
      <point x="283" y="12"/>
    </contour>
    <contour>
      <point x="554" y="422" type="curve" smooth="yes"/>
      <point x="566" y="427"/>
      <point x="579" y="429"/>
      <point x="594" y="429" type="curve" smooth="yes"/>
      <point x="645" y="429"/>
      <point x="675" y="370"/>
      <point x="676" y="291" type="curve"/>
      <point x="457" y="291" type="line"/>
      <point x="478" y="356"/>
      <point x="508" y="404"/>
    </contour>
  </outline>
</glyph>
<glyph name="ring" format="2">
  <advance width="187"/>
  <unicode hex="02DA"/>
  <outline>
    <contour>
      <point x="94" y="622" type="curve" smooth="yes"/>
      <point x="46" y="622"/>
      <point x="15" y="587"/>
      <point x="15" y="545" type="curve" smooth="yes"/>
      <point x="15" y="502"/>
      <point x="46" y="468"/>
      <point x="94" y="468" type="curve" smooth="yes"/>
      <point x="140" y="468"/>
      <point x="172" y="502"/>
      <point x="172" y="545" type="curve" smooth="yes"/>
      <point x="172" y="587"/>
      <point x="140" y="622"/>
    </contour>
    <contour>
      <point x="145" y="545" type="curve" smooth="yes"/>
      <point x="145" y="511"/>
      <point x="125" y="488"/>
      <point x="95" y="488" type="curve" smooth="yes"/>
      <point x="64" y="488"/>
      <point x="43" y="511"/>
      <point x="43" y="545" type="curve" smooth="yes"/>
      <point x="43" y="577"/>
      <point x="64" y="600"/>
      <point x="95" y="600" type="curve" smooth="yes"/>
      <point x="125" y="600"/>
      <point x="145" y="577"/>
    </contour>
  </outline>
</glyph>
<glyph name="circumflexcomb" format="2">
  <advance width="322"/>
  <unicode hex="0302"/>
  <outline>
    <contour>
      <point x="15" y="501" type="line"/>
      <point x="33" y="501" type="line"/>
      <point x="153" y="571" type="line"/>
      <point x="177" y="571" type="line"/>
      <point x="289" y="501" type="line"/>
      <point x="307" y="501" type="line"/>
      <point x="177" y="639" type="line"/>
      <point x="153" y="639" type="line"/>
    </contour>
  </outline>
</glyph>
<glyph name="dotaccentcomb" format="2">
  <advance width="237"/>
  <unicode hex="0307"/>
  <outline>
    <contour>
      <point x="119" y="549" type="curve" smooth="yes"/>
      <point x="148" y="549"/>
      <point x="172" y="573"/>
      <point x="172" y="603" type="curve" smooth="yes"/>
      <point x="172" y="631"/>
      <point x="148" y="656"/>
      <point x="119" y="656" type="curve" smooth="yes"/>
      <point x="90" y="656"/>
      <point x="65" y="631"/>
      <point x="65" y="603" type="curve" smooth="yes"/>
      <point x="65" y="573"/>
      <point x="90" y="549"/>
    </contour>
  </outline>
</glyph>
<glyph name="dieresiscomb" format="2">
  <advance width="317"/>
  <unicode hex="0308"/>
  <outline>
    <contour>
      <point x="249" y="549" type="curve" smooth="yes"/>
      <point x="278" y="549"/>
      <point x="302" y="573"/>
      <point x="302" y="603" type="curve" smooth="yes"/>
      <point x="302" y="631"/>
      <point x="278" y="656"/>
      <point x="249" y="656" type="curve" smooth="yes"/>
      <point x="220" y="656"/>
      <point x="195" y="631"/>
      <point x="195" y="603" type="curve" smooth="yes"/>
      <point x="195" y="573"/>
      <point x="220" y="549"/>
    </contour>
    <contour>
      <point x="69" y="549" type="curve" smooth="yes"/>
      <point x="98" y="549"/>
      <point x="122" y="573"/>
      <point x="122" y="603" type="curve" smooth="yes"/>
      <point x="122" y="631"/>
      <point x="98" y="656"/>
      <point x="69" y="656" type="curve" smooth="yes"/>
      <point x="40" y="656"/>
      <point x="15" y="631"/>
      <point x="15" y="603" type="curve" smooth="yes"/>
      <point x="15" y="573"/>
      <point x="40" y="549"/>
    </contour>
  </outline>
</glyph>
<glyph name="guilsinglleft" format="2">
  <advance width="320"/>
  <unicode hex="2039"/>
  <outline>
    <contour>
      <point x="180" y="19" type="line"/>
      <point x="186" y="37" type="line"/>
      <point x="128" y="199" type="line"/>
      <point x="138" y="223" type="line"/>
      <point x="260" y="341" type="line"/>
      <point x="260" y="359" type="line"/>
      <point x="60" y="233" type="line"/>
      <point x="50" y="209" type="line"/>
    </contour>
  </outline>
</glyph>
<glyph name="fraction" format="2">
  <advance width="572"/>
  <unicode hex="2044"/>
  <outline>
    <contour>
      <point x="70" y="1" type="line"/>
      <point x="115" y="1" type="line"/>
      <point x="502" y="601" type="line"/>
      <point x="457" y="601" type="line"/>
    </contour>
  </outline>
</glyph>
<glyph name="euro" format="2">
  <advance width="613"/>
  <unicode hex="20AC"/>
  <outline>
    <contour>
      <point x="583" y="415" type="line"/>
      <point x="566" y="510"/>
      <point x="515" y="610"/>
      <point x="373" y="610" type="curve" smooth="yes"/>
      <point x="219" y="610"/>
      <point x="83" y="488"/>
      <point x="46" y="322" type="curve" smooth="yes"/>
      <point x="11" y="163"/>
      <point x="94" y="3"/>
      <point x="239" y="-9" type="curve" smooth="yes"/>
      <point x="368" y="-20"/>
      <point x="466" y="38"/>
      <point x="537" y="194" type="curve"/>
      <point x="501" y="194" type="line"/>
      <point x="452" y="84"/>
      <point x="357" y="22"/>
      <point x="270" y="22" type="curve" smooth="yes"/>
      <point x="148" y="22"/>
      <point x="104" y="181"/>
      <point x="138" y="322" type="curve" smooth="yes"/>
      <point x="173" y="469"/>
      <point x="262" y="585"/>
      <point x="368" y="585" type="curve" smooth="yes"/>
      <point x="484" y="585"/>
      <point x="525" y="485"/>
      <point x="546" y="415" type="curve"/>
    </contour>
    <component base="equal" xOffset="-151" yOffset="61"/>
  </outline>
</glyph>
<glyph name="notequal" format="2">
  <advance width="586"/>
  <unicode hex="2260"/>
  <outline>
    <contour>
      <point x="199" y="14" type="line"/>
      <point x="249" y="14" type="line"/>
      <point x="387" y="444" type="line"/>
      <point x="337" y="444" type="line"/>
    </contour>
    <component base="equal"/>
  </outline>
</glyph>
<glyph name="whiteCircle" format="2">
  <advance width="851"/>
  <unicode hex="25CB"/>
  <outline>
    <contour>
      <point x="50" y="252.8" type="curve" smooth="yes"/>
      <point x="50" y="31.7"/>
      <point x="207.3" y="-123.4"/>
      <point x="425.1" y="-123.4" type="curve" smooth="yes"/>
      <point x="642.9" y="-123.4"/>
      <point x="801.3" y="31.7"/>
      <point x="801.3" y="252.8" type="curve" smooth="yes"/>
      <point x="801.3" y="469.5"/>
      <point x="642.9" y="627.9"/>
      <point x="425.1" y="627.9" type="curve" smooth="yes"/>
      <point x="207.3" y="627.9"/>
      <point x="50" y="469.5"/>
    </contour>
    <contour>
      <point x="92.9" y="252.8" type="curve" smooth="yes"/>
      <point x="92.9" y="451.9"/>
      <point x="228.2" y="591.6"/>
      <point x="425.1" y="591.6" type="curve" smooth="yes"/>
      <point x="617.6" y="591.6"/>
      <point x="759.5" y="451.9"/>
      <point x="759.5" y="252.8" type="curve" smooth="yes"/>
      <point x="759.5" y="54.8"/>
      <point x="622" y="-87.1"/>
      <point x="425.1" y="-87.1" type="curve" smooth="yes"/>
      <point x="228.2" y="-87.1"/>
      <point x="92.9" y="54.8"/>
    </contour>
  </outline>
</glyph>
<glyph name="A_O" format="2">
  <advance width="892"/>
  <unicode hex="F1030"/>
  <outline>
    <contour>
      <point x="317" y="279" type="line"/>
      <point x="207" y="279" type="line"/>
      <point x="200" y="293" type="line"/>
      <point x="200" y="294" type="line"/>
      <point x="333" y="532" type="line"/>
      <point x="333" y="292" type="line"/>
    </contour>
    <contour>
      <point x="502" y="-9" type="curve" smooth="yes"/>
      <point x="685" y="-18"/>
      <point x="818" y="120"/>
      <point x="856" y="322" type="curve" smooth="yes"/>
      <point x="884" y="472"/>
      <point x="812" y="604"/>
      <point x="676" y="610" type="curve" smooth="yes"/>
      <point x="566" y="615"/>
      <point x="471" y="551"/>
      <point x="408" y="454" type="curve"/>
      <point x="408" y="600" type="line"/>
      <point x="322" y="600" type="line"/>
      <point x="3" y="28" type="line"/>
      <point x="-50" y="28" type="line"/>
      <point x="-50" y="0" type="line"/>
      <point x="132" y="0" type="line"/>
      <point x="132" y="28" type="line"/>
      <point x="84" y="28" type="line"/>
      <point x="65" y="50" type="line"/>
      <point x="65" y="51" type="line"/>
      <point x="172" y="242" type="line"/>
      <point x="172" y="243" type="line"/>
      <point x="197" y="255" type="line"/>
      <point x="316" y="255" type="line"/>
      <point x="333" y="242" type="line"/>
      <point x="333" y="51" type="line"/>
      <point x="314" y="28" type="line"/>
      <point x="266" y="28" type="line"/>
      <point x="266" y="0" type="line"/>
      <point x="454" y="0" type="line"/>
      <point x="468" y="-5"/>
      <point x="484" y="-8"/>
    </contour>
    <contour>
      <point x="755" y="322" type="curve" smooth="yes"/>
      <point x="719" y="156"/>
      <point x="650" y="-1"/>
      <point x="513" y="12" type="curve" smooth="yes"/>
      <point x="421" y="21"/>
      <point x="407" y="181"/>
      <point x="451" y="322" type="curve" smooth="yes"/>
      <point x="496" y="466"/>
      <point x="565" y="588"/>
      <point x="671" y="585" type="curve" smooth="yes"/>
      <point x="753" y="583"/>
      <point x="786" y="467"/>
    </contour>
  </outline>
</glyph>
<glyph name="a_e" format="2">
  <advance width="748"/>
  <unicode hex="F1130"/>
  <outline>
    <contour>
      <point x="711" y="291" type="line"/>
      <point x="702" y="379"/>
      <point x="647" y="451"/>
      <point x="554" y="451" type="curve" smooth="yes"/>
      <point x="537" y="451"/>
      <point x="520" y="449"/>
      <point x="503" y="446" type="curve"/>
      <point x="456" y="436"/>
      <point x="415" y="411"/>
      <point x="382" y="356" type="curve"/>
      <point x="359" y="414"/>
      <point x="313" y="450"/>
      <point x="246" y="450" type="curve" smooth="yes"/>
      <point x="184" y="450"/>
      <point x="118" y="425"/>
      <point x="102" y="386" type="curve" smooth="yes"/>
      <point x="88" y="353"/>
      <point x="100" y="319"/>
      <point x="126" y="308" type="curve" smooth="yes"/>
      <point x="147" y="299"/>
      <point x="170" y="310"/>
      <point x="181" y="330" type="curve" smooth="yes"/>
      <point x="186" y="339"/>
      <point x="189" y="351"/>
      <point x="183" y="370" type="curve"/>
      <point x="179" y="408"/>
      <point x="200" y="425"/>
      <point x="247" y="425" type="curve" smooth="yes"/>
      <point x="319" y="425"/>
      <point x="332" y="367"/>
      <point x="321" y="283" type="curve"/>
      <point x="195" y="274"/>
      <point x="41" y="232"/>
      <point x="31" y="127" type="curve" smooth="yes"/>
      <point x="23" y="38"/>
      <point x="69" y="-10"/>
      <point x="189" y="-10" type="curve" smooth="yes"/>
      <point x="271" y="-10"/>
      <point x="337" y="59"/>
      <point x="348" y="139" type="curve"/>
      <point x="325" y="147" type="line"/>
      <point x="307" y="78"/>
      <point x="233" y="20"/>
      <point x="189" y="20" type="curve" smooth="yes"/>
      <point x="121" y="20"/>
      <point x="110" y="66"/>
      <point x="110" y="107" type="curve" smooth="yes"/>
      <point x="110" y="204"/>
      <point x="208" y="251"/>
      <point x="401" y="260" type="curve"/>
      <point x="748" y="260" type="line"/>
      <point x="748" y="291" type="line"/>
    </contour>
    <contour>
      <point x="410" y="291" type="line"/>
      <point x="431" y="356"/>
      <point x="461" y="404"/>
      <point x="507" y="422" type="curve" smooth="yes"/>
      <point x="519" y="427"/>
      <point x="532" y="429"/>
      <point x="547" y="429" type="curve" smooth="yes"/>
      <point x="598" y="429"/>
      <point x="628" y="370"/>
      <point x="629" y="291" type="curve"/>
    </contour>
  </outline>
</glyph>
<glyph name="a_o_n" format="2">
  <advance width="1000"/>
  <unicode hex="F1140"/>
  <outline>
    <contour>
      <point x="949" y="117" type="line"/>
      <point x="881" y="45" type="line"/>
      <point x="873" y="53" type="line"/>
      <point x="924" y="293" type="line" smooth="yes"/>
      <point x="940" y="370"/>
      <point x="905" y="450"/>
      <point x="805" y="450" type="curve" smooth="yes"/>
      <point x="745" y="450"/>
      <point x="712" y="410"/>
      <point x="692" y="381" type="curve"/>
      <point x="666" y="423"/>
      <point x="622" y="451"/>
      <point x="565" y="451" type="curve" smooth="yes"/>
      <point x="514" y="451"/>
      <point x="466" y="435"/>
      <point x="426" y="406" type="curve" smooth="yes"/>
      <point x="407" y="392"/>
      <point x="389" y="375"/>
      <point x="374" y="356" type="curve"/>
      <point x="351" y="420"/>
      <point x="319" y="450"/>
      <point x="246" y="450" type="curve" smooth="yes"/>
      <point x="184" y="450"/>
      <point x="118" y="425"/>
      <point x="102" y="386" type="curve" smooth="yes"/>
      <point x="88" y="353"/>
      <point x="100" y="319"/>
      <point x="126" y="308" type="curve" smooth="yes"/>
      <point x="147" y="299"/>
      <point x="170" y="310"/>
      <point x="181" y="330" type="curve" smooth="yes"/>
      <point x="186" y="339"/>
      <point x="189" y="351"/>
      <point x="183" y="370" type="curve"/>
      <point x="179" y="408"/>
      <point x="200" y="425"/>
      <point x="247" y="425" type="curve" smooth="yes"/>
      <point x="319" y="425"/>
      <point x="332" y="367"/>
      <point x="321" y="283" type="curve"/>
      <point x="195" y="274"/>
      <point x="41" y="232"/>
      <point x="31" y="127" type="curve" smooth="yes"/>
      <point x="27" y="84"/>
      <point x="36" y="50"/>
      <point x="60" y="27" type="curve" smooth="yes"/>
      <point x="86" y="3"/>
      <point x="128" y="-10"/>
      <point x="189" y="-10" type="curve" smooth="yes"/>
      <point x="264" y="-10"/>
      <point x="299" y="12"/>
      <point x="337" y="72" type="curve"/>
      <point x="363" y="23"/>
      <point x="408" y="-10"/>
      <point x="471" y="-10" type="curve" smooth="yes"/>
      <point x="587" y="-10"/>
      <point x="683" y="72"/>
      <point x="715" y="194" type="curve" smooth="yes"/>
      <point x="730" y="251"/>
      <point x="726" y="310"/>
      <point x="705" y="357" type="curve"/>
      <point x="727" y="386"/>
      <point x="754" y="408"/>
      <point x="779" y="411" type="curve"/>
      <point x="834" y="411"/>
      <point x="861" y="355"/>
      <point x="845" y="264" type="curve" smooth="yes"/>
      <point x="810" y="90" type="line" smooth="yes"/>
      <point x="797" y="33"/>
      <point x="801" y="-10"/>
      <point x="847" y="-10" type="curve" smooth="yes"/>
      <point x="865" y="-10"/>
      <point x="878" y="5"/>
      <point x="911" y="39" type="curve" smooth="yes"/>
      <point x="985" y="117" type="line"/>
    </contour>
    <contour>
      <point x="630" y="204" type="curve" smooth="yes"/>
      <point x="605" y="97"/>
      <point x="566" y="12"/>
      <point x="478" y="12" type="curve" smooth="yes"/>
      <point x="410" y="12"/>
      <point x="379" y="119"/>
      <point x="406" y="237" type="curve" smooth="yes"/>
      <point x="418" y="287"/>
      <point x="432" y="332"/>
      <point x="454" y="366" type="curve" smooth="yes"/>
      <point x="478" y="405"/>
      <point x="511" y="429"/>
      <point x="558" y="429" type="curve" smooth="yes"/>
      <point x="634" y="429"/>
      <point x="655" y="302"/>
    </contour>
    <contour>
      <point x="189" y="10" type="curve" smooth="yes"/>
      <point x="151" y="10"/>
      <point x="130" y="28"/>
      <point x="120" y="51" type="curve" smooth="yes"/>
      <point x="112" y="68"/>
      <point x="110" y="89"/>
      <point x="110" y="107" type="curve" smooth="yes"/>
      <point x="110" y="203"/>
      <point x="226" y="252"/>
      <point x="319" y="251" type="curve"/>
      <point x="319" y="244"/>
      <point x="318" y="237"/>
      <point x="317" y="230" type="curve" smooth="yes"/>
      <point x="315" y="217"/>
      <point x="313" y="204"/>
      <point x="313" y="192" type="curve"/>
      <point x="298" y="97"/>
      <point x="262" y="10"/>
    </contour>
  </outline>
</glyph>
<glyph name="C_H" format="2">
  <advance width="981"/>
  <unicode hex="F1410"/>
  <outline>
    <contour>
      <point x="846" y="50" type="line"/>
      <point x="961" y="600" type="line"/>
      <point x="802" y="600" type="line"/>
      <point x="802" y="572" type="line"/>
      <point x="850" y="572" type="line"/>
      <point x="869" y="550" type="line"/>
      <point x="840" y="409" type="line"/>
      <point x="821" y="387" type="line"/>
      <point x="589" y="387" type="line"/>
      <point x="570" y="409" type="line"/>
      <point x="605" y="572" type="line"/>
      <point x="667" y="572" type="line"/>
      <point x="667" y="600" type="line"/>
      <point x="420" y="600" type="line"/>
      <point x="401" y="606"/>
      <point x="379" y="609"/>
      <point x="354" y="611" type="curve" smooth="yes"/>
      <point x="177" y="618"/>
      <point x="52" y="463"/>
      <point x="32" y="277" type="curve" smooth="yes"/>
      <point x="18" y="127"/>
      <point x="94" y="-10"/>
      <point x="245" y="-10" type="curve" smooth="yes"/>
      <point x="337" y="-10"/>
      <point x="432" y="24"/>
      <point x="478" y="175" type="curve"/>
      <point x="441" y="175" type="line"/>
      <point x="417" y="93"/>
      <point x="350" y="22"/>
      <point x="255" y="22" type="curve" smooth="yes"/>
      <point x="172" y="22"/>
      <point x="114" y="133"/>
      <point x="133" y="274" type="curve" smooth="yes"/>
      <point x="154" y="440"/>
      <point x="222" y="592"/>
      <point x="350" y="584" type="curve"/>
      <point x="435" y="584"/>
      <point x="493" y="486"/>
      <point x="485" y="392" type="curve"/>
      <point x="473" y="331" type="line"/>
      <point x="554" y="331" type="line"/>
      <point x="573" y="353" type="line"/>
      <point x="805" y="353" type="line"/>
      <point x="824" y="331" type="line"/>
      <point x="761" y="28" type="line"/>
      <point x="699" y="28" type="line"/>
      <point x="699" y="0" type="line"/>
      <point x="915" y="0" type="line"/>
      <point x="915" y="28" type="line"/>
      <point x="865" y="28" type="line"/>
    </contour>
  </outline>
</glyph>
<glyph name="C_Q" format="2">
  <advance width="559"/>
  <unicode hex="F1440"/>
  <outline>
    <contour>
      <point x="357" y="12" type="curve"/>
      <point x="324" y="29" type="line"/>
      <point x="298" y="15"/>
      <point x="270" y="9"/>
      <point x="238" y="12" type="curve" smooth="yes"/>
      <point x="221" y="14"/>
      <point x="207" y="20"/>
      <point x="195" y="31" type="curve"/>
      <point x="169" y="2" type="line"/>
      <point x="169" y="2"/>
      <point x="170" y="2"/>
      <point x="170" y="2" type="curve" smooth="yes"/>
      <point x="311" y="-54"/>
      <point x="261" y="-149"/>
      <point x="528" y="-132" type="curve"/>
      <point x="528" y="-101" type="line"/>
      <point x="460" y="-98"/>
      <point x="369" y="-86"/>
      <point x="301" y="-4" type="curve"/>
      <point x="320" y="-1"/>
      <point x="339" y="5"/>
    </contour>
    <component base="C" identifier="9A6D7E5B"/>
  </outline>
</glyph>
<glyph name="c_h_e" format="2">
  <advance width="986"/>
  <unicode hex="F1520"/>
  <outline>
    <contour>
      <point x="639" y="260" type="line"/>
      <point x="986" y="260" type="line"/>
      <point x="986" y="291" type="line"/>
      <point x="633" y="291" type="line"/>
      <point x="633" y="293" type="line"/>
      <point x="649" y="370"/>
      <point x="614" y="450"/>
      <point x="514" y="450" type="curve" smooth="yes"/>
      <point x="455" y="450"/>
      <point x="421" y="411"/>
      <point x="402" y="382" type="curve"/>
      <point x="445" y="600" type="line"/>
      <point x="293" y="600" type="line"/>
      <point x="293" y="572" type="line"/>
      <point x="343" y="572" type="line"/>
      <point x="362" y="547" type="line"/>
      <point x="340" y="433" type="line"/>
      <point x="317" y="443"/>
      <point x="291" y="449"/>
      <point x="268" y="450" type="curve" smooth="yes"/>
      <point x="149" y="455"/>
      <point x="67" y="372"/>
      <point x="38" y="247" type="curve" smooth="yes"/>
      <point x="9" y="122"/>
      <point x="63" y="-10"/>
      <point x="188" y="-10" type="curve" smooth="yes"/>
      <point x="256" y="-10"/>
      <point x="316" y="18"/>
      <point x="370" y="129" type="curve"/>
      <point x="330" y="129" type="line"/>
      <point x="299" y="72"/>
      <point x="258" y="16"/>
      <point x="195" y="16" type="curve" smooth="yes"/>
      <point x="127" y="16"/>
      <point x="96" y="119"/>
      <point x="123" y="237" type="curve" smooth="yes"/>
      <point x="150" y="352"/>
      <point x="174" y="436"/>
      <point x="265" y="430" type="curve" smooth="yes"/>
      <point x="312" y="427"/>
      <point x="329" y="392"/>
      <point x="316" y="309" type="curve" smooth="yes"/>
      <point x="306" y="261" type="line"/>
      <point x="377" y="261" type="line"/>
      <point x="388" y="315" type="line"/>
      <point x="390" y="318"/>
      <point x="391" y="322"/>
      <point x="393" y="325" type="curve" smooth="yes"/>
      <point x="395" y="327"/>
      <point x="396" y="329"/>
      <point x="397" y="331" type="curve" smooth="yes"/>
      <point x="421" y="372"/>
      <point x="456" y="408"/>
      <point x="488" y="411" type="curve"/>
      <point x="558" y="411"/>
      <point x="566" y="335"/>
      <point x="548" y="247" type="curve" smooth="yes"/>
      <point x="522" y="119"/>
      <point x="573" y="-10"/>
      <point x="698" y="-10" type="curve" smooth="yes"/>
      <point x="766" y="-10"/>
      <point x="826" y="18"/>
      <point x="880" y="129" type="curve"/>
      <point x="840" y="129" type="line"/>
      <point x="809" y="72"/>
      <point x="768" y="16"/>
      <point x="705" y="16" type="curve" smooth="yes"/>
      <point x="637" y="16"/>
      <point x="602" y="120"/>
      <point x="633" y="237" type="curve" smooth="yes"/>
    </contour>
  </outline>
</glyph>
<glyph name="c_h_e_s" format="2">
  <advance width="1287"/>
  <unicode hex="F1530"/>
  <outline>
    <contour>
      <point x="1123" y="431" type="curve" smooth="yes"/>
      <point x="1163" y="431"/>
      <point x="1194" y="404"/>
      <point x="1200" y="368" type="curve" smooth="yes"/>
      <point x="1206" y="329"/>
      <point x="1172" y="298"/>
      <point x="1105" y="294" type="curve"/>
      <point x="1058" y="333"/>
      <point x="1049" y="344"/>
      <point x="1049" y="367" type="curve" smooth="yes"/>
      <point x="1049" y="402"/>
      <point x="1091" y="431"/>
    </contour>
    <contour>
      <point x="946" y="291" type="line"/>
      <point x="946" y="259" type="line"/>
      <point x="974" y="259"/>
      <point x="1001" y="259"/>
      <point x="1026" y="259" type="curve"/>
      <point x="1040" y="246"/>
      <point x="1059" y="232"/>
      <point x="1087" y="208" type="curve" smooth="yes"/>
      <point x="1138" y="164"/>
      <point x="1172" y="135"/>
      <point x="1164" y="85" type="curve" smooth="yes"/>
      <point x="1158" y="46"/>
      <point x="1140" y="21"/>
      <point x="1093" y="22" type="curve" smooth="yes"/>
      <point x="1019" y="24"/>
      <point x="985" y="93"/>
      <point x="986" y="167" type="curve"/>
      <point x="958" y="168" type="line"/>
      <point x="946" y="25" type="line"/>
      <point x="971" y="23" type="line"/>
      <point x="972" y="38" type="line"/>
      <point x="989" y="37" type="line"/>
      <point x="1032" y="0"/>
      <point x="1071" y="-7"/>
      <point x="1089" y="-7" type="curve" smooth="yes"/>
      <point x="1181" y="-7"/>
      <point x="1247" y="59"/>
      <point x="1239" y="130" type="curve" smooth="yes"/>
      <point x="1232" y="189"/>
      <point x="1210" y="210"/>
      <point x="1143" y="264" type="curve"/>
      <point x="1212" y="274"/>
      <point x="1273" y="314"/>
      <point x="1253" y="384" type="curve" smooth="yes"/>
      <point x="1241" y="427"/>
      <point x="1187" y="450"/>
      <point x="1118" y="450" type="curve" smooth="yes"/>
      <point x="1038" y="450"/>
      <point x="983" y="389"/>
      <point x="990" y="331" type="curve" smooth="yes"/>
      <point x="992" y="314"/>
      <point x="995" y="303"/>
      <point x="999" y="292" type="curve"/>
    </contour>
    <component base="c_h_e"/>
  </outline>
</glyph>
<glyph name="c_q_u_e" format="2">
  <advance width="1070"/>
  <unicode hex="F1560"/>
  <outline>
    <contour>
      <point x="723" y="260" type="line"/>
      <point x="1070" y="260" type="line"/>
      <point x="1070" y="291" type="line"/>
      <point x="711" y="291" type="line"/>
      <point x="740" y="440" type="line"/>
      <point x="671" y="440" type="line"/>
      <point x="607" y="125" type="line"/>
      <point x="583" y="78"/>
      <point x="543" y="39"/>
      <point x="487" y="39" type="curve" smooth="yes"/>
      <point x="432" y="39"/>
      <point x="395" y="85"/>
      <point x="411" y="176" type="curve" smooth="yes"/>
      <point x="416" y="200" type="line"/>
      <point x="343" y="200" type="line"/>
      <point x="328" y="124" type="line"/>
      <point x="297" y="69"/>
      <point x="256" y="16"/>
      <point x="195" y="16" type="curve" smooth="yes"/>
      <point x="127" y="16"/>
      <point x="96" y="119"/>
      <point x="123" y="237" type="curve" smooth="yes"/>
      <point x="150" y="352"/>
      <point x="174" y="436"/>
      <point x="265" y="430" type="curve" smooth="yes"/>
      <point x="293" y="428"/>
      <point x="319" y="401"/>
      <point x="316" y="370" type="curve"/>
      <point x="310" y="351"/>
      <point x="313" y="339"/>
      <point x="318" y="330" type="curve" smooth="yes"/>
      <point x="329" y="310"/>
      <point x="352" y="299"/>
      <point x="373" y="308" type="curve" smooth="yes"/>
      <point x="399" y="319"/>
      <point x="411" y="353"/>
      <point x="397" y="386" type="curve" smooth="yes"/>
      <point x="383" y="419"/>
      <point x="319" y="448"/>
      <point x="268" y="450" type="curve" smooth="yes"/>
      <point x="149" y="455"/>
      <point x="67" y="372"/>
      <point x="38" y="247" type="curve" smooth="yes"/>
      <point x="9" y="122"/>
      <point x="63" y="-10"/>
      <point x="188" y="-10" type="curve" smooth="yes"/>
      <point x="231" y="-10"/>
      <point x="272" y="1"/>
      <point x="309" y="38" type="curve"/>
      <point x="266" y="-160" type="line"/>
      <point x="422" y="-160" type="line"/>
      <point x="422" y="-132" type="line"/>
      <point x="372" y="-132" type="line"/>
      <point x="353" y="-107" type="line"/>
      <point x="377" y="14" type="line"/>
      <point x="384" y="53" type="line"/>
      <point x="390" y="31"/>
      <point x="430" y="-10"/>
      <point x="481" y="-10" type="curve" smooth="yes"/>
      <point x="568" y="-10"/>
      <point x="607" y="57"/>
      <point x="631" y="108" type="curve"/>
      <point x="649" y="35"/>
      <point x="701" y="-10"/>
      <point x="782" y="-10" type="curve" smooth="yes"/>
      <point x="850" y="-10"/>
      <point x="910" y="18"/>
      <point x="964" y="129" type="curve"/>
      <point x="924" y="129" type="line"/>
      <point x="893" y="72"/>
      <point x="852" y="16"/>
      <point x="789" y="16" type="curve" smooth="yes"/>
      <point x="721" y="16"/>
      <point x="686" y="120"/>
      <point x="717" y="237" type="curve" smooth="yes"/>
    </contour>
  </outline>
</glyph>
<glyph name="D_E" format="2">
  <advance width="560"/>
  <unicode hex="F1610"/>
  <outline>
    <contour>
      <point x="89" y="247" type="line"/>
      <point x="169" y="247" type="line"/>
      <point x="178" y="289" type="line"/>
      <point x="207" y="311" type="line"/>
      <point x="306" y="311" type="line"/>
      <point x="328" y="292" type="line"/>
      <point x="328" y="262" type="line"/>
      <point x="356" y="262" type="line"/>
      <point x="383" y="394" type="line"/>
      <point x="355" y="394" type="line"/>
      <point x="346" y="366" type="line"/>
      <point x="324" y="347" type="line"/>
      <point x="215" y="347" type="line"/>
      <point x="196" y="369" type="line"/>
      <point x="208" y="428" type="line"/>
      <point x="126" y="427" type="line"/>
    </contour>
    <component base="D"/>
  </outline>
</glyph>
<glyph name="d_e" format="2">
  <advance width="787"/>
  <unicode hex="F1710"/>
  <outline>
    <contour>
      <point x="440" y="260" type="line"/>
      <point x="787" y="260" type="line"/>
      <point x="787" y="291" type="line"/>
      <point x="429" y="291" type="line"/>
      <point x="459" y="439" type="line"/>
      <point x="492" y="600" type="line"/>
      <point x="344" y="600" type="line"/>
      <point x="344" y="572" type="line"/>
      <point x="394" y="572" type="line"/>
      <point x="413" y="547" type="line"/>
      <point x="386" y="415" type="line"/>
      <point x="366" y="434"/>
      <point x="334" y="450"/>
      <point x="290" y="450" type="curve" smooth="yes"/>
      <point x="161" y="450"/>
      <point x="69" y="364"/>
      <point x="40" y="247" type="curve" smooth="yes"/>
      <point x="9" y="122"/>
      <point x="45" y="-10"/>
      <point x="170" y="-10" type="curve" smooth="yes"/>
      <point x="233" y="-10"/>
      <point x="266" y="21"/>
      <point x="348" y="118" type="curve"/>
      <point x="366" y="45"/>
      <point x="418" y="-10"/>
      <point x="499" y="-10" type="curve" smooth="yes"/>
      <point x="567" y="-10"/>
      <point x="627" y="18"/>
      <point x="681" y="129" type="curve"/>
      <point x="641" y="129" type="line"/>
      <point x="610" y="72"/>
      <point x="569" y="16"/>
      <point x="506" y="16" type="curve" smooth="yes"/>
      <point x="438" y="16"/>
      <point x="407" y="119"/>
      <point x="434" y="237" type="curve" smooth="yes"/>
    </contour>
    <contour>
      <point x="177" y="26" type="curve" smooth="yes"/>
      <point x="109" y="26"/>
      <point x="98" y="119"/>
      <point x="125" y="237" type="curve" smooth="yes"/>
      <point x="152" y="354"/>
      <point x="218" y="424"/>
      <point x="300" y="424" type="curve" smooth="yes"/>
      <point x="348" y="424"/>
      <point x="378" y="385"/>
      <point x="367" y="331" type="curve" smooth="yes"/>
      <point x="352" y="258" type="line"/>
      <point x="349" y="247" type="line" smooth="yes"/>
      <point x="346" y="236"/>
      <point x="344" y="225"/>
      <point x="343" y="215" type="curve"/>
      <point x="326" y="135" type="line"/>
      <point x="275" y="67"/>
      <point x="237" y="26"/>
    </contour>
  </outline>
</glyph>
<glyph name="d_u_d_e_l_a" format="2">
  <advance width="1507"/>
  <unicode hex="F1730"/>
  <outline>
    <contour>
      <point x="388" y="45" type="line"/>
      <point x="380" y="53" type="line"/>
      <point x="420" y="248" type="line"/>
      <point x="459" y="439" type="line"/>
      <point x="486" y="572" type="line"/>
      <point x="631" y="572" type="line"/>
      <point x="631" y="600" type="line"/>
      <point x="344" y="600" type="line"/>
      <point x="344" y="572" type="line"/>
      <point x="394" y="572" type="line"/>
      <point x="413" y="547" type="line"/>
      <point x="386" y="415" type="line"/>
      <point x="366" y="434"/>
      <point x="334" y="450"/>
      <point x="290" y="450" type="curve" smooth="yes"/>
      <point x="161" y="450"/>
      <point x="69" y="364"/>
      <point x="40" y="247" type="curve" smooth="yes"/>
      <point x="9" y="122"/>
      <point x="45" y="-10"/>
      <point x="170" y="-10" type="curve" smooth="yes"/>
      <point x="223" y="-10"/>
      <point x="268" y="24"/>
      <point x="315" y="82" type="curve"/>
      <point x="305" y="29"/>
      <point x="310" y="-10"/>
      <point x="354" y="-10" type="curve" smooth="yes"/>
      <point x="372" y="-10"/>
      <point x="386" y="4"/>
      <point x="418" y="39" type="curve" smooth="yes"/>
      <point x="489" y="117" type="line"/>
      <point x="456" y="117" type="line"/>
    </contour>
    <contour>
      <point x="1459" y="-53" type="line"/>
      <point x="1391" y="-125" type="line"/>
      <point x="1383" y="-117" type="line"/>
      <point x="1423" y="78" type="line"/>
      <point x="1462" y="270" type="line"/>
      <point x="1440" y="270" type="line"/>
      <point x="1408" y="217" type="line"/>
      <point x="1397" y="246"/>
      <point x="1357" y="280"/>
      <point x="1293" y="280" type="curve" smooth="yes"/>
      <point x="1164" y="280"/>
      <point x="1072" y="194"/>
      <point x="1043" y="77" type="curve" smooth="yes"/>
      <point x="1021" y="-13"/>
      <point x="1033" y="-107"/>
      <point x="1088" y="-152" type="curve"/>
      <point x="885" y="-152" type="line"/>
      <point x="867" y="-135" type="line"/>
      <point x="939" y="215" type="line"/>
      <point x="939" y="216" type="line"/>
      <point x="984" y="440" type="line"/>
      <point x="915" y="440" type="line"/>
      <point x="854" y="141" type="line"/>
      <point x="851" y="125" type="line"/>
      <point x="827" y="78"/>
      <point x="787" y="32"/>
      <point x="751" y="29" type="curve"/>
      <point x="696" y="29"/>
      <point x="669" y="85"/>
      <point x="685" y="176" type="curve" smooth="yes"/>
      <point x="720" y="350" type="line" smooth="yes"/>
      <point x="733" y="407"/>
      <point x="729" y="450"/>
      <point x="683" y="450" type="curve" smooth="yes"/>
      <point x="665" y="450"/>
      <point x="652" y="435"/>
      <point x="619" y="401" type="curve" smooth="yes"/>
      <point x="545" y="323" type="line"/>
      <point x="581" y="323" type="line"/>
      <point x="649" y="395" type="line"/>
      <point x="657" y="387" type="line"/>
      <point x="606" y="147" type="line" smooth="yes"/>
      <point x="590" y="70"/>
      <point x="625" y="-10"/>
      <point x="725" y="-10" type="curve" smooth="yes"/>
      <point x="785" y="-10"/>
      <point x="819" y="30"/>
      <point x="837" y="59" type="curve"/>
      <point x="808" y="-81" type="line" smooth="yes"/>
      <point x="796" y="-138"/>
      <point x="798" y="-180"/>
      <point x="844" y="-180" type="curve" smooth="yes"/>
      <point x="1171" y="-180" type="line"/>
      <point x="1173" y="-180" type="line" smooth="yes"/>
      <point x="1226" y="-180"/>
      <point x="1271" y="-146"/>
      <point x="1318" y="-88" type="curve"/>
      <point x="1308" y="-141"/>
      <point x="1313" y="-180"/>
      <point x="1357" y="-180" type="curve" smooth="yes"/>
      <point x="1375" y="-180"/>
      <point x="1389" y="-166"/>
      <point x="1421" y="-131" type="curve" smooth="yes"/>
      <point x="1492" y="-53" type="line"/>
    </contour>
    <contour>
      <point x="367" y="331" type="curve" smooth="yes"/>
      <point x="350" y="248" type="line"/>
      <point x="326" y="135" type="line"/>
      <point x="275" y="67"/>
      <point x="237" y="26"/>
      <point x="177" y="26" type="curve" smooth="yes"/>
      <point x="109" y="26"/>
      <point x="98" y="119"/>
      <point x="125" y="237" type="curve" smooth="yes"/>
      <point x="152" y="354"/>
      <point x="218" y="424"/>
      <point x="300" y="424" type="curve" smooth="yes"/>
      <point x="348" y="424"/>
      <point x="378" y="385"/>
    </contour>
    <contour>
      <point x="1370" y="161" type="curve" smooth="yes"/>
      <point x="1353" y="78" type="line"/>
      <point x="1329" y="-35" type="line"/>
      <point x="1278" y="-103"/>
      <point x="1240" y="-144"/>
      <point x="1180" y="-144" type="curve" smooth="yes"/>
      <point x="1112" y="-144"/>
      <point x="1101" y="-51"/>
      <point x="1128" y="67" type="curve" smooth="yes"/>
      <point x="1155" y="184"/>
      <point x="1221" y="254"/>
      <point x="1303" y="254" type="curve" smooth="yes"/>
      <point x="1351" y="254"/>
      <point x="1381" y="215"/>
    </contour>
    <component base="inclusive_e.001" xOffset="579" yOffset="312" identifier="FCFB3C5B"/>
  </outline>
</glyph>
<glyph name="E_A_U" format="2">
  <advance width="1255"/>
  <unicode hex="F1810"/>
  <outline>
    <contour>
      <point x="396" y="315" type="line"/>
      <point x="407" y="351" type="line"/>
      <point x="173" y="351" type="line"/>
      <point x="151" y="370" type="line"/>
      <point x="151" y="400" type="line"/>
      <point x="123" y="400" type="line"/>
      <point x="96" y="268" type="line"/>
      <point x="124" y="268" type="line"/>
      <point x="133" y="296" type="line"/>
      <point x="155" y="315" type="line"/>
    </contour>
    <contour>
      <point x="535" y="562" type="line"/>
      <point x="548" y="600" type="line"/>
      <point x="156" y="600" type="line"/>
      <point x="134" y="495" type="line"/>
      <point x="162" y="495" type="line"/>
      <point x="172" y="543" type="line"/>
      <point x="194" y="562" type="line"/>
    </contour>
    <contour>
      <point x="241" y="0" type="line"/>
      <point x="241" y="38" type="line"/>
      <point x="120" y="38" type="line"/>
      <point x="98" y="57" type="line"/>
      <point x="89" y="103" type="line"/>
      <point x="61" y="103" type="line"/>
      <point x="40" y="0" type="line"/>
    </contour>
    <component base="A" xOffset="214"/>
    <component base="U" xOffset="674"/>
  </outline>
</glyph>
<glyph name="Eacute_E" format="2">
  <advance width="662"/>
  <unicode hex="F1820"/>
  <outline>
    <contour>
      <point x="322" y="662" type="line"/>
      <point x="399" y="663"/>
      <point x="444" y="696"/>
      <point x="459" y="743" type="curve" smooth="yes"/>
      <point x="473" y="786"/>
      <point x="453" y="823"/>
      <point x="423" y="833" type="curve" smooth="yes"/>
      <point x="398" y="841"/>
      <point x="374" y="828"/>
      <point x="367" y="806" type="curve" smooth="yes"/>
      <point x="359" y="782"/>
      <point x="369" y="763"/>
      <point x="391" y="757" type="curve" smooth="yes"/>
      <point x="395" y="756"/>
      <point x="400" y="756"/>
      <point x="404" y="757" type="curve" smooth="yes"/>
      <point x="415" y="760"/>
      <point x="421" y="760"/>
      <point x="424" y="759" type="curve" smooth="yes"/>
      <point x="426" y="758"/>
      <point x="427" y="757"/>
      <point x="427" y="754" type="curve" smooth="yes"/>
      <point x="427" y="750"/>
      <point x="427" y="746"/>
      <point x="427" y="742" type="curve" smooth="yes"/>
      <point x="427" y="703"/>
      <point x="377" y="679"/>
      <point x="326" y="677" type="curve"/>
    </contour>
    <contour>
      <point x="102" y="495" type="line"/>
      <point x="112" y="543" type="line"/>
      <point x="134" y="562" type="line"/>
      <point x="308" y="562" type="line"/>
      <point x="337" y="540" type="line"/>
      <point x="301" y="373" type="line"/>
      <point x="272" y="351" type="line"/>
      <point x="113" y="351" type="line"/>
      <point x="91" y="370" type="line"/>
      <point x="91" y="400" type="line"/>
      <point x="63" y="400" type="line"/>
      <point x="36" y="268" type="line"/>
      <point x="64" y="268" type="line"/>
      <point x="73" y="296" type="line"/>
      <point x="95" y="315" type="line"/>
      <point x="264" y="315" type="line"/>
      <point x="283" y="293" type="line"/>
      <point x="236" y="60" type="line"/>
      <point x="207" y="38" type="line"/>
      <point x="60" y="38" type="line"/>
      <point x="38" y="57" type="line"/>
      <point x="29" y="103" type="line"/>
      <point x="1" y="103" type="line"/>
      <point x="-20" y="0" type="line"/>
      <point x="305" y="0" type="line"/>
      <point x="423" y="572" type="line"/>
      <point x="488" y="572" type="line"/>
      <point x="488" y="600" type="line"/>
      <point x="96" y="600" type="line"/>
      <point x="74" y="495" type="line"/>
    </contour>
    <component base="E" xOffset="184"/>
  </outline>
</glyph>
<glyph name="E_T_T_E" format="2">
  <advance width="1658"/>
  <unicode hex="F1880"/>
  <outline>
    <contour>
      <point x="366" y="105" type="line"/>
      <point x="356" y="57" type="line"/>
      <point x="334" y="38" type="line"/>
      <point x="160" y="38" type="line"/>
      <point x="131" y="60" type="line"/>
      <point x="179" y="289" type="line"/>
      <point x="208" y="311" type="line"/>
      <point x="367" y="311" type="line"/>
      <point x="389" y="292" type="line"/>
      <point x="389" y="262" type="line"/>
      <point x="417" y="262" type="line"/>
      <point x="444" y="394" type="line"/>
      <point x="416" y="394" type="line"/>
      <point x="407" y="366" type="line"/>
      <point x="385" y="347" type="line"/>
      <point x="216" y="347" type="line"/>
      <point x="197" y="369" type="line"/>
      <point x="232" y="540" type="line"/>
      <point x="261" y="562" type="line"/>
      <point x="408" y="562" type="line"/>
      <point x="426" y="547" type="line"/>
      <point x="432" y="533" type="line"/>
      <point x="439" y="497" type="line"/>
      <point x="467" y="497" type="line"/>
      <point x="480" y="559" type="line"/>
      <point x="483" y="563" type="line"/>
      <point x="640" y="563" type="line"/>
      <point x="659" y="541" type="line"/>
      <point x="608" y="303" type="line"/>
      <point x="544" y="303" type="line"/>
      <point x="544" y="275" type="line"/>
      <point x="762" y="275" type="line"/>
      <point x="762" y="303" type="line"/>
      <point x="714" y="303" type="line"/>
      <point x="695" y="325" type="line"/>
      <point x="741" y="541" type="line"/>
      <point x="760" y="563" type="line"/>
      <point x="1024" y="563" type="line"/>
      <point x="1043" y="541" type="line"/>
      <point x="992" y="303" type="line"/>
      <point x="928" y="303" type="line"/>
      <point x="928" y="275" type="line"/>
      <point x="1146" y="275" type="line"/>
      <point x="1146" y="303" type="line"/>
      <point x="1098" y="303" type="line"/>
      <point x="1079" y="325" type="line"/>
      <point x="1125" y="541" type="line"/>
      <point x="1144" y="563" type="line"/>
      <point x="1299" y="563" type="line"/>
      <point x="1315" y="545" type="line"/>
      <point x="1315" y="500" type="line"/>
      <point x="1314" y="495" type="line"/>
      <point x="1342" y="495" type="line"/>
      <point x="1350" y="532" type="line"/>
      <point x="1356" y="547" type="line"/>
      <point x="1374" y="562" type="line"/>
      <point x="1548" y="562" type="line"/>
      <point x="1577" y="540" type="line"/>
      <point x="1541" y="373" type="line"/>
      <point x="1512" y="351" type="line"/>
      <point x="1353" y="351" type="line"/>
      <point x="1331" y="370" type="line"/>
      <point x="1331" y="400" type="line"/>
      <point x="1303" y="400" type="line"/>
      <point x="1276" y="268" type="line"/>
      <point x="1304" y="268" type="line"/>
      <point x="1313" y="296" type="line"/>
      <point x="1335" y="315" type="line"/>
      <point x="1504" y="315" type="line"/>
      <point x="1523" y="293" type="line"/>
      <point x="1476" y="60" type="line"/>
      <point x="1447" y="38" type="line"/>
      <point x="1300" y="38" type="line"/>
      <point x="1278" y="57" type="line"/>
      <point x="1269" y="103" type="line"/>
      <point x="1241" y="103" type="line"/>
      <point x="1220" y="0" type="line"/>
      <point x="1545" y="0" type="line"/>
      <point x="1663" y="572" type="line"/>
      <point x="1668" y="600" type="line"/>
      <point x="163" y="600" type="line"/>
      <point x="45" y="28" type="line"/>
      <point x="-20" y="28" type="line"/>
      <point x="-20" y="0" type="line"/>
      <point x="372" y="0" type="line"/>
      <point x="394" y="105" type="line"/>
    </contour>
  </outline>
</glyph>
<glyph name="Ecircumflex_T_E" format="2">
  <advance width="866"/>
  <unicode hex="F1890"/>
  <outline>
    <contour>
      <point x="366" y="105" type="line"/>
      <point x="356" y="57" type="line"/>
      <point x="334" y="38" type="line"/>
      <point x="160" y="38" type="line"/>
      <point x="131" y="60" type="line"/>
      <point x="179" y="289" type="line"/>
      <point x="208" y="311" type="line"/>
      <point x="367" y="311" type="line"/>
      <point x="389" y="292" type="line"/>
      <point x="389" y="262" type="line"/>
      <point x="417" y="262" type="line"/>
      <point x="444" y="394" type="line"/>
      <point x="416" y="394" type="line"/>
      <point x="407" y="366" type="line"/>
      <point x="385" y="347" type="line"/>
      <point x="216" y="347" type="line"/>
      <point x="197" y="369" type="line"/>
      <point x="244" y="600" type="line"/>
      <point x="163" y="600" type="line"/>
      <point x="45" y="28" type="line"/>
      <point x="-20" y="28" type="line"/>
      <point x="-20" y="0" type="line"/>
      <point x="372" y="0" type="line"/>
      <point x="394" y="105" type="line"/>
    </contour>
    <contour>
      <point x="692" y="296" type="line"/>
      <point x="709" y="309" type="line"/>
      <point x="796" y="309" type="line"/>
      <point x="818" y="290" type="line"/>
      <point x="827" y="244" type="line"/>
      <point x="855" y="244" type="line"/>
      <point x="876" y="347" type="line"/>
      <point x="346" y="347" type="line"/>
      <point x="427" y="310" type="line"/>
      <point x="584" y="310" type="line"/>
      <point x="603" y="288" type="line"/>
      <point x="504" y="-152" type="line"/>
      <point x="440" y="-152" type="line"/>
      <point x="440" y="-180" type="line"/>
      <point x="773" y="-180" type="line"/>
      <point x="795" y="-75" type="line"/>
      <point x="767" y="-75" type="line"/>
      <point x="757" y="-123" type="line"/>
      <point x="735" y="-142" type="line"/>
      <point x="621" y="-142" type="line"/>
      <point x="593" y="-121" type="line"/>
      <point x="631" y="39" type="line"/>
      <point x="656" y="58" type="line"/>
      <point x="755" y="58" type="line"/>
      <point x="777" y="39" type="line"/>
      <point x="777" y="9" type="line"/>
      <point x="805" y="9" type="line"/>
      <point x="832" y="141" type="line"/>
      <point x="804" y="141" type="line"/>
      <point x="795" y="113" type="line"/>
      <point x="773" y="94" type="line"/>
      <point x="664" y="94" type="line"/>
      <point x="647" y="114" type="line"/>
      <point x="685" y="288" type="line"/>
    </contour>
    <component base="circumflexcomb" xOffset="280"/>
  </outline>
</glyph>
<glyph name="E_U" format="2">
  <advance width="1059"/>
  <unicode hex="F18A0"/>
  <outline>
    <contour>
      <point x="366" y="105" type="line"/>
      <point x="356" y="57" type="line"/>
      <point x="334" y="38" type="line"/>
      <point x="160" y="38" type="line"/>
      <point x="131" y="60" type="line"/>
      <point x="179" y="289" type="line"/>
      <point x="208" y="311" type="line"/>
      <point x="557" y="311" type="line"/>
      <point x="579" y="292" type="line"/>
      <point x="579" y="262" type="line"/>
      <point x="607" y="262" type="line"/>
      <point x="575" y="347" type="line"/>
      <point x="216" y="347" type="line"/>
      <point x="197" y="369" type="line"/>
      <point x="232" y="540" type="line"/>
      <point x="261" y="562" type="line"/>
      <point x="408" y="562" type="line"/>
      <point x="430" y="543" type="line"/>
      <point x="439" y="497" type="line"/>
      <point x="467" y="497" type="line"/>
      <point x="488" y="600" type="line"/>
      <point x="163" y="600" type="line"/>
      <point x="45" y="28" type="line"/>
      <point x="-20" y="28" type="line"/>
      <point x="-20" y="0" type="line"/>
      <point x="372" y="0" type="line"/>
      <point x="394" y="105" type="line"/>
    </contour>
    <contour>
      <point x="925" y="600" type="line"/>
      <point x="925" y="572" type="line"/>
      <point x="975" y="572" type="line"/>
      <point x="994" y="550" type="line"/>
      <point x="924" y="229" type="line" smooth="yes"/>
      <point x="893" y="88"/>
      <point x="829" y="39"/>
      <point x="745" y="38" type="curve" smooth="yes"/>
      <point x="651" y="37"/>
      <point x="589" y="78"/>
      <point x="615" y="198" type="curve" smooth="yes"/>
      <point x="647" y="347" type="line"/>
      <point x="557" y="347" type="line"/>
      <point x="525" y="206" type="line" smooth="yes"/>
      <point x="488" y="41"/>
      <point x="592" y="-9"/>
      <point x="726" y="-10" type="curve" smooth="yes"/>
      <point x="882" y="-11"/>
      <point x="946" y="70"/>
      <point x="984" y="243" type="curve" smooth="yes"/>
      <point x="1052" y="550" type="line"/>
      <point x="1071" y="572" type="line"/>
      <point x="1119" y="572" type="line"/>
      <point x="1119" y="600" type="line"/>
    </contour>
  </outline>
</glyph>
<glyph name="E_S_S_E" format="2">
  <advance width="1770"/>
  <unicode hex="F18C0"/>
  <outline>
    <contour>
      <point x="873" y="272" type="curve"/>
      <point x="891" y="366" type="line"/>
      <point x="881" y="366" type="line"/>
      <point x="853" y="413"/>
      <point x="813" y="427"/>
      <point x="732" y="430" type="curve" smooth="yes"/>
      <point x="624" y="434"/>
      <point x="555" y="344"/>
      <point x="559" y="277" type="curve" smooth="yes"/>
      <point x="564" y="187"/>
      <point x="615" y="153"/>
      <point x="689" y="101" type="curve" smooth="yes"/>
      <point x="769" y="45"/>
      <point x="813" y="12"/>
      <point x="802" y="-55" type="curve" smooth="yes"/>
      <point x="793" y="-108"/>
      <point x="767" y="-167"/>
      <point x="699" y="-165" type="curve" smooth="yes"/>
      <point x="591" y="-163"/>
      <point x="553" y="-54"/>
      <point x="566" y="46" type="curve"/>
      <point x="535" y="46" type="line"/>
      <point x="498" y="-149" type="line"/>
      <point x="525" y="-149" type="line"/>
      <point x="530" y="-129" type="line"/>
      <point x="553" y="-130" type="line"/>
      <point x="572" y="-148"/>
      <point x="634" y="-185"/>
      <point x="681" y="-189" type="curve" smooth="yes"/>
      <point x="792" y="-198"/>
      <point x="860" y="-142"/>
      <point x="880" y="-57" type="curve" smooth="yes"/>
      <point x="900" y="30"/>
      <point x="855" y="94"/>
      <point x="748" y="167" type="curve" smooth="yes"/>
      <point x="656" y="230"/>
      <point x="646" y="253"/>
      <point x="646" y="316" type="curve" smooth="yes"/>
      <point x="646" y="361"/>
      <point x="679" y="405"/>
      <point x="732" y="405" type="curve" smooth="yes"/>
      <point x="807" y="405"/>
      <point x="859" y="345"/>
    </contour>
    <contour>
      <point x="1394" y="495" type="line"/>
      <point x="1404" y="543" type="line"/>
      <point x="1426" y="562" type="line"/>
      <point x="1600" y="562" type="line"/>
      <point x="1629" y="540" type="line"/>
      <point x="1593" y="373" type="line"/>
      <point x="1564" y="351" type="line"/>
      <point x="1405" y="351" type="line"/>
      <point x="1383" y="370" type="line"/>
      <point x="1383" y="400" type="line"/>
      <point x="1355" y="400" type="line"/>
      <point x="1328" y="268" type="line"/>
      <point x="1356" y="268" type="line"/>
      <point x="1365" y="296" type="line"/>
      <point x="1387" y="315" type="line"/>
      <point x="1556" y="315" type="line"/>
      <point x="1575" y="293" type="line"/>
      <point x="1528" y="60" type="line"/>
      <point x="1499" y="38" type="line"/>
      <point x="1352" y="38" type="line"/>
      <point x="1330" y="57" type="line"/>
      <point x="1321" y="103" type="line"/>
      <point x="1293" y="103" type="line"/>
      <point x="1272" y="0" type="line"/>
      <point x="1597" y="0" type="line"/>
      <point x="1715" y="572" type="line"/>
      <point x="1780" y="572" type="line"/>
      <point x="1780" y="600" type="line"/>
      <point x="1388" y="600" type="line"/>
      <point x="1366" y="495" type="line"/>
    </contour>
    <contour>
      <point x="859" y="-39" type="curve"/>
      <point x="826" y="-129" type="line"/>
      <point x="844" y="-130" type="line"/>
      <point x="863" y="-148"/>
      <point x="925" y="-185"/>
      <point x="972" y="-189" type="curve" smooth="yes"/>
      <point x="1083" y="-198"/>
      <point x="1151" y="-142"/>
      <point x="1171" y="-57" type="curve" smooth="yes"/>
      <point x="1191" y="30"/>
      <point x="1146" y="94"/>
      <point x="1039" y="167" type="curve" smooth="yes"/>
      <point x="947" y="230"/>
      <point x="937" y="253"/>
      <point x="937" y="316" type="curve" smooth="yes"/>
      <point x="937" y="361"/>
      <point x="970" y="405"/>
      <point x="1023" y="405" type="curve" smooth="yes"/>
      <point x="1119" y="405"/>
      <point x="1176" y="307"/>
      <point x="1167" y="210" type="curve"/>
      <point x="1197" y="210" type="line"/>
      <point x="1231" y="395" type="line"/>
      <point x="1205" y="395" type="line"/>
      <point x="1198" y="366" type="line"/>
      <point x="1172" y="366" type="line"/>
      <point x="1144" y="413"/>
      <point x="1104" y="427"/>
      <point x="1023" y="430" type="curve" smooth="yes"/>
      <point x="915" y="434"/>
      <point x="846" y="344"/>
      <point x="850" y="277" type="curve" smooth="yes"/>
      <point x="855" y="187"/>
      <point x="906" y="153"/>
      <point x="980" y="101" type="curve" smooth="yes"/>
      <point x="1060" y="45"/>
      <point x="1104" y="12"/>
      <point x="1093" y="-55" type="curve" smooth="yes"/>
      <point x="1084" y="-108"/>
      <point x="1058" y="-167"/>
      <point x="990" y="-165" type="curve" smooth="yes"/>
      <point x="913" y="-164"/>
      <point x="872" y="-108"/>
    </contour>
    <component base="E" identifier="BCE7F46B"/>
  </outline>
</glyph>
<glyph name="e_a_u" format="2">
  <advance width="1088"/>
  <unicode hex="F1910"/>
  <outline>
    <contour>
      <point x="506" y="-10" type="curve" smooth="yes"/>
      <point x="592" y="-10"/>
      <point x="601" y="40"/>
      <point x="663" y="87" type="curve"/>
      <point x="672" y="33"/>
      <point x="710" y="-10"/>
      <point x="784" y="-10" type="curve" smooth="yes"/>
      <point x="846" y="-10"/>
      <point x="877" y="33"/>
      <point x="895" y="62" type="curve"/>
      <point x="890" y="19"/>
      <point x="899" y="-10"/>
      <point x="937" y="-10" type="curve" smooth="yes"/>
      <point x="955" y="-10"/>
      <point x="969" y="4"/>
      <point x="1001" y="39" type="curve" smooth="yes"/>
      <point x="1073" y="117" type="line"/>
      <point x="1039" y="117" type="line"/>
      <point x="971" y="45" type="line"/>
      <point x="963" y="53" type="line"/>
      <point x="1040" y="440" type="line"/>
      <point x="971" y="440" type="line"/>
      <point x="907" y="125" type="line"/>
      <point x="883" y="78"/>
      <point x="843" y="32"/>
      <point x="807" y="29" type="curve"/>
      <point x="753" y="29"/>
      <point x="726" y="83"/>
      <point x="740" y="171" type="curve" smooth="yes"/>
      <point x="756" y="248" type="line"/>
      <point x="795" y="440" type="line"/>
      <point x="773" y="440" type="line"/>
      <point x="741" y="387" type="line"/>
      <point x="730" y="416"/>
      <point x="690" y="450"/>
      <point x="626" y="450" type="curve" smooth="yes"/>
      <point x="497" y="450"/>
      <point x="405" y="364"/>
      <point x="376" y="247" type="curve" smooth="yes"/>
      <point x="345" y="122"/>
      <point x="381" y="-10"/>
    </contour>
    <contour>
      <point x="662" y="135" type="line"/>
      <point x="611" y="67"/>
      <point x="573" y="26"/>
      <point x="513" y="26" type="curve" smooth="yes"/>
      <point x="445" y="26"/>
      <point x="434" y="119"/>
      <point x="461" y="237" type="curve" smooth="yes"/>
      <point x="488" y="354"/>
      <point x="554" y="424"/>
      <point x="636" y="424" type="curve" smooth="yes"/>
      <point x="684" y="424"/>
      <point x="714" y="385"/>
      <point x="703" y="331" type="curve" smooth="yes"/>
      <point x="686" y="248" type="line"/>
    </contour>
    <component base="e" xScale="-1" yScale="-1" xOffset="476" yOffset="441"/>
  </outline>
</glyph>
<glyph name="eacute_e" format="2">
  <advance width="718"/>
  <unicode hex="F1920"/>
  <outline>
    <contour>
      <point x="129" y="260" type="line"/>
      <point x="718" y="259" type="line"/>
      <point x="718" y="291" type="line"/>
      <point x="681" y="291" type="line"/>
      <point x="672" y="379"/>
      <point x="617" y="451"/>
      <point x="524" y="451" type="curve" smooth="yes"/>
      <point x="473" y="451"/>
      <point x="427" y="435"/>
      <point x="389" y="407" type="curve"/>
      <point x="363" y="434"/>
      <point x="327" y="451"/>
      <point x="282" y="451" type="curve" smooth="yes"/>
      <point x="265" y="451"/>
      <point x="248" y="449"/>
      <point x="231" y="446" type="curve" smooth="yes"/>
      <point x="138" y="427"/>
      <point x="65" y="351"/>
      <point x="38" y="247" type="curve" smooth="yes"/>
      <point x="7" y="122"/>
      <point x="63" y="-10"/>
      <point x="188" y="-10" type="curve" smooth="yes"/>
      <point x="256" y="-10"/>
      <point x="316" y="18"/>
      <point x="370" y="129" type="curve"/>
      <point x="330" y="129" type="line"/>
      <point x="299" y="72"/>
      <point x="258" y="16"/>
      <point x="195" y="16" type="curve" smooth="yes"/>
      <point x="127" y="16"/>
      <point x="96" y="119"/>
      <point x="123" y="237" type="curve" smooth="yes"/>
    </contour>
    <contour>
      <point x="235" y="422" type="curve" smooth="yes"/>
      <point x="247" y="427"/>
      <point x="260" y="429"/>
      <point x="275" y="429" type="curve" smooth="yes"/>
      <point x="308" y="429"/>
      <point x="332" y="405"/>
      <point x="345" y="367" type="curve"/>
      <point x="326" y="345"/>
      <point x="309" y="319"/>
      <point x="297" y="291" type="curve"/>
      <point x="138" y="291" type="line"/>
      <point x="159" y="356"/>
      <point x="189" y="404"/>
    </contour>
    <contour>
      <point x="517" y="429" type="curve" smooth="yes"/>
      <point x="568" y="429"/>
      <point x="598" y="370"/>
      <point x="599" y="291" type="curve"/>
      <point x="380" y="291" type="line"/>
      <point x="404" y="365"/>
      <point x="443" y="429"/>
    </contour>
    <component base="acute" xOffset="300" identifier="0BCFB915"/>
  </outline>
</glyph>
<glyph name="eacute_e.ss01" format="2">
  <advance width="924"/>
  <unicode hex="F1921"/>
  <outline>
    <contour>
      <point x="129" y="260" type="line"/>
      <point x="676" y="260" type="line"/>
      <point x="676" y="291" type="line"/>
      <point x="439" y="291" type="line"/>
      <point x="430" y="379"/>
      <point x="375" y="451"/>
      <point x="282" y="451" type="curve" smooth="yes"/>
      <point x="265" y="451"/>
      <point x="248" y="449"/>
      <point x="231" y="446" type="curve" smooth="yes"/>
      <point x="138" y="427"/>
      <point x="65" y="351"/>
      <point x="38" y="247" type="curve" smooth="yes"/>
      <point x="7" y="122"/>
      <point x="63" y="-10"/>
      <point x="188" y="-10" type="curve" smooth="yes"/>
      <point x="256" y="-10"/>
      <point x="316" y="18"/>
      <point x="370" y="129" type="curve"/>
      <point x="330" y="129" type="line"/>
      <point x="299" y="72"/>
      <point x="258" y="16"/>
      <point x="195" y="16" type="curve" smooth="yes"/>
      <point x="127" y="16"/>
      <point x="92" y="120"/>
      <point x="123" y="237" type="curve" smooth="yes"/>
    </contour>
    <contour>
      <point x="235" y="422" type="curve" smooth="yes"/>
      <point x="247" y="427"/>
      <point x="260" y="429"/>
      <point x="275" y="429" type="curve" smooth="yes"/>
      <point x="326" y="429"/>
      <point x="356" y="370"/>
      <point x="357" y="291" type="curve"/>
      <point x="138" y="291" type="line"/>
      <point x="159" y="356"/>
      <point x="189" y="404"/>
    </contour>
    <component base="acute" xOffset="211" identifier="4DBEA59E"/>
    <component base="inclusive_e" xOffset="448" identifier="F059DB98"/>
  </outline>
</glyph>
<glyph name="e_t" format="2">
  <advance width="804"/>
  <unicode hex="F1960"/>
  <outline>
    <contour>
      <point x="585" y="121" type="line"/>
      <point x="613" y="258" type="line"/>
      <point x="732" y="260"/>
      <point x="780" y="280"/>
      <point x="788" y="339" type="curve" smooth="yes"/>
      <point x="796" y="400"/>
      <point x="769" y="440"/>
      <point x="649" y="439" type="curve"/>
      <point x="664" y="514" type="line"/>
      <point x="511" y="407" type="line"/>
      <point x="573" y="407" type="line"/>
      <point x="550" y="290" type="line"/>
      <point x="476" y="291" type="line"/>
      <point x="476" y="260" type="line"/>
      <point x="543" y="260" type="line"/>
      <point x="515" y="124" type="line"/>
      <point x="513" y="115" type="line"/>
      <point x="507" y="89" type="line" smooth="yes"/>
      <point x="494" y="32"/>
      <point x="498" y="-10"/>
      <point x="544" y="-10" type="curve" smooth="yes"/>
      <point x="562" y="-10"/>
      <point x="576" y="3"/>
      <point x="608" y="38" type="curve" smooth="yes"/>
      <point x="680" y="116" type="line"/>
      <point x="646" y="116" type="line"/>
      <point x="578" y="44" type="line"/>
      <point x="570" y="52" type="line"/>
      <point x="581" y="105" type="line"/>
    </contour>
    <contour>
      <point x="643" y="407" type="line"/>
      <point x="708" y="410"/>
      <point x="763" y="403"/>
      <point x="752" y="343" type="curve" smooth="yes"/>
      <point x="744" y="301"/>
      <point x="699" y="291"/>
      <point x="620" y="289" type="curve"/>
    </contour>
    <component base="e"/>
  </outline>
</glyph>
<glyph name="e_t_t_e" format="2">
  <advance width="1366"/>
  <unicode hex="F1980"/>
  <outline>
    <contour>
      <point x="129" y="260" type="line"/>
      <point x="476" y="260" type="line"/>
      <point x="476" y="291" type="line"/>
      <point x="439" y="291" type="line"/>
      <point x="430" y="379"/>
      <point x="375" y="451"/>
      <point x="282" y="451" type="curve" smooth="yes"/>
      <point x="265" y="451"/>
      <point x="248" y="449"/>
      <point x="231" y="446" type="curve" smooth="yes"/>
      <point x="138" y="427"/>
      <point x="65" y="351"/>
      <point x="38" y="247" type="curve" smooth="yes"/>
      <point x="7" y="122"/>
      <point x="63" y="-10"/>
      <point x="188" y="-10" type="curve" smooth="yes"/>
      <point x="256" y="-10"/>
      <point x="316" y="18"/>
      <point x="370" y="129" type="curve"/>
      <point x="330" y="129" type="line"/>
      <point x="299" y="72"/>
      <point x="258" y="16"/>
      <point x="195" y="16" type="curve" smooth="yes"/>
      <point x="127" y="16"/>
      <point x="96" y="119"/>
      <point x="123" y="237" type="curve" smooth="yes"/>
    </contour>
    <contour>
      <point x="235" y="422" type="curve" smooth="yes"/>
      <point x="247" y="427"/>
      <point x="260" y="429"/>
      <point x="275" y="429" type="curve" smooth="yes"/>
      <point x="326" y="429"/>
      <point x="356" y="370"/>
      <point x="357" y="291" type="curve"/>
      <point x="138" y="291" type="line"/>
      <point x="159" y="356"/>
      <point x="189" y="404"/>
    </contour>
    <contour>
      <point x="564" y="243" type="line"/>
      <point x="567" y="258" type="line"/>
      <point x="686" y="260"/>
      <point x="734" y="280"/>
      <point x="742" y="339" type="curve" smooth="yes"/>
      <point x="750" y="400"/>
      <point x="723" y="440"/>
      <point x="603" y="439" type="curve"/>
      <point x="618" y="514" type="line"/>
      <point x="465" y="407" type="line"/>
      <point x="527" y="407" type="line"/>
      <point x="504" y="290" type="line"/>
      <point x="430" y="291" type="line"/>
      <point x="430" y="260" type="line"/>
      <point x="497" y="260" type="line"/>
      <point x="494" y="246" type="line"/>
      <point x="492" y="237" type="line"/>
      <point x="486" y="211" type="line" smooth="yes"/>
      <point x="473" y="154"/>
      <point x="477" y="112"/>
      <point x="523" y="112" type="curve" smooth="yes"/>
      <point x="541" y="112"/>
      <point x="555" y="125"/>
      <point x="587" y="160" type="curve" smooth="yes"/>
      <point x="637" y="214" type="line"/>
      <point x="603" y="214" type="line"/>
      <point x="557" y="166" type="line"/>
      <point x="549" y="174" type="line"/>
      <point x="560" y="227" type="line"/>
    </contour>
    <contour>
      <point x="597" y="407" type="line"/>
      <point x="662" y="410"/>
      <point x="717" y="403"/>
      <point x="706" y="343" type="curve" smooth="yes"/>
      <point x="698" y="301"/>
      <point x="653" y="291"/>
      <point x="574" y="289" type="curve"/>
    </contour>
    <contour>
      <point x="808" y="407" type="line"/>
      <point x="880" y="407" type="line"/>
      <point x="958" y="407" type="line"/>
      <point x="958" y="439" type="line"/>
      <point x="884" y="439" type="line"/>
      <point x="899" y="514" type="line"/>
      <point x="746" y="407" type="line"/>
    </contour>
    <contour>
      <point x="881" y="422" type="line"/>
      <point x="811" y="422" type="line"/>
      <point x="775" y="246" type="line"/>
      <point x="773" y="237" type="line"/>
      <point x="767" y="211" type="line" smooth="yes"/>
      <point x="754" y="154"/>
      <point x="758" y="112"/>
      <point x="804" y="112" type="curve" smooth="yes"/>
      <point x="822" y="112"/>
      <point x="836" y="125"/>
      <point x="868" y="160" type="curve" smooth="yes"/>
      <point x="918" y="214" type="line"/>
      <point x="884" y="214" type="line"/>
      <point x="838" y="166" type="line"/>
      <point x="830" y="174" type="line"/>
      <point x="841" y="227" type="line"/>
      <point x="845" y="243" type="line"/>
    </contour>
    <component base="inclusive_e.001" xOffset="903" yOffset="147" identifier="4947E2C0"/>
  </outline>
</glyph>
<glyph name="ecircumflex_t_e" format="2">
  <advance width="1175"/>
  <unicode hex="F1990"/>
  <outline>
    <contour>
      <point x="129" y="260" type="line"/>
      <point x="587" y="260" type="line"/>
      <point x="559" y="124" type="line"/>
      <point x="557" y="115" type="line"/>
      <point x="551" y="89" type="line" smooth="yes"/>
      <point x="538" y="32"/>
      <point x="542" y="-10"/>
      <point x="588" y="-10" type="curve" smooth="yes"/>
      <point x="606" y="-10"/>
      <point x="620" y="3"/>
      <point x="652" y="38" type="curve" smooth="yes"/>
      <point x="724" y="116" type="line"/>
      <point x="690" y="116" type="line"/>
      <point x="622" y="44" type="line"/>
      <point x="614" y="52" type="line"/>
      <point x="625" y="105" type="line"/>
      <point x="629" y="121" type="line"/>
      <point x="687" y="407" type="line"/>
      <point x="1175" y="406" type="line"/>
      <point x="1175" y="438" type="line"/>
      <point x="1138" y="438" type="line"/>
      <point x="1129" y="526"/>
      <point x="1074" y="598"/>
      <point x="981" y="598" type="curve" smooth="yes"/>
      <point x="878" y="598"/>
      <point x="795" y="531"/>
      <point x="754" y="439" type="curve"/>
      <point x="693" y="439" type="line"/>
      <point x="708" y="514" type="line"/>
      <point x="555" y="407" type="line"/>
      <point x="617" y="407" type="line"/>
      <point x="593" y="291" type="line"/>
      <point x="439" y="291" type="line"/>
      <point x="430" y="379"/>
      <point x="375" y="451"/>
      <point x="282" y="451" type="curve" smooth="yes"/>
      <point x="265" y="451"/>
      <point x="248" y="449"/>
      <point x="231" y="446" type="curve" smooth="yes"/>
      <point x="138" y="427"/>
      <point x="65" y="351"/>
      <point x="38" y="247" type="curve" smooth="yes"/>
      <point x="7" y="122"/>
      <point x="63" y="-10"/>
      <point x="188" y="-10" type="curve" smooth="yes"/>
      <point x="256" y="-10"/>
      <point x="316" y="18"/>
      <point x="370" y="129" type="curve"/>
      <point x="330" y="129" type="line"/>
      <point x="299" y="72"/>
      <point x="258" y="16"/>
      <point x="195" y="16" type="curve" smooth="yes"/>
      <point x="127" y="16"/>
      <point x="92" y="120"/>
      <point x="123" y="237" type="curve" smooth="yes"/>
    </contour>
    <contour>
      <point x="138" y="291" type="line"/>
      <point x="159" y="356"/>
      <point x="189" y="404"/>
      <point x="235" y="422" type="curve" smooth="yes"/>
      <point x="247" y="427"/>
      <point x="260" y="429"/>
      <point x="275" y="429" type="curve" smooth="yes"/>
      <point x="326" y="429"/>
      <point x="356" y="370"/>
      <point x="357" y="291" type="curve"/>
    </contour>
    <contour>
      <point x="325" y="501" type="line"/>
      <point x="343" y="501" type="line"/>
      <point x="463" y="571" type="line"/>
      <point x="487" y="571" type="line"/>
      <point x="599" y="501" type="line"/>
      <point x="617" y="501" type="line"/>
      <point x="487" y="639" type="line"/>
      <point x="463" y="639" type="line"/>
    </contour>
    <contour>
      <point x="837" y="438" type="line"/>
      <point x="861" y="512"/>
      <point x="900" y="576"/>
      <point x="974" y="576" type="curve" smooth="yes"/>
      <point x="1025" y="576"/>
      <point x="1055" y="517"/>
      <point x="1056" y="438" type="curve"/>
    </contour>
  </outline>
</glyph>
<glyph name="e_s_s_e" format="2">
  <advance width="706"/>
  <unicode hex="F19C0"/>
  <outline>
    <contour>
      <point x="706" y="291" type="line"/>
      <point x="54" y="291" type="line"/>
      <point x="47" y="277"/>
      <point x="42" y="263"/>
      <point x="38" y="247" type="curve" smooth="yes"/>
      <point x="7" y="122"/>
      <point x="63" y="-10"/>
      <point x="188" y="-10" type="curve" smooth="yes"/>
      <point x="256" y="-10"/>
      <point x="316" y="18"/>
      <point x="370" y="129" type="curve"/>
      <point x="330" y="129" type="line"/>
      <point x="299" y="72"/>
      <point x="258" y="16"/>
      <point x="195" y="16" type="curve" smooth="yes"/>
      <point x="127" y="16"/>
      <point x="96" y="119"/>
      <point x="123" y="237" type="curve" smooth="yes"/>
      <point x="129" y="260" type="line"/>
      <point x="706" y="260" type="line"/>
    </contour>
    <contour>
      <point x="239" y="270" type="curve"/>
      <point x="323" y="270" type="line"/>
      <point x="313" y="315"/>
      <point x="291" y="337"/>
      <point x="236" y="384" type="curve" smooth="yes"/>
      <point x="160" y="449"/>
      <point x="147" y="459"/>
      <point x="147" y="487" type="curve" smooth="yes"/>
      <point x="147" y="522"/>
      <point x="187" y="551"/>
      <point x="217" y="551" type="curve" smooth="yes"/>
      <point x="261" y="551"/>
      <point x="281" y="517"/>
      <point x="268" y="489" type="curve" smooth="yes"/>
      <point x="261" y="474"/>
      <point x="265" y="460"/>
      <point x="269" y="450" type="curve" smooth="yes"/>
      <point x="278" y="428"/>
      <point x="304" y="419"/>
      <point x="323" y="427" type="curve" smooth="yes"/>
      <point x="348" y="437"/>
      <point x="353" y="471"/>
      <point x="339" y="503" type="curve" smooth="yes"/>
      <point x="320" y="546"/>
      <point x="268" y="568"/>
      <point x="212" y="570" type="curve" smooth="yes"/>
      <point x="137" y="573"/>
      <point x="85" y="509"/>
      <point x="91" y="451" type="curve" smooth="yes"/>
      <point x="97" y="392"/>
      <point x="113" y="391"/>
      <point x="183" y="328" type="curve" smooth="yes"/>
      <point x="206" y="307"/>
      <point x="226" y="289"/>
    </contour>
    <contour>
      <point x="530" y="270" type="curve"/>
      <point x="614" y="270" type="line"/>
      <point x="604" y="315"/>
      <point x="582" y="337"/>
      <point x="527" y="384" type="curve" smooth="yes"/>
      <point x="451" y="449"/>
      <point x="438" y="459"/>
      <point x="438" y="487" type="curve" smooth="yes"/>
      <point x="438" y="522"/>
      <point x="478" y="551"/>
      <point x="508" y="551" type="curve" smooth="yes"/>
      <point x="552" y="551"/>
      <point x="572" y="517"/>
      <point x="559" y="489" type="curve" smooth="yes"/>
      <point x="552" y="474"/>
      <point x="556" y="460"/>
      <point x="560" y="450" type="curve" smooth="yes"/>
      <point x="569" y="428"/>
      <point x="595" y="419"/>
      <point x="614" y="427" type="curve" smooth="yes"/>
      <point x="639" y="437"/>
      <point x="644" y="471"/>
      <point x="630" y="503" type="curve" smooth="yes"/>
      <point x="611" y="546"/>
      <point x="559" y="568"/>
      <point x="503" y="570" type="curve" smooth="yes"/>
      <point x="428" y="573"/>
      <point x="376" y="509"/>
      <point x="382" y="451" type="curve" smooth="yes"/>
      <point x="388" y="392"/>
      <point x="404" y="391"/>
      <point x="474" y="328" type="curve" smooth="yes"/>
      <point x="497" y="307"/>
      <point x="517" y="289"/>
    </contour>
  </outline>
</glyph>
<glyph name="F_F_E" format="2">
  <advance width="1053"/>
  <unicode hex="F2030"/>
  <outline>
    <contour>
      <point x="234" y="0" type="line"/>
      <point x="234" y="28" type="line"/>
      <point x="184" y="28" type="line"/>
      <point x="165" y="50" type="line"/>
      <point x="215" y="289" type="line"/>
      <point x="244" y="311" type="line"/>
      <point x="353" y="311" type="line"/>
      <point x="375" y="292" type="line"/>
      <point x="375" y="262" type="line"/>
      <point x="403" y="262" type="line"/>
      <point x="430" y="394" type="line"/>
      <point x="402" y="394" type="line"/>
      <point x="393" y="366" type="line"/>
      <point x="371" y="347" type="line"/>
      <point x="252" y="347" type="line"/>
      <point x="233" y="369" type="line"/>
      <point x="268" y="540" type="line"/>
      <point x="287" y="562" type="line"/>
      <point x="444" y="562" type="line"/>
      <point x="466" y="543" type="line"/>
      <point x="475" y="497" type="line"/>
      <point x="509" y="497" type="line"/>
      <point x="528" y="543" type="line"/>
      <point x="550" y="562" type="line"/>
      <point x="707" y="562" type="line"/>
      <point x="726" y="540" type="line"/>
      <point x="690" y="367" type="line"/>
      <point x="663" y="346" type="line"/>
      <point x="554" y="346" type="line"/>
      <point x="532" y="365" type="line"/>
      <point x="532" y="395" type="line"/>
      <point x="504" y="395" type="line"/>
      <point x="477" y="263" type="line"/>
      <point x="505" y="263" type="line"/>
      <point x="514" y="291" type="line"/>
      <point x="536" y="310" type="line"/>
      <point x="655" y="310" type="line"/>
      <point x="674" y="288" type="line"/>
      <point x="620" y="28" type="line"/>
      <point x="555" y="28" type="line"/>
      <point x="555" y="0" type="line"/>
      <point x="947" y="0" type="line"/>
      <point x="969" y="105" type="line"/>
      <point x="941" y="105" type="line"/>
      <point x="931" y="57" type="line"/>
      <point x="909" y="38" type="line"/>
      <point x="735" y="38" type="line"/>
      <point x="706" y="60" type="line"/>
      <point x="754" y="289" type="line"/>
      <point x="783" y="311" type="line"/>
      <point x="939" y="311" type="line"/>
      <point x="961" y="292" type="line"/>
      <point x="961" y="262" type="line"/>
      <point x="992" y="262" type="line"/>
      <point x="1019" y="394" type="line"/>
      <point x="988" y="394" type="line"/>
      <point x="979" y="366" type="line"/>
      <point x="957" y="347" type="line"/>
      <point x="791" y="347" type="line"/>
      <point x="772" y="369" type="line"/>
      <point x="807" y="540" type="line"/>
      <point x="836" y="562" type="line"/>
      <point x="980" y="562" type="line"/>
      <point x="1002" y="543" type="line"/>
      <point x="1011" y="497" type="line"/>
      <point x="1042" y="497" type="line"/>
      <point x="1063" y="600" type="line"/>
      <point x="496" y="600" type="line"/>
      <point x="203" y="599" type="line"/>
      <point x="84" y="28" type="line"/>
      <point x="20" y="28" type="line"/>
      <point x="20" y="0" type="line"/>
    </contour>
  </outline>
</glyph>
<glyph name="F_V_E" format="2">
  <advance width="830"/>
  <unicode hex="F2060"/>
  <outline>
    <contour>
      <point x="234" y="0" type="line"/>
      <point x="234" y="28" type="line"/>
      <point x="184" y="28" type="line"/>
      <point x="165" y="50" type="line"/>
      <point x="215" y="289" type="line"/>
      <point x="244" y="311" type="line"/>
      <point x="418" y="311" type="line"/>
      <point x="419" y="347" type="line"/>
      <point x="252" y="347" type="line"/>
      <point x="233" y="369" type="line"/>
      <point x="268" y="540" type="line"/>
      <point x="287" y="562" type="line"/>
      <point x="444" y="562" type="line"/>
      <point x="466" y="543" type="line"/>
      <point x="475" y="497" type="line"/>
      <point x="503" y="497" type="line"/>
      <point x="524" y="600" type="line"/>
      <point x="203" y="599" type="line"/>
      <point x="84" y="28" type="line"/>
      <point x="20" y="28" type="line"/>
      <point x="20" y="0" type="line"/>
    </contour>
    <contour>
      <point x="620" y="600" type="line"/>
      <point x="620" y="572" type="line"/>
      <point x="668" y="572" type="line"/>
      <point x="687" y="550" type="line"/>
      <point x="687" y="549" type="line"/>
      <point x="419" y="68" type="line"/>
      <point x="419" y="337" type="line"/>
      <point x="344" y="340" type="line"/>
      <point x="344" y="0" type="line"/>
      <point x="430" y="0" type="line"/>
      <point x="749" y="572" type="line"/>
      <point x="802" y="572" type="line"/>
      <point x="802" y="600" type="line"/>
    </contour>
    <contour>
      <point x="436" y="38" type="line"/>
      <point x="428" y="0" type="line"/>
      <point x="724" y="0" type="line"/>
      <point x="746" y="105" type="line"/>
      <point x="718" y="105" type="line"/>
      <point x="708" y="57" type="line"/>
      <point x="686" y="38" type="line"/>
    </contour>
    <contour>
      <point x="595" y="347" type="line"/>
      <point x="587" y="311" type="line"/>
      <point x="719" y="311" type="line"/>
      <point x="741" y="292" type="line"/>
      <point x="741" y="262" type="line"/>
      <point x="769" y="262" type="line"/>
      <point x="796" y="394" type="line"/>
      <point x="768" y="394" type="line"/>
      <point x="759" y="366" type="line"/>
      <point x="737" y="347" type="line"/>
    </contour>
    <contour>
      <point x="742" y="600" type="line"/>
      <point x="733" y="562" type="line"/>
      <point x="760" y="562" type="line"/>
      <point x="782" y="543" type="line"/>
      <point x="791" y="497" type="line"/>
      <point x="819" y="497" type="line"/>
      <point x="840" y="600" type="line"/>
    </contour>
  </outline>
</glyph>
<glyph name="f_f_e" format="2">
  <advance width="686"/>
  <unicode hex="F2130"/>
  <outline>
    <contour>
      <point x="339" y="260" type="line"/>
      <point x="686" y="260" type="line"/>
      <point x="686" y="291" type="line"/>
      <point x="328" y="291" type="line"/>
      <point x="348" y="393" type="line"/>
      <point x="358" y="440" type="line"/>
      <point x="364" y="474"/>
      <point x="373" y="501"/>
      <point x="385" y="523" type="curve" smooth="yes"/>
      <point x="408" y="565"/>
      <point x="441" y="583"/>
      <point x="470" y="578" type="curve" smooth="yes"/>
      <point x="487" y="575"/>
      <point x="496" y="563"/>
      <point x="499" y="541" type="curve"/>
      <point x="498" y="520"/>
      <point x="503" y="510"/>
      <point x="510" y="502" type="curve" smooth="yes"/>
      <point x="525" y="485"/>
      <point x="550" y="480"/>
      <point x="570" y="494" type="curve" smooth="yes"/>
      <point x="592" y="509"/>
      <point x="595" y="546"/>
      <point x="574" y="575" type="curve" smooth="yes"/>
      <point x="556" y="599"/>
      <point x="522" y="608"/>
      <point x="473" y="609" type="curve" smooth="yes"/>
      <point x="438" y="610"/>
      <point x="401" y="597"/>
      <point x="371" y="572" type="curve" smooth="yes"/>
      <point x="360" y="562"/>
      <point x="353" y="552"/>
      <point x="350" y="541" type="curve"/>
      <point x="350" y="577"/>
      <point x="308" y="610"/>
      <point x="253" y="610" type="curve" smooth="yes"/>
      <point x="173" y="610"/>
      <point x="119" y="537"/>
      <point x="100" y="440" type="curve"/>
      <point x="30" y="440" type="line"/>
      <point x="30" y="407" type="line"/>
      <point x="75" y="407" type="line"/>
      <point x="91" y="394" type="line"/>
      <point x="15" y="0" type="line"/>
      <point x="83" y="0" type="line"/>
      <point x="160" y="393" type="line"/>
      <point x="162" y="393" type="line"/>
      <point x="178" y="407" type="line"/>
      <point x="263" y="407" type="line"/>
      <point x="279" y="394" type="line"/>
      <point x="248" y="247" type="line" smooth="yes"/>
      <point x="221" y="119"/>
      <point x="273" y="-10"/>
      <point x="398" y="-10" type="curve" smooth="yes"/>
      <point x="466" y="-10"/>
      <point x="526" y="18"/>
      <point x="580" y="129" type="curve"/>
      <point x="540" y="129" type="line"/>
      <point x="509" y="72"/>
      <point x="468" y="16"/>
      <point x="405" y="16" type="curve" smooth="yes"/>
      <point x="337" y="16"/>
      <point x="302" y="120"/>
      <point x="333" y="237" type="curve" smooth="yes"/>
    </contour>
    <contour>
      <point x="170" y="440" type="line"/>
      <point x="187" y="541"/>
      <point x="206" y="579"/>
      <point x="250" y="579" type="curve" smooth="yes"/>
      <point x="312" y="579"/>
      <point x="306" y="535"/>
      <point x="288" y="440" type="curve"/>
    </contour>
  </outline>
</glyph>
